<svg xmlns="http://www.w3.org/2000/svg" width="251" height="50" fill="none"><path fill="#1366AF" d="M49.002 49.002h7.592L32.1 6.56 28.305 0 0 49.002H11.06l-1.734-3.01 3.796-6.561 5.53 9.57h7.591l-9.325-16.148 3.795-6.577 13.122 22.726h7.575l-16.9-29.287 3.795-6.577 20.697 35.864Z"/><path fill="#2B3B42" d="M63.367 26.669c5.432-1.833 9.359-6.954 9.359-12.975 0-6.61-4.761-12.172-11.011-13.432C60.47.082 58.917 0 56.806 0H35.88l3.91 6.74.066.115 14.954.017H58.671c3.747 0 6.807 3.06 6.807 6.806 0 3.747-3.06 6.806-6.807 6.806H47.726l3.976 6.905 12.483 21.613h7.592l-12.484-21.63a12.905 12.905 0 0 0 4.074-.703Z"/><path fill="#2B3B42" fill-rule="evenodd" d="M85.422 46.94v1.866h-.867v-5.023h1.914c.556 0 .998.147 1.326.441.327.295.49.682.49 1.162 0 .49-.163.873-.49 1.145-.317.273-.764.41-1.342.41h-1.03Zm0-.703h1.047c.306 0 .54-.071.704-.213.163-.153.245-.365.245-.638s-.082-.49-.245-.654c-.164-.153-.393-.235-.687-.246h-1.064v1.75ZM93.374 46.417c0 .49-.082.922-.246 1.292a2.1 2.1 0 0 1-.72.867 2.036 2.036 0 0 1-1.096.295c-.404 0-.763-.098-1.08-.294a2.075 2.075 0 0 1-.736-.851 2.964 2.964 0 0 1-.262-1.276v-.279c0-.49.087-.921.262-1.292.174-.382.42-.671.736-.867a1.953 1.953 0 0 1 1.08-.295c.404 0 .764.098 1.08.295.316.196.562.48.736.85.164.371.246.797.246 1.277v.278Zm-.868-.262c0-.556-.103-.982-.31-1.276-.208-.295-.502-.442-.884-.442s-.676.147-.883.442c-.208.294-.317.714-.328 1.26v.278c0 .556.11.981.328 1.276.207.305.501.458.883.458s.676-.147.883-.442c.208-.294.311-.725.311-1.292v-.262Z" clip-rule="evenodd"/><path fill="#2B3B42" d="M98.413 47.17c-.055.534-.251.948-.59 1.243-.348.305-.806.458-1.374.458-.392 0-.741-.098-1.047-.294a1.807 1.807 0 0 1-.703-.802 2.995 2.995 0 0 1-.262-1.21v-.475c0-.47.082-.884.245-1.244.175-.36.415-.638.72-.834a2.036 2.036 0 0 1 1.097-.295c.545 0 .987.148 1.325.442.338.305.534.73.589 1.276h-.867c-.044-.36-.148-.616-.311-.769-.175-.163-.42-.245-.736-.245-.382 0-.677.136-.884.409-.196.283-.3.692-.31 1.227v.442c0 .545.097.96.294 1.243.196.284.48.425.85.425.339 0 .595-.076.77-.229.174-.152.283-.409.327-.769h.867ZM103.354 47.17c-.055.534-.251.948-.589 1.243-.349.305-.807.458-1.374.458-.404 0-.753-.098-1.048-.294a1.809 1.809 0 0 1-.703-.802 2.993 2.993 0 0 1-.262-1.21v-.475c0-.47.082-.884.246-1.244.174-.36.414-.638.719-.834a2.01 2.01 0 0 1 1.08-.295c.557 0 1.004.148 1.342.442.338.305.534.73.589 1.276h-.867c-.044-.36-.147-.616-.311-.769-.175-.163-.425-.245-.753-.245-.371 0-.66.136-.867.409-.196.283-.3.692-.311 1.227v.442c0 .545.098.96.295 1.243.196.284.48.425.851.425.338 0 .594-.076.769-.229.174-.152.283-.409.327-.769h.867ZM107.542 43.783h.868v5.023h-.868v-3.584l-2.192 3.584h-.883v-5.023h.883v3.583l2.192-3.583ZM112.86 43.783h.867v5.023h-.867v-3.584l-2.193 3.584h-.867v-5.023h.867v3.583l2.193-3.583Zm.016-1.276a.927.927 0 0 1-.294.703c-.208.175-.475.262-.802.262-.338 0-.611-.087-.818-.262a.928.928 0 0 1-.295-.703h.622c0 .152.044.267.131.343.087.087.207.131.36.131a.467.467 0 0 0 .344-.13c.087-.077.13-.192.13-.344h.622ZM118.93 47.17c-.055.534-.251.948-.589 1.243-.349.305-.807.458-1.374.458-.393 0-.742-.098-1.048-.294a1.811 1.811 0 0 1-.703-.802 2.99 2.99 0 0 1-.262-1.21v-.475c0-.47.082-.884.246-1.244a2 2 0 0 1 .719-.834 2.039 2.039 0 0 1 1.097-.295c.545 0 .987.148 1.325.442.338.305.534.73.589 1.276h-.867c-.044-.36-.148-.616-.311-.769-.175-.163-.42-.245-.736-.245-.382 0-.677.136-.884.409-.196.283-.3.692-.311 1.227v.442c0 .545.098.96.295 1.243.196.284.48.425.851.425.338 0 .594-.076.769-.229.174-.152.283-.409.327-.769h.867ZM121.531 46.646h-.589v2.16h-.867v-5.023h.867v2.11h.475l1.472-2.11h1.064l-1.718 2.405 1.865 2.618h-1.047l-1.522-2.16Z"/><path fill="#2B3B42" fill-rule="evenodd" d="M127.732 47.627h-1.93l-.409 1.179h-.9l1.881-5.023h.786l1.881 5.023h-.9l-.409-1.178Zm-1.701-.703h1.456l-.72-2.078-.736 2.078ZM132.428 48.806v-1.882h-.965l-.966 1.882h-.932l1.112-2.144c-.578-.273-.867-.72-.867-1.341 0-.48.158-.857.475-1.13.305-.261.741-.397 1.308-.408h1.702v5.023h-.867Zm-1.751-3.453c0 .284.077.502.229.655.164.163.404.245.72.245h.802v-1.767h-.802c-.327 0-.567.077-.72.23-.152.152-.229.365-.229.637Z" clip-rule="evenodd"/><path fill="#2B3B42" d="M141.459 43.783h.867v5.023h-.867v-3.584l-2.192 3.584h-.867v-5.023h.867v3.583l2.192-3.583ZM147.676 48.806h-.85V46.58h-2.242v2.226h-.867v-5.023h.867v2.094h2.242v-2.094h.85v5.023ZM153.027 48.806h-.868V46.58h-2.225v2.226h-.867v-5.023h.867v2.094h2.225v-2.094h.868v5.023Z"/><path fill="#2B3B42" fill-rule="evenodd" d="M158.393 46.417c0 .49-.087.922-.262 1.292a1.94 1.94 0 0 1-.72.867 2.003 2.003 0 0 1-1.079.295c-.404 0-.764-.098-1.08-.294a1.927 1.927 0 0 1-.737-.851 2.972 2.972 0 0 1-.261-1.276v-.279c0-.49.081-.921.245-1.292.175-.382.42-.671.736-.867a2.01 2.01 0 0 1 1.08-.295c.415 0 .775.098 1.08.295.316.196.562.48.736.85.175.371.262.797.262 1.277v.278Zm-.867-.262c0-.556-.104-.982-.311-1.276-.218-.295-.518-.442-.9-.442-.371 0-.665.147-.883.442-.208.294-.311.714-.311 1.26v.278c0 .556.103.981.311 1.276.218.305.518.458.9.458.381 0 .676-.147.883-.442.207-.294.311-.725.311-1.292v-.262ZM159.604 48.806v-5.023h1.718c.567 0 .998.114 1.292.343.295.23.442.567.442 1.015 0 .229-.065.436-.196.621-.12.186-.3.328-.54.426.272.076.485.212.638.409.142.207.213.452.213.736 0 .47-.148.834-.442 1.096-.306.251-.736.377-1.293.377h-1.832Zm.867-2.913h.851c.261 0 .469-.06.621-.18.153-.12.229-.294.229-.523 0-.251-.07-.431-.212-.54-.142-.11-.36-.164-.655-.164h-.834v1.407Zm0 .638v1.571h.965c.273 0 .486-.065.638-.196.153-.142.229-.333.229-.573 0-.523-.267-.79-.801-.802h-1.031ZM167.195 47.627h-1.947l-.392 1.179h-.917l1.898-5.023h.769l1.898 5.023h-.9l-.409-1.178Zm-1.701-.703h1.456l-.736-2.078-.72 2.078Z" clip-rule="evenodd"/><path fill="#2B3B42" d="M169.421 43.783h.867v4.319h2.192v-4.32h.867v4.32h.606L173.887 50h-.801v-1.194h-3.665v-5.023ZM178.076 43.783h.867v5.023h-.867v-3.584l-2.193 3.584h-.867v-5.023h.867v3.583l2.193-3.583Z"/><path fill="#2B3B42" fill-rule="evenodd" d="M184.326 46.417c0 .49-.088.922-.262 1.292-.164.371-.404.66-.72.867a2.004 2.004 0 0 1-1.08.295 2.09 2.09 0 0 1-1.096-.294 1.968 1.968 0 0 1-.72-.851 2.972 2.972 0 0 1-.262-1.276v-.279c0-.49.082-.921.246-1.292.174-.382.42-.671.736-.867a2.004 2.004 0 0 1 1.08-.295c.414 0 .774.098 1.08.295.316.196.561.48.736.85.174.371.262.797.262 1.277v.278Zm-.867-.262c0-.556-.104-.982-.311-1.276-.218-.295-.518-.442-.9-.442-.371 0-.666.147-.884.442-.207.294-.311.714-.311 1.26v.278c0 .556.104.981.311 1.276.218.305.518.458.9.458s.676-.147.884-.442c.207-.294.311-.725.311-1.292v-.262Z" clip-rule="evenodd"/><path fill="#2B3B42" d="M189.512 48.806h-.867V46.58h-2.241v2.226h-.868v-5.023h.868v2.094h2.241v-2.094h.867v5.023ZM194.846 48.806h-.867V46.58h-2.225v2.226h-.868v-5.023h.868v2.094h2.225v-2.094h.867v5.023Z"/><path fill="#2B3B42" fill-rule="evenodd" d="M199.084 47.627h-1.931l-.409 1.179h-.9l1.882-5.023h.785l1.881 5.023h-.899l-.409-1.178Zm-1.686-.703h1.44l-.72-2.078-.72 2.078ZM203.779 48.806v-1.882h-.965l-.965 1.882h-.933l1.113-2.144c-.579-.273-.868-.72-.868-1.341 0-.48.159-.857.475-1.13.316-.261.753-.397 1.309-.408h1.701v5.023h-.867Zm-1.75-3.453c0 .284.076.502.229.655.163.163.403.245.72.245h.801v-1.767h-.801c-.328 0-.568.077-.72.23-.153.152-.229.365-.229.637Z" clip-rule="evenodd"/><path fill="#2B3B42" d="M211.207 46.646h-.589v2.16h-.867v-5.023h.867v2.11h.475l1.472-2.11h1.064l-1.718 2.405 1.865 2.618h-1.047l-1.522-2.16Z"/><path fill="#2B3B42" fill-rule="evenodd" d="M218.488 46.417c0 .49-.082.922-.245 1.292-.175.371-.42.66-.737.867a1.95 1.95 0 0 1-1.079.295c-.404 0-.764-.098-1.08-.294a2.075 2.075 0 0 1-.737-.851 2.972 2.972 0 0 1-.261-1.276v-.279c0-.49.087-.921.261-1.292.175-.382.415-.671.72-.867a2.039 2.039 0 0 1 1.097-.295c.403 0 .763.098 1.079.295.317.196.557.48.72.85.175.371.262.797.262 1.277v.278Zm-.867-.262c0-.556-.104-.982-.311-1.276-.207-.295-.502-.442-.883-.442-.382 0-.677.147-.884.442-.218.294-.327.714-.327 1.26v.278c0 .556.109.981.327 1.276.207.305.502.458.884.458.381 0 .676-.147.883-.442.207-.294.311-.725.311-1.292v-.262Z" clip-rule="evenodd"/><path fill="#2B3B42" d="m220.828 43.783 1.44 3.844 1.439-3.844h1.129v5.023h-.867v-1.653l.082-2.209-1.472 3.862h-.622l-1.473-3.862.082 2.21v1.652h-.851v-5.023h1.113ZM230.17 48.806h-.867v-4.32h-2.209v4.32h-.851v-5.023h3.927v5.023Z"/><path fill="#2B3B42" fill-rule="evenodd" d="M234.359 47.627h-1.931l-.409 1.179h-.9l1.882-5.023h.785l1.882 5.023h-.9l-.409-1.178Zm-1.686-.703h1.44l-.72-2.078-.72 2.078Z" clip-rule="evenodd"/><path fill="#2B3B42" d="M240.56 48.806h-.868V46.58h-2.241v2.226h-.867v-5.023h.867v2.094h2.241v-2.094h.868v5.023ZM244.993 43.783h.868v5.023h-.868v-3.584l-2.192 3.584h-.867v-5.023h.867v3.583l2.192-3.583Z"/><path fill="#2B3B42" fill-rule="evenodd" d="M249.722 48.806v-1.882h-.965l-.966 1.882h-.932l1.112-2.144c-.578-.273-.867-.72-.867-1.341 0-.48.153-.857.458-1.13.317-.261.758-.397 1.325-.408h1.702v5.023h-.867Zm-1.751-3.453c0 .284.077.502.229.655.153.163.387.245.704.245h.818v-1.767h-.818c-.317 0-.551.077-.704.23-.152.152-.229.365-.229.637ZM91.541 23.92v10.684h-6.986V4.27h13.22c2.541 0 4.777.415 6.708 1.244 1.931.84 3.419 2.023 4.467 3.55 1.036 1.538 1.554 3.289 1.554 5.252 0 2.967-1.135 5.312-3.403 7.036-2.28 1.712-5.427 2.568-9.44 2.568h-6.12Zm0-5.072h6.234c1.843 0 3.25-.387 4.221-1.161.971-.775 1.456-1.887 1.456-3.338 0-1.483-.491-2.683-1.472-3.6-.971-.916-2.318-1.39-4.042-1.423h-6.397v9.522Z" clip-rule="evenodd"/><path fill="#2B3B42" d="M136.436 4.27h7.003v30.334h-7.003v-20.14l-13.563 20.14h-6.986V4.27h6.986v20.19l13.563-20.19ZM161.371 22.202h-4.025v12.402h-6.986V4.27h6.986v12.14h3.174l8.295-12.14h8.525l-10.455 14.35 11.534 15.984h-8.327l-8.721-12.402Z"/><path fill="#2B3B42" fill-rule="evenodd" d="M209.031 20.124c0 2.99-.589 5.607-1.767 7.854-1.178 2.258-2.863 3.997-5.055 5.22-2.204 1.22-4.723 1.831-7.559 1.831-2.803 0-5.307-.605-7.51-1.816-2.203-1.21-3.91-2.94-5.121-5.186-1.211-2.236-1.827-4.816-1.849-7.739v-1.489c0-2.989.6-5.623 1.8-7.902 1.211-2.27 2.912-4.009 5.105-5.22 2.192-1.221 4.701-1.832 7.526-1.832s5.334.61 7.526 1.832c2.203 1.211 3.905 2.95 5.105 5.22 1.2 2.28 1.799 4.903 1.799 7.87v1.357Zm-7.068-1.374c0-3.185-.638-5.6-1.914-7.248-1.276-1.658-3.092-2.487-5.448-2.487-2.345 0-4.151.818-5.416 2.454-1.276 1.636-1.92 4.03-1.93 7.183v1.472c0 3.098.632 5.503 1.897 7.216 1.277 1.712 3.109 2.568 5.498 2.568 2.345 0 4.145-.823 5.399-2.47 1.254-1.647 1.893-4.047 1.914-7.2V18.75Z" clip-rule="evenodd"/><path fill="#2B3B42" d="m224.051 4.27 8.704 22.006L241.41 4.27h9.179v30.334h-7.003V26.31l.687-14.316-9.145 22.611h-4.794l-9.13-22.578.704 14.283v8.295h-6.987V4.27h9.13Z"/></svg>