<svg width="251" height="50" viewBox="0 0 251 50" fill="none" xmlns="http://www.w3.org/2000/svg">
<path d="M49.002 49.0019H56.5936L32.1008 6.56086L28.305 0L0 49.0019H7.59162H11.0602L9.32592 45.9915L13.1217 39.4306L18.6518 49.0019H26.2435L16.9175 32.8534L20.7133 26.2762L33.8351 49.0019H41.4103L24.5092 19.7153L28.305 13.1381L49.002 49.0019Z" fill="white"/>
<path d="M63.367 26.6688C68.799 24.8364 72.7257 19.7153 72.7257 13.6944C72.7257 7.08442 67.9646 1.52159 61.7146 0.261776C60.4711 0.0818023 58.9168 0 56.8062 0H51.5542H35.8801L39.7905 6.74084L39.8559 6.85536L54.8101 6.87173C54.8592 6.87173 54.9083 6.87173 54.9573 6.87173H58.6714C62.4181 6.87173 65.4776 9.93128 65.4776 13.678C65.4776 17.4247 62.4181 20.4843 58.6714 20.4843H56.8062H54.9573H52.7649H48.3474H47.7257L51.7015 27.3887L64.1851 49.0019H71.7767L59.2931 27.3724C60.7165 27.356 62.0909 27.1106 63.367 26.6688Z" fill="white"/>
<path fill-rule="evenodd" clip-rule="evenodd" d="M85.4221 46.9404V48.8056H84.5549V43.7827H86.4692C87.0255 43.7827 87.4672 43.9299 87.7945 44.2244C88.1217 44.5189 88.2853 44.9061 88.2853 45.386C88.2853 45.8769 88.1217 46.2586 87.7945 46.5313C87.4781 46.804 87.0309 46.9404 86.4528 46.9404H85.4221ZM85.4221 46.2368H86.4692C86.7746 46.2368 87.0091 46.1659 87.1727 46.0241C87.3363 45.8714 87.4182 45.6587 87.4182 45.386C87.4182 45.1134 87.3363 44.8952 87.1727 44.7316C87.0091 44.5789 86.7801 44.4971 86.4856 44.4862H85.4221V46.2368Z" fill="white"/>
<path fill-rule="evenodd" clip-rule="evenodd" d="M93.3735 46.4168C93.3735 46.9077 93.2917 47.3385 93.1281 47.7094C92.9536 48.0802 92.7136 48.3693 92.4082 48.5765C92.0919 48.7728 91.7265 48.871 91.312 48.871C90.9084 48.871 90.5485 48.7728 90.2322 48.5765C89.9159 48.3693 89.6704 48.0857 89.4959 47.7257C89.3214 47.3549 89.2341 46.9295 89.2341 46.4495V46.1714C89.2341 45.6806 89.3214 45.2497 89.4959 44.8789C89.6704 44.4971 89.9159 44.208 90.2322 44.0117C90.5376 43.8154 90.8975 43.7172 91.312 43.7172C91.7156 43.7172 92.0755 43.8154 92.3919 44.0117C92.7082 44.208 92.9536 44.4917 93.1281 44.8625C93.2917 45.2334 93.3735 45.6587 93.3735 46.1387V46.4168ZM92.5064 46.1551C92.5064 45.5988 92.4028 45.1734 92.1955 44.8789C91.9883 44.5844 91.6938 44.4371 91.312 44.4371C90.9302 44.4371 90.6358 44.5844 90.4285 44.8789C90.2213 45.1734 90.1122 45.5933 90.1013 46.1387V46.4168C90.1013 46.9731 90.2104 47.3985 90.4285 47.693C90.6358 47.9984 90.9302 48.1511 91.312 48.1511C91.6938 48.1511 91.9883 48.0039 92.1955 47.7094C92.4028 47.4149 92.5064 46.984 92.5064 46.4168V46.1551Z" fill="white"/>
<path d="M98.4128 47.1694C98.3583 47.7039 98.1619 48.1184 97.8238 48.4129C97.4747 48.7183 97.0166 48.871 96.4494 48.871C96.0568 48.871 95.7077 48.7728 95.4023 48.5765C95.0969 48.3911 94.8624 48.1238 94.6988 47.7748C94.5352 47.4258 94.4479 47.0222 94.437 46.5641V46.0896C94.437 45.6206 94.5188 45.2061 94.6824 44.8462C94.857 44.4862 95.0969 44.208 95.4023 44.0117C95.7186 43.8154 96.084 43.7172 96.4985 43.7172C97.0439 43.7172 97.4857 43.8645 97.8238 44.159C98.1619 44.4644 98.3583 44.8898 98.4128 45.4352H97.5457C97.502 45.0752 97.3984 44.8189 97.2348 44.6662C97.0603 44.5026 96.8148 44.4207 96.4985 44.4207C96.1168 44.4207 95.8223 44.5571 95.615 44.8298C95.4187 45.1134 95.3151 45.5224 95.3042 46.0569V46.4986C95.3042 47.044 95.4023 47.4585 95.5987 47.7421C95.795 48.0257 96.0786 48.1675 96.4494 48.1675C96.7876 48.1675 97.0439 48.0911 97.2184 47.9384C97.3929 47.7857 97.502 47.5294 97.5457 47.1694H98.4128Z" fill="white"/>
<path d="M103.354 47.1694C103.299 47.7039 103.103 48.1184 102.765 48.4129C102.416 48.7183 101.958 48.871 101.391 48.871C100.987 48.871 100.638 48.7728 100.343 48.5765C100.038 48.3911 99.8036 48.1238 99.64 47.7748C99.4763 47.4258 99.3891 47.0222 99.3782 46.5641V46.0896C99.3782 45.6206 99.46 45.2061 99.6236 44.8462C99.7981 44.4862 100.038 44.208 100.343 44.0117C100.66 43.8154 101.02 43.7172 101.423 43.7172C101.98 43.7172 102.427 43.8645 102.765 44.159C103.103 44.4644 103.299 44.8898 103.354 45.4352H102.487C102.443 45.0752 102.34 44.8189 102.176 44.6662C102.001 44.5026 101.751 44.4207 101.423 44.4207C101.052 44.4207 100.763 44.5571 100.556 44.8298C100.36 45.1134 100.256 45.5224 100.245 46.0569V46.4986C100.245 47.044 100.343 47.4585 100.54 47.7421C100.736 48.0257 101.02 48.1675 101.391 48.1675C101.729 48.1675 101.985 48.0911 102.16 47.9384C102.334 47.7857 102.443 47.5294 102.487 47.1694H103.354Z" fill="white"/>
<path d="M107.542 43.7827H108.41V48.8056H107.542V45.2224L105.35 48.8056H104.467V43.7827H105.35V47.3658L107.542 43.7827Z" fill="white"/>
<path d="M112.86 43.7827H113.727V48.8056H112.86V45.2224L110.667 48.8056H109.8V43.7827H110.667V47.3658L112.86 43.7827ZM112.876 42.5065C112.876 42.7901 112.778 43.0246 112.582 43.21C112.374 43.3845 112.107 43.4718 111.78 43.4718C111.442 43.4718 111.169 43.3845 110.962 43.21C110.766 43.0246 110.667 42.7901 110.667 42.5065H111.289C111.289 42.6592 111.333 42.7737 111.42 42.8501C111.507 42.9373 111.627 42.981 111.78 42.981C111.922 42.981 112.036 42.9373 112.124 42.8501C112.211 42.7737 112.254 42.6592 112.254 42.5065H112.876Z" fill="white"/>
<path d="M118.93 47.1694C118.875 47.7039 118.679 48.1184 118.341 48.4129C117.992 48.7183 117.534 48.871 116.967 48.871C116.574 48.871 116.225 48.7728 115.919 48.5765C115.614 48.3911 115.38 48.1238 115.216 47.7748C115.052 47.4258 114.965 47.0222 114.954 46.5641V46.0896C114.954 45.6206 115.036 45.2061 115.2 44.8462C115.374 44.4862 115.614 44.208 115.919 44.0117C116.236 43.8154 116.601 43.7172 117.016 43.7172C117.561 43.7172 118.003 43.8645 118.341 44.159C118.679 44.4644 118.875 44.8898 118.93 45.4352H118.063C118.019 45.0752 117.915 44.8189 117.752 44.6662C117.577 44.5026 117.332 44.4207 117.016 44.4207C116.634 44.4207 116.339 44.5571 116.132 44.8298C115.936 45.1134 115.832 45.5224 115.821 46.0569V46.4986C115.821 47.044 115.919 47.4585 116.116 47.7421C116.312 48.0257 116.596 48.1675 116.967 48.1675C117.305 48.1675 117.561 48.0911 117.736 47.9384C117.91 47.7857 118.019 47.5294 118.063 47.1694H118.93Z" fill="white"/>
<path d="M121.531 46.6459H120.942V48.8056H120.075V43.7827H120.942V45.8932H121.417L122.889 43.7827H123.953L122.235 46.1878L124.1 48.8056H123.053L121.531 46.6459Z" fill="white"/>
<path fill-rule="evenodd" clip-rule="evenodd" d="M127.732 47.6275H125.802L125.393 48.8056H124.493L126.374 43.7827H127.16L129.041 48.8056H128.141L127.732 47.6275ZM126.031 46.924H127.487L126.767 44.8461L126.031 46.924Z" fill="white"/>
<path fill-rule="evenodd" clip-rule="evenodd" d="M132.428 48.8056V46.924H131.463L130.497 48.8056H129.565L130.677 46.6622C130.099 46.3895 129.81 45.9423 129.81 45.3206C129.81 44.8407 129.968 44.4644 130.285 44.1917C130.59 43.9299 131.026 43.7936 131.593 43.7827H133.295V48.8056H132.428ZM130.677 45.3533C130.677 45.6369 130.754 45.8551 130.906 46.0078C131.07 46.1714 131.31 46.2532 131.626 46.2532H132.428V44.4862H131.626C131.299 44.4862 131.059 44.5625 130.906 44.7152C130.754 44.8679 130.677 45.0806 130.677 45.3533Z" fill="white"/>
<path d="M141.459 43.7827H142.326V48.8056H141.459V45.2224L139.267 48.8056H138.4V43.7827H139.267V47.3658L141.459 43.7827Z" fill="white"/>
<path d="M147.676 48.8056H146.826V46.5804H144.584V48.8056H143.717V43.7827H144.584V45.8769H146.826V43.7827H147.676V48.8056Z" fill="white"/>
<path d="M153.027 48.8056H152.159V46.5804H149.934V48.8056H149.067V43.7827H149.934V45.8769H152.159V43.7827H153.027V48.8056Z" fill="white"/>
<path fill-rule="evenodd" clip-rule="evenodd" d="M158.393 46.4168C158.393 46.9077 158.306 47.3385 158.131 47.7094C157.968 48.0802 157.728 48.3693 157.411 48.5765C157.095 48.7728 156.735 48.871 156.332 48.871C155.928 48.871 155.568 48.7728 155.252 48.5765C154.924 48.3693 154.679 48.0857 154.515 47.7257C154.341 47.3549 154.254 46.9295 154.254 46.4495V46.1714C154.254 45.6806 154.335 45.2497 154.499 44.8789C154.674 44.4971 154.919 44.208 155.235 44.0117C155.552 43.8154 155.912 43.7172 156.315 43.7172C156.73 43.7172 157.09 43.8154 157.395 44.0117C157.711 44.208 157.957 44.4917 158.131 44.8625C158.306 45.2334 158.393 45.6587 158.393 46.1387V46.4168ZM157.526 46.1551C157.526 45.5988 157.422 45.1734 157.215 44.8789C156.997 44.5844 156.697 44.4371 156.315 44.4371C155.944 44.4371 155.65 44.5844 155.432 44.8789C155.224 45.1734 155.121 45.5933 155.121 46.1387V46.4168C155.121 46.9731 155.224 47.3985 155.432 47.693C155.65 47.9984 155.95 48.1511 156.332 48.1511C156.713 48.1511 157.008 48.0039 157.215 47.7094C157.422 47.4149 157.526 46.984 157.526 46.4168V46.1551Z" fill="white"/>
<path fill-rule="evenodd" clip-rule="evenodd" d="M159.604 48.8056V43.7827H161.322C161.889 43.7827 162.32 43.8972 162.614 44.1262C162.909 44.3553 163.056 44.6934 163.056 45.1406C163.056 45.3697 162.991 45.5769 162.86 45.7624C162.74 45.9478 162.56 46.0896 162.32 46.1878C162.592 46.2641 162.805 46.4004 162.958 46.5968C163.1 46.804 163.171 47.0494 163.171 47.333C163.171 47.8021 163.023 48.1675 162.729 48.4292C162.423 48.6801 161.993 48.8056 161.436 48.8056H159.604ZM160.471 45.8932H161.322C161.583 45.8932 161.791 45.8333 161.943 45.7133C162.096 45.5933 162.172 45.4188 162.172 45.1897C162.172 44.9388 162.102 44.7589 161.96 44.6498C161.818 44.5407 161.6 44.4862 161.305 44.4862H160.471V45.8932ZM160.471 46.5313V48.102H161.436C161.709 48.102 161.922 48.0366 162.074 47.9057C162.227 47.7639 162.303 47.573 162.303 47.333C162.303 46.8095 162.036 46.5422 161.502 46.5313H160.471Z" fill="white"/>
<path fill-rule="evenodd" clip-rule="evenodd" d="M167.195 47.6275H165.248L164.856 48.8056H163.939L165.837 43.7827H166.606L168.504 48.8056H167.604L167.195 47.6275ZM165.494 46.924H166.95L166.214 44.8461L165.494 46.924Z" fill="white"/>
<path d="M169.421 43.7827H170.288V48.102H172.48V43.7827H173.347V48.102H173.953L173.887 49.9999H173.086V48.8056H169.421V43.7827Z" fill="white"/>
<path d="M178.076 43.7827H178.943V48.8056H178.076V45.2224L175.883 48.8056H175.016V43.7827H175.883V47.3658L178.076 43.7827Z" fill="white"/>
<path fill-rule="evenodd" clip-rule="evenodd" d="M184.326 46.4168C184.326 46.9077 184.238 47.3385 184.064 47.7094C183.9 48.0802 183.66 48.3693 183.344 48.5765C183.028 48.7728 182.668 48.871 182.264 48.871C181.861 48.871 181.495 48.7728 181.168 48.5765C180.852 48.3693 180.612 48.0857 180.448 47.7257C180.274 47.3549 180.186 46.9295 180.186 46.4495V46.1714C180.186 45.6806 180.268 45.2497 180.432 44.8789C180.606 44.4971 180.852 44.208 181.168 44.0117C181.484 43.8154 181.844 43.7172 182.248 43.7172C182.662 43.7172 183.022 43.8154 183.328 44.0117C183.644 44.208 183.889 44.4917 184.064 44.8625C184.238 45.2334 184.326 45.6587 184.326 46.1387V46.4168ZM183.459 46.1551C183.459 45.5988 183.355 45.1734 183.148 44.8789C182.93 44.5844 182.63 44.4371 182.248 44.4371C181.877 44.4371 181.582 44.5844 181.364 44.8789C181.157 45.1734 181.053 45.5933 181.053 46.1387V46.4168C181.053 46.9731 181.157 47.3985 181.364 47.693C181.582 47.9984 181.882 48.1511 182.264 48.1511C182.646 48.1511 182.94 48.0039 183.148 47.7094C183.355 47.4149 183.459 46.984 183.459 46.4168V46.1551Z" fill="white"/>
<path d="M189.512 48.8056H188.645V46.5804H186.404V48.8056H185.536V43.7827H186.404V45.8769H188.645V43.7827H189.512V48.8056Z" fill="white"/>
<path d="M194.846 48.8056H193.979V46.5804H191.754V48.8056H190.886V43.7827H191.754V45.8769H193.979V43.7827H194.846V48.8056Z" fill="white"/>
<path fill-rule="evenodd" clip-rule="evenodd" d="M199.084 47.6275H197.153L196.744 48.8056H195.844L197.726 43.7827H198.511L200.392 48.8056H199.493L199.084 47.6275ZM197.398 46.924H198.838L198.118 44.8461L197.398 46.924Z" fill="white"/>
<path fill-rule="evenodd" clip-rule="evenodd" d="M203.779 48.8056V46.924H202.814L201.849 48.8056H200.916L202.029 46.6622C201.45 46.3895 201.161 45.9423 201.161 45.3206C201.161 44.8407 201.32 44.4644 201.636 44.1917C201.952 43.9299 202.389 43.7936 202.945 43.7827H204.646V48.8056H203.779ZM202.029 45.3533C202.029 45.6369 202.105 45.8551 202.258 46.0078C202.421 46.1714 202.661 46.2532 202.978 46.2532H203.779V44.4862H202.978C202.65 44.4862 202.41 44.5625 202.258 44.7152C202.105 44.8679 202.029 45.0806 202.029 45.3533Z" fill="white"/>
<path d="M211.207 46.6459H210.618V48.8056H209.751V43.7827H210.618V45.8932H211.093L212.565 43.7827H213.629L211.911 46.1878L213.776 48.8056H212.729L211.207 46.6459Z" fill="white"/>
<path fill-rule="evenodd" clip-rule="evenodd" d="M218.488 46.4168C218.488 46.9077 218.406 47.3385 218.243 47.7094C218.068 48.0802 217.823 48.3693 217.506 48.5765C217.201 48.7728 216.841 48.871 216.427 48.871C216.023 48.871 215.663 48.7728 215.347 48.5765C215.03 48.3693 214.785 48.0857 214.61 47.7257C214.436 47.3549 214.349 46.9295 214.349 46.4495V46.1714C214.349 45.6806 214.436 45.2497 214.61 44.8789C214.785 44.4971 215.025 44.208 215.33 44.0117C215.647 43.8154 216.012 43.7172 216.427 43.7172C216.83 43.7172 217.19 43.8154 217.506 44.0117C217.823 44.208 218.063 44.4917 218.226 44.8625C218.401 45.2334 218.488 45.6587 218.488 46.1387V46.4168ZM217.621 46.1551C217.621 45.5988 217.517 45.1734 217.31 44.8789C217.103 44.5844 216.808 44.4371 216.427 44.4371C216.045 44.4371 215.75 44.5844 215.543 44.8789C215.325 45.1734 215.216 45.5933 215.216 46.1387V46.4168C215.216 46.9731 215.325 47.3985 215.543 47.693C215.75 47.9984 216.045 48.1511 216.427 48.1511C216.808 48.1511 217.103 48.0039 217.31 47.7094C217.517 47.4149 217.621 46.984 217.621 46.4168V46.1551Z" fill="white"/>
<path d="M220.828 43.7827L222.268 47.6275L223.707 43.7827H224.836V48.8056H223.969V47.1531L224.051 44.9443L222.579 48.8056H221.957L220.484 44.9443L220.566 47.1531V48.8056H219.715V43.7827H220.828Z" fill="white"/>
<path d="M230.17 48.8056H229.303V44.4862H227.094V48.8056H226.243V43.7827H230.17V48.8056Z" fill="white"/>
<path fill-rule="evenodd" clip-rule="evenodd" d="M234.359 47.6275H232.428L232.019 48.8056H231.119L233.001 43.7827H233.786L235.668 48.8056H234.768L234.359 47.6275ZM232.673 46.924H234.113L233.393 44.8461L232.673 46.924Z" fill="white"/>
<path d="M240.56 48.8056H239.692V46.5804H237.451V48.8056H236.584V43.7827H237.451V45.8769H239.692V43.7827H240.56V48.8056Z" fill="white"/>
<path d="M244.993 43.7827H245.861V48.8056H244.993V45.2224L242.801 48.8056H241.934V43.7827H242.801V47.3658L244.993 43.7827Z" fill="white"/>
<path fill-rule="evenodd" clip-rule="evenodd" d="M249.722 48.8056V46.924H248.757L247.791 48.8056H246.859L247.971 46.6622C247.393 46.3895 247.104 45.9423 247.104 45.3206C247.104 44.8407 247.257 44.4644 247.562 44.1917C247.879 43.9299 248.32 43.7936 248.887 43.7827H250.589V48.8056H249.722ZM247.971 45.3533C247.971 45.6369 248.048 45.8551 248.2 46.0078C248.353 46.1714 248.587 46.2532 248.904 46.2532H249.722V44.4862H248.904C248.587 44.4862 248.353 44.5625 248.2 44.7152C248.048 44.8679 247.971 45.0806 247.971 45.3533Z" fill="white"/>
<path fill-rule="evenodd" clip-rule="evenodd" d="M91.5412 23.9203V34.6041H84.5549V4.27039H97.7748C100.316 4.27039 102.552 4.68488 104.483 5.51385C106.414 6.35372 107.902 7.53718 108.95 9.06423C109.986 10.6022 110.504 12.3528 110.504 14.3162C110.504 17.283 109.369 19.6282 107.101 21.3515C104.821 23.064 101.674 23.9203 97.6603 23.9203H91.5412ZM91.5412 18.8483H97.7748C99.6182 18.8483 101.025 18.461 101.996 17.6866C102.967 16.9122 103.452 15.7996 103.452 14.3489C103.452 12.8655 102.961 11.6657 101.98 10.7494C101.009 9.83322 99.6618 9.35874 97.9384 9.32602H91.5412V18.8483Z" fill="white"/>
<path d="M136.436 4.27039H143.439V34.6041H136.436V14.4634L122.873 34.6041H115.887V4.27039H122.873V24.4602L136.436 4.27039Z" fill="white"/>
<path d="M161.371 22.2023H157.346V34.6041H150.36V4.27039H157.346V16.4104H160.52L168.815 4.27039H177.34L166.885 18.6192L178.419 34.6041H170.092L161.371 22.2023Z" fill="white"/>
<path fill-rule="evenodd" clip-rule="evenodd" d="M209.031 20.1244C209.031 23.1131 208.442 25.7309 207.264 27.9778C206.086 30.2357 204.401 31.9754 202.209 33.1971C200.005 34.4187 197.486 35.0295 194.65 35.0295C191.847 35.0295 189.343 34.4241 187.14 33.2134C184.937 32.0027 183.23 30.2738 182.019 28.0269C180.808 25.7909 180.192 23.2112 180.17 20.288V18.7992C180.17 15.8105 180.77 13.1763 181.97 10.8967C183.181 8.62791 184.882 6.88817 187.075 5.67743C189.267 4.45579 191.776 3.84497 194.601 3.84497C197.426 3.84497 199.935 4.45579 202.127 5.67743C204.33 6.88817 206.032 8.62791 207.232 10.8967C208.432 13.1763 209.031 15.7996 209.031 18.7664V20.1244ZM201.963 18.7501C201.963 15.5651 201.325 13.1491 200.049 11.502C198.773 9.8441 196.957 9.01512 194.601 9.01512C192.256 9.01512 190.45 9.83319 189.185 11.4693C187.909 13.1054 187.265 15.4996 187.255 18.6519V20.1244C187.255 23.2221 187.887 25.6273 189.152 27.3397C190.429 29.0522 192.261 29.9084 194.65 29.9084C196.995 29.9084 198.795 29.0849 200.049 27.4379C201.303 25.7909 201.942 23.3912 201.963 20.2389V18.7501Z" fill="white"/>
<path d="M224.051 4.27039L232.755 26.2763L241.41 4.27039H250.589V34.6041H243.586V26.309L244.273 11.9929L235.128 34.6041H230.334L221.204 12.0256L221.908 26.309V34.6041H214.921V4.27039H224.051Z" fill="white"/>
</svg>
