<svg width="1532" height="300" viewBox="0 0 1532 300" fill="none" xmlns="http://www.w3.org/2000/svg">
<path d="M299.5 299.6H345.9L196.2 40.2L173 0L0 299.6H46.4001H67.6001L57 281.2L80.2 241L114 299.6H160.4L103.4 200.9L126.6 160.7L206.8 299.6H253.1L149.8 120.5L173 80.4001L299.5 299.6Z" fill="#FEFEFE"/>
<path d="M387.3 163.1C420.5 151.9 444.5 120.5 444.5 83.8C444.5 43.3 415.4 9.39995 377.2 1.69995C369.6 0.599951 360.1 0 347.2 0H315.1H219.3L243.2 41.3L243.6 42L335 42.1001C335.3 42.1001 335.6 42 335.9 42H358.6C381.5 42 400.2 60.8 400.2 83.7C400.2 106.6 381.5 125.3 358.6 125.3H347.2H335.9H322.5H295.5H291.7L316 167.5L392.3 299.6H438.7L362.4 167.4C371.1 167.2 379.5 165.7 387.3 163.1Z" fill="#FEFEFE"/>
<path fill-rule="evenodd" clip-rule="evenodd" d="M559.5 231.7V297H516.8V111.6H597.6C613.133 111.6 626.8 114.133 638.6 119.2C650.4 124.267 659.5 131.5 665.9 140.9C672.233 150.3 675.4 161 675.4 173C675.4 191.133 668.467 205.433 654.6 215.9C640.667 226.433 621.433 231.7 596.9 231.7H559.5ZM559.5 200.7H597.6C608.867 200.7 617.467 198.333 623.4 193.6C629.333 188.867 632.3 182.067 632.3 173.2C632.3 164.133 629.3 156.8 623.3 151.2C617.366 145.6 609.133 142.7 598.6 142.5H559.5V200.7Z" fill="#FEFEFE"/>
<path d="M833.9 111.6H876.7V297H833.9V173.8L751 297H708.3V111.6H751V235L833.9 111.6Z" fill="#FEFEFE"/>
<path d="M986.3 221.2H961.7V297H919V111.6H961.7V185.8H981.1L1031.8 111.6H1083.9L1020 199.3L1090.5 297H1039.6L986.3 221.2Z" fill="#FEFEFE"/>
<path fill-rule="evenodd" clip-rule="evenodd" d="M1277.6 208.5C1277.6 226.767 1274 242.767 1266.8 256.5C1259.6 270.3 1249.3 280.933 1235.9 288.4C1222.43 295.867 1207.03 299.6 1189.7 299.6C1172.57 299.6 1157.27 295.9 1143.8 288.5C1130.33 281.1 1119.9 270.533 1112.5 256.8C1105.1 243.133 1101.33 227.367 1101.2 209.5V200.3C1101.2 182.1 1104.87 166.033 1112.2 152.1C1119.6 138.233 1130 127.6 1143.4 120.2C1156.8 112.733 1172.13 109 1189.4 109C1206.67 109 1222 112.733 1235.4 120.2C1248.87 127.6 1259.27 138.233 1266.6 152.1C1273.93 166.033 1277.6 182.067 1277.6 200.2V208.5ZM1234.4 200.1C1234.4 180.633 1230.5 165.867 1222.7 155.8C1214.9 145.667 1203.8 140.6 1189.4 140.6C1175.07 140.6 1164.03 145.6 1156.3 155.6C1148.5 165.6 1144.57 180.233 1144.5 199.5V208.5C1144.5 227.433 1148.37 242.133 1156.1 252.6C1163.9 263.067 1175.1 268.3 1189.7 268.3C1204.03 268.3 1215.03 263.267 1222.7 253.2C1230.37 243.133 1234.27 228.467 1234.4 209.2V200.1Z" fill="#FEFEFE"/>
<path d="M1369.4 111.6L1422.6 246.1L1475.5 111.6H1531.6V297H1488.8V246.3L1493 158.8L1437.1 297H1407.8L1352 158.9L1356.3 246.3V297H1313.6V111.6H1369.4Z" fill="#FEFEFE"/>
</svg>
