<svg width="180" height="50" viewBox="0 0 180 50" fill="none" xmlns="http://www.w3.org/2000/svg">
<path d="M72.1872 23.6159C72.0565 23.3806 71.8733 23.1453 71.6903 22.91C71.4812 22.7007 71.2457 22.4916 70.932 22.3084C70.6444 22.1254 70.2784 21.9948 69.8599 21.8639C69.4416 21.7594 68.9709 21.7071 68.3957 21.7071C68.1602 21.7071 67.8725 21.7332 67.5588 21.7855C67.2451 21.8639 66.905 21.9685 66.5653 22.1254C66.2253 22.3084 65.8854 22.5438 65.5454 22.8316C65.2315 23.1192 64.9178 23.5115 64.6823 23.9819C64.3949 24.4788 64.1856 25.0541 64.0287 25.734C63.8719 26.4138 63.7934 27.2244 63.7934 28.1657C63.7934 29.1857 63.898 30.0747 64.1071 30.8855C64.3163 31.6959 64.6302 32.3757 65.0225 32.9249C65.4145 33.4742 65.9114 33.8925 66.4867 34.18C67.0359 34.4677 67.6895 34.6247 68.3957 34.6247C69.2323 34.6247 69.8859 34.4937 70.4091 34.2585C70.932 33.9971 71.3504 33.6832 71.6642 33.3172C71.9779 32.9512 72.2132 32.559 72.3441 32.1667C72.5009 31.7744 72.6318 31.4084 72.7101 31.1208H76.6063C76.397 32.2974 76.0573 33.3172 75.5604 34.18C75.0635 35.043 74.462 35.7491 73.756 36.3242C73.0501 36.8997 72.2656 37.3179 71.3766 37.6056C70.4875 37.8932 69.5462 38.0239 68.5524 38.0239C67.1666 38.0239 65.9114 37.7886 64.8393 37.3179C63.7673 36.8734 62.8519 36.1935 62.1199 35.3568C61.3877 34.4937 60.8385 33.4479 60.4462 32.2189C60.0542 31.0161 59.871 29.6564 59.871 28.1657C59.871 27.0154 59.9756 25.9693 60.2109 25.028C60.4202 24.0865 60.7341 23.2499 61.1261 22.5177C61.5184 21.7855 61.9892 21.1842 62.5382 20.635C63.0612 20.112 63.6364 19.6674 64.2903 19.3275C64.9178 18.9876 65.5715 18.726 66.2774 18.5432C66.9836 18.3862 67.6895 18.3079 68.3957 18.3079C69.4153 18.3079 70.3307 18.4123 71.115 18.6216C71.8996 18.8569 72.6055 19.1182 73.2068 19.4844C73.8083 19.8506 74.3052 20.2429 74.7236 20.7133C75.1419 21.1842 75.5081 21.6548 75.7695 22.1254C76.031 22.6223 76.214 23.1192 76.371 23.5898C76.5017 24.0865 76.5802 24.5311 76.6063 24.9496H72.6841L72.5009 24.3221C72.4225 24.0865 72.3181 23.8775 72.1872 23.6159Z" fill="#1A5143"/>
<path d="M87.0502 23.6422H91.8617L86.1089 29.421L92.097 37.5533H87.3903L83.311 31.6698L81.8467 33.1603V37.5533H78.238V23.6422H81.8467V28.9242L87.0502 23.6422Z" fill="#1A5143"/>
<path d="M95.3764 32.1404C95.4809 32.6634 95.6641 33.134 95.9517 33.5264C96.2131 33.9446 96.553 34.2847 96.9713 34.5201C97.3899 34.7553 97.9128 34.886 98.5404 34.886C99.194 34.886 99.7432 34.7553 100.162 34.5201C100.58 34.2847 100.92 33.9446 101.181 33.5525C101.443 33.1602 101.626 32.7159 101.731 32.1927C101.835 31.6698 101.888 31.1468 101.888 30.5976C101.888 30.0486 101.835 29.5255 101.731 29.0025C101.626 28.4796 101.443 28.0089 101.181 27.6167C100.92 27.2244 100.58 26.9107 100.162 26.6492C99.7432 26.4138 99.194 26.3092 98.5404 26.3092C97.9128 26.3092 97.3899 26.4399 96.9713 26.6754C96.553 26.9107 96.2131 27.2505 95.9517 27.6427C95.6641 28.0613 95.4809 28.5058 95.3764 29.0288C95.2718 29.5517 95.1934 30.0747 95.1934 30.5976C95.1934 31.1208 95.2718 31.6438 95.3764 32.1404ZM91.9247 27.6427C92.2386 26.7275 92.7092 25.9432 93.3368 25.2894C93.9643 24.6357 94.6966 24.1389 95.5855 23.7729C96.4747 23.4068 97.442 23.2237 98.5404 23.2237C99.6648 23.2237 100.658 23.4068 101.548 23.7729C102.437 24.1389 103.169 24.6357 103.77 25.2894C104.372 25.9432 104.842 26.7275 105.182 27.6427C105.496 28.5319 105.653 29.5255 105.653 30.5976C105.653 31.6698 105.496 32.6634 105.182 33.5525C104.842 34.4677 104.372 35.252 103.77 35.9059C103.169 36.5334 102.437 37.0566 101.548 37.4226C100.658 37.7886 99.6648 37.9718 98.5404 37.9718C97.442 37.9718 96.4747 37.7886 95.5855 37.4226C94.6966 37.0566 93.9643 36.5334 93.3368 35.9059C92.7092 35.252 92.2386 34.4677 91.9247 33.5525C91.611 32.6634 91.428 31.6698 91.428 30.5976C91.428 29.5257 91.611 28.5319 91.9247 27.6427Z" fill="#1A5143"/>
<path d="M112.452 26.5708L112.4 29.1595C112.347 30.6239 112.243 31.9051 112.112 33.0033C111.955 34.1016 111.72 35.0168 111.406 35.7491C111.066 36.4812 110.621 37.0304 110.072 37.4226C109.523 37.7886 108.791 37.9718 107.928 37.9718C107.51 37.9718 107.17 37.9456 106.856 37.9193C106.542 37.867 106.307 37.7886 106.098 37.7102V34.677C106.229 34.7291 106.385 34.7814 106.568 34.8339C106.751 34.86 106.961 34.886 107.222 34.886C107.51 34.886 107.745 34.8077 107.954 34.6247C108.163 34.4677 108.347 34.18 108.504 33.7355C108.66 33.2909 108.765 32.6896 108.87 31.9051C108.948 31.1208 109 30.127 109.026 28.8981L109.131 23.6422H120.323V37.5533H116.74V26.5708H112.452Z" fill="#1A5143"/>
<path d="M131.769 23.6422H136.58L130.827 29.421L136.815 37.5533H132.109L128.029 31.6698L126.565 33.1603V37.5533H122.956V23.6422H126.565V28.9242L131.769 23.6422Z" fill="#1A5143"/>
<path d="M140.095 32.1404C140.199 32.6634 140.382 33.134 140.67 33.5264C140.931 33.9446 141.271 34.2847 141.689 34.5201C142.108 34.7553 142.631 34.886 143.259 34.886C143.912 34.886 144.461 34.7553 144.88 34.5201C145.298 34.2847 145.638 33.9446 145.9 33.5525C146.161 33.1602 146.344 32.7159 146.449 32.1927C146.553 31.6698 146.606 31.1468 146.606 30.5976C146.606 30.0486 146.553 29.5255 146.449 29.0025C146.344 28.4796 146.161 28.0089 145.9 27.6167C145.638 27.2244 145.298 26.9107 144.88 26.6492C144.461 26.4138 143.912 26.3092 143.259 26.3092C142.631 26.3092 142.108 26.4399 141.689 26.6754C141.271 26.9107 140.931 27.2505 140.67 27.6427C140.382 28.0613 140.199 28.5058 140.095 29.0288C139.99 29.5517 139.911 30.0747 139.911 30.5976C139.911 31.1208 139.99 31.6438 140.095 32.1404ZM136.643 27.6427C136.957 26.7275 137.427 25.9432 138.055 25.2894C138.682 24.6357 139.415 24.1389 140.304 23.7729C141.193 23.4068 142.16 23.2237 143.259 23.2237C144.383 23.2237 145.377 23.4068 146.266 23.7729C147.155 24.1389 147.887 24.6357 148.488 25.2894C149.09 25.9432 149.56 26.7275 149.9 27.6427C150.214 28.5319 150.371 29.5255 150.371 30.5976C150.371 31.6698 150.214 32.6634 149.9 33.5525C149.56 34.4677 149.09 35.252 148.488 35.9059C147.887 36.5334 147.155 37.0566 146.266 37.4226C145.377 37.7886 144.383 37.9718 143.259 37.9718C142.16 37.9718 141.193 37.7886 140.304 37.4226C139.415 37.0566 138.682 36.5334 138.055 35.9059C137.427 35.252 136.957 34.4677 136.643 33.5525C136.329 32.6634 136.146 31.6698 136.146 30.5976C136.146 29.5257 136.329 28.5319 136.643 27.6427Z" fill="#1A5143"/>
<path d="M159.722 34.8339C160.036 34.7031 160.271 34.5723 160.455 34.3894C160.611 34.2324 160.742 34.0494 160.794 33.8401C160.847 33.6311 160.873 33.4479 160.873 33.2649C160.873 32.9249 160.847 32.6373 160.742 32.402C160.664 32.1927 160.533 32.0097 160.324 31.879C160.141 31.7221 159.879 31.6438 159.565 31.5912C159.252 31.5391 158.886 31.5128 158.441 31.5128H155.669V34.9907H158.441C158.964 34.9907 159.409 34.9384 159.722 34.8339ZM159.487 29.0025C159.748 28.9242 159.958 28.8456 160.115 28.7149C160.271 28.6105 160.402 28.4535 160.455 28.2703C160.533 28.0873 160.559 27.852 160.559 27.6167C160.559 27.4074 160.533 27.2244 160.455 27.0414C160.402 26.8845 160.271 26.7275 160.115 26.5969C159.984 26.4922 159.775 26.3878 159.513 26.3092C159.252 26.2308 158.938 26.2046 158.546 26.2046H155.669V29.1072H158.441C158.86 29.1072 159.199 29.0548 159.487 29.0025ZM161.108 23.7991C161.683 23.9298 162.207 24.1128 162.677 24.3742C163.122 24.6618 163.488 25.028 163.749 25.4986C164.011 25.9693 164.141 26.5708 164.141 27.303C164.141 27.7213 164.115 28.0873 164.011 28.3751C163.932 28.6888 163.802 28.9502 163.645 29.1595C163.488 29.3948 163.305 29.578 163.122 29.7087C162.912 29.8654 162.73 29.9961 162.494 30.1009C163.2 30.3363 163.723 30.7285 164.089 31.2775C164.455 31.8267 164.638 32.4543 164.638 33.2126C164.638 33.8662 164.534 34.4677 164.325 34.9907C164.089 35.5136 163.775 35.9845 163.357 36.3505C162.939 36.7427 162.442 37.0304 161.84 37.2394C161.239 37.4486 160.585 37.5533 159.853 37.5533H152.061V23.6422H159.252C159.905 23.6422 160.507 23.6943 161.108 23.7991Z" fill="#1A5143"/>
<path d="M169.554 32.1404C169.659 32.6634 169.842 33.134 170.13 33.5264C170.391 33.9446 170.731 34.2847 171.15 34.5201C171.568 34.7553 172.091 34.886 172.719 34.886C173.372 34.886 173.921 34.7553 174.34 34.5201C174.758 34.2847 175.098 33.9446 175.36 33.5525C175.621 33.1602 175.804 32.7159 175.909 32.1927C176.013 31.6698 176.066 31.1468 176.066 30.5976C176.066 30.0486 176.013 29.5255 175.909 29.0025C175.804 28.4796 175.621 28.0089 175.36 27.6167C175.098 27.2244 174.758 26.9107 174.34 26.6492C173.921 26.4138 173.372 26.3092 172.719 26.3092C172.091 26.3092 171.568 26.4399 171.15 26.6754C170.731 26.9107 170.391 27.2505 170.13 27.6427C169.842 28.0613 169.659 28.5058 169.554 29.0288C169.45 29.5517 169.372 30.0747 169.372 30.5976C169.372 31.1208 169.45 31.6438 169.554 32.1404ZM166.103 27.6427C166.417 26.7275 166.887 25.9432 167.515 25.2894C168.143 24.6357 168.875 24.1389 169.764 23.7729C170.653 23.4068 171.62 23.2237 172.719 23.2237C173.843 23.2237 174.837 23.4068 175.726 23.7729C176.615 24.1389 177.347 24.6357 177.948 25.2894C178.55 25.9432 179.02 26.7275 179.36 27.6427C179.674 28.5319 179.831 29.5255 179.831 30.5976C179.831 31.6698 179.674 32.6634 179.36 33.5525C179.02 34.4677 178.55 35.252 177.948 35.9059C177.347 36.5334 176.615 37.0566 175.726 37.4226C174.837 37.7886 173.843 37.9718 172.719 37.9718C171.62 37.9718 170.653 37.7886 169.764 37.4226C168.875 37.0566 168.143 36.5334 167.515 35.9059C166.887 35.252 166.417 34.4677 166.103 33.5525C165.789 32.6634 165.606 31.6698 165.606 30.5976C165.606 29.5257 165.789 28.5319 166.103 27.6427Z" fill="#1A5143"/>
<path d="M51.0449 27.1515V0.0106544H12.4974C11.2925 0.0106544 10.1287 0.184584 9.02625 0.502716L51.0449 27.1515Z" fill="#1A5143"/>
<mask id="mask0_2022_614" style="mask-type:luminance" maskUnits="userSpaceOnUse" x="30" y="1" width="7" height="12">
<path d="M36.4231 12.8114H33.1549V5.39998H30.4919V4.07301C31.3471 4.04348 32.0332 3.9068 32.5496 3.66357C33.0661 3.42014 33.4698 3.15838 33.7605 2.87828C34.0991 2.53891 34.3414 2.16306 34.4865 1.74995H36.4231V12.8114Z" fill="white"/>
</mask>
<g mask="url(#mask0_2022_614)">
<path d="M36.4231 12.8114H33.1549V5.39998H30.4919V4.07301C31.3471 4.04348 32.0332 3.9068 32.5496 3.66357C33.0661 3.42014 33.4698 3.15838 33.7605 2.87828C34.0991 2.53891 34.3414 2.16306 34.4865 1.74995H36.4231V12.8114Z" fill="url(#paint0_linear_2022_614)"/>
</g>
<mask id="mask1_2022_614" style="mask-type:luminance" maskUnits="userSpaceOnUse" x="37" y="1" width="13" height="16">
<path d="M48.7698 4.09482H41.3376L40.7807 7.28077H40.8774C41.1355 7.03021 41.4343 6.80879 41.7731 6.6169C42.0638 6.45494 42.4186 6.3036 42.8383 6.16364C43.2579 6.0235 43.7423 5.95323 44.2909 5.95323C45.1947 5.95323 45.9816 6.0899 46.6514 6.36267C47.3211 6.63544 47.8741 6.99681 48.3096 7.4464C48.7455 7.89677 49.0725 8.42377 49.2901 9.02857C49.508 9.63317 49.6173 10.2673 49.6173 10.9312C49.6173 11.7273 49.4754 12.4653 49.1934 13.1432C48.911 13.8214 48.5073 14.4077 47.983 14.902C47.4583 15.396 46.8248 15.7794 46.0825 16.0524C45.3399 16.3253 44.5007 16.4618 43.5649 16.4618C42.6605 16.4618 41.8296 16.351 41.0712 16.13C40.3125 15.9086 39.6628 15.5912 39.1224 15.1787C38.5815 14.7656 38.1576 14.2679 37.8516 13.6851C37.5447 13.1025 37.3912 12.45 37.3912 11.7273H40.6598C40.6598 12.5238 40.9258 13.1432 41.4584 13.5857C41.991 14.0283 42.6931 14.2494 43.5649 14.2494C44.3878 14.2494 45.0573 13.9652 45.5741 13.3977C46.0902 12.8295 46.3487 12.0446 46.3487 11.0416C46.3487 10.0978 46.0742 9.36407 45.5258 8.84055C44.9768 8.31702 44.2021 8.05487 43.2018 8.05487C42.685 8.05487 42.2333 8.13247 41.8459 8.28729C41.4584 8.44211 41.1275 8.62279 40.8532 8.82916C40.5465 9.05038 40.2803 9.30887 40.0544 9.60364H37.6337L39.0136 1.74995H48.7698V4.09482Z" fill="white"/>
</mask>
<g mask="url(#mask1_2022_614)">
<path d="M48.7698 4.09482H41.3376L40.7807 7.28077H40.8774C41.1355 7.03021 41.4343 6.80879 41.7731 6.6169C42.0638 6.45494 42.4186 6.3036 42.8383 6.16364C43.2579 6.0235 43.7423 5.95323 44.2909 5.95323C45.1947 5.95323 45.9816 6.0899 46.6514 6.36267C47.3211 6.63544 47.8741 6.99681 48.3096 7.4464C48.7455 7.89677 49.0725 8.42377 49.2901 9.02857C49.508 9.63317 49.6173 10.2673 49.6173 10.9312C49.6173 11.7273 49.4754 12.4653 49.1934 13.1432C48.911 13.8214 48.5073 14.4077 47.983 14.902C47.4583 15.396 46.8248 15.7794 46.0825 16.0524C45.3399 16.3253 44.5007 16.4618 43.5649 16.4618C42.6605 16.4618 41.8296 16.351 41.0712 16.13C40.3125 15.9086 39.6628 15.5912 39.1224 15.1787C38.5815 14.7656 38.1576 14.2679 37.8516 13.6851C37.5447 13.1025 37.3912 12.45 37.3912 11.7273H40.6598C40.6598 12.5238 40.9258 13.1432 41.4584 13.5857C41.991 14.0283 42.6931 14.2494 43.5649 14.2494C44.3878 14.2494 45.0573 13.9652 45.5741 13.3977C46.0902 12.8295 46.3487 12.0446 46.3487 11.0416C46.3487 10.0978 46.0742 9.36407 45.5258 8.84055C44.9768 8.31702 44.2021 8.05487 43.2018 8.05487C42.685 8.05487 42.2333 8.13247 41.8459 8.28729C41.4584 8.44211 41.1275 8.62279 40.8532 8.82916C40.5465 9.05038 40.2803 9.30887 40.0544 9.60364H37.6337L39.0136 1.74995H48.7698V4.09482Z" fill="url(#paint1_linear_2022_614)"/>
</g>
<mask id="mask2_2022_614" style="mask-type:luminance" maskUnits="userSpaceOnUse" x="0" y="0" width="52" height="50">
<path d="M51.1022 32.5295L51.1026 32.4826L51.0837 26.6366C50.716 22.8014 48.0531 19.9168 45.2253 16.843C43.8871 15.3885 41.5065 14.3254 37.6249 12.4415C34.382 10.8678 29.8299 8.50714 26.443 6.89621C20.0023 3.83284 13.5783 0.0818596 12.4211 0.00676346C12.0196 0.0160294 8.99369 -0.276039 5.52377 2.13138C5.51908 2.13446 5.51818 2.1391 5.51397 2.14238C2.18741 4.38784 0 8.19248 0 12.5079V37.5027C0 44.4049 5.59526 50 12.4974 50H38.5474C45.4496 50 51.0449 44.4049 51.0449 37.5027L51.102 32.5313C51.1022 32.5317 51.1024 32.5321 51.1026 32.5325C51.1024 32.5315 51.1022 32.5305 51.1022 32.5295Z" fill="white"/>
</mask>
<g mask="url(#mask2_2022_614)">
<path d="M11.7948 50V49.9807H11.5439V49.9614H11.2929V49.9421H11.1192V49.9228H10.9647V49.9035H10.8103V49.8842H10.6559V49.8649H10.5207V49.8456H10.4242V49.8263H10.3084V49.807H10.1926V49.7877H10.096V49.7684H9.98022V49.749H9.90301V49.7297H9.80649V49.7104H9.72927V49.6911H9.65205V49.6718H9.55553V49.6525H9.47832V49.6332H9.4011V49.6139H9.32388V49.5946H9.24667V49.5753H9.18876V49.556H9.11154V49.5367H9.05363V49.5174H8.97641V49.4981H8.9185V49.4788H8.84128V49.4595H8.78337V49.4402H8.72546V49.4209H8.66754V49.4016H8.60963V49.3823H8.55172V49.363H8.49381V49.3437H8.43589V49.3244H8.37798V49.3051H8.32007V49.2857H8.26216V49.2664H8.20425V49.2471H8.14633V49.2278H8.10773V49.2085H8.04981V49.1892H8.0112V49.1699H7.95329V49.1506H7.91468V49.1313H7.85677V49.112H7.81816V49.0927H7.76025V49.0734H7.72164V49.0541H7.66373V49.0348H7.62512V49.0155H7.56721V48.9962H7.5286V48.9769H7.48999V48.9576H7.45139V48.9383H7.41278V48.919H7.35487V48.8997H7.31626V48.8804H7.27765V48.8611H7.23904V48.8418H7.20043V48.8224H7.14252V48.8031H7.10391V48.7838H7.0653V48.7645H7.0267V48.7452H6.98809V48.7259H6.94948V48.7066H6.91087V48.6873H6.87226V48.668H6.83365V48.6487H6.79505V48.6294H6.75644V48.6101H6.71783V48.5908H6.67922V48.5715H6.64061V48.5522H6.60201V48.5329H6.5827V48.5136H6.54409V48.4943H6.50548V48.475H6.46688V48.4557H6.42827V48.4364H6.40896V48.4171H6.37036V48.3978H6.33175V48.3785H6.29314V48.3592H6.27384V48.3398H6.23523V48.3205H6.19662V48.3012H6.15801V48.2819H6.13871V48.2626H6.1001V48.2433H6.06149V48.224H6.02288V48.2047H6.00358V48.1854H5.96497V48.1661H5.94567V48.1468H5.90706V48.1275H5.88775V48.1082H5.84914V48.0889H5.81054V48.0696H5.79123V48.0503H5.75262V48.031H5.73332V48.0117H5.69471V47.9924H5.67541V47.9731H5.6368V47.9538H5.59819V47.9345H5.57889V47.9152H5.54028V47.8959H5.52097V47.8765H5.48237V47.8572H5.46306V47.8379H5.44376V47.8186H5.40515V47.7993H5.38585V47.78H5.34724V47.7607H5.32793V47.7414H5.28933V47.7221H5.27002V47.7028H5.25072V47.6835H5.21211V47.6642H5.1928V47.6449H5.1542V47.6256H5.13489V47.6063H5.11559V47.587H5.07698V47.5677H5.05768V47.5484H5.01907V47.5291H4.99976V47.5098H4.98046V47.4905H4.96116V47.4712H4.92255V47.4519H4.90324V47.4326H4.88394V47.4132H4.84533V47.3939H4.82603V47.3746H4.80672V47.3553H4.78742V47.336H4.74881V47.3167H4.72951V47.2974H4.7102V47.2781H4.6909V47.2588H4.65229V47.2395H4.63299V47.2202H4.61368V47.2009H4.57507V47.1816H4.55577V47.1623H4.53647V47.143H4.51716V47.1237H4.49786V47.1044H4.45925V47.0851H4.43994V47.0658H4.42064V47.0465H4.40134V47.0272H4.38203V47.0079H4.36273V46.9886H4.34342V46.9693H4.30482V46.95H4.28551V46.9306H4.26621V46.9113H4.2469V46.892H4.2276V46.8727H4.2083V46.8534H4.16969V46.8341H4.15038V46.8148H4.13108V46.7955H4.11177V46.7762H4.09247V46.7569H4.07317V46.7376H4.05386V46.7183H4.03456V46.699H4.01525V46.6797H3.99595V46.6604H3.95734V46.6411H3.93804V46.6218H3.91873V46.6025H3.89943V46.5832H3.88013V46.5639H3.86082V46.5446H3.84152V46.5253H3.82221V46.506H3.80291V46.4867H3.78361V46.4673H3.7643V46.448H3.745V46.4287H3.72569V46.4094H3.70639V46.3901H3.68708V46.3708H3.66778V46.3515H3.64848V46.3322H3.62917V46.3129H3.60987V46.2936H3.59056V46.2743H3.57126V46.255H3.55196V46.2357H3.53265V46.2164H3.51335V46.1971H3.49404V46.1778H3.47474V46.1585H3.45544V46.1392H3.43613V46.1199H3.41683V46.1006H3.39752V46.0813H3.37822V46.062H3.35891V46.0427H3.33961V46.004H3.32031V45.9847H3.301V45.9654H3.2817V45.9461H3.26239V45.9268H3.24309V45.9075H3.22379V45.8882H3.20448V45.8689H3.18518V45.8496H3.16587V45.8303H3.14657V45.7917H3.12727V45.7724H3.10796V45.7531H3.08866V45.7338H3.06935V45.7145H3.05005V45.6952H3.03075V45.6566H3.01144V45.6373H2.99214V45.618H2.97283V45.5987H2.95353V45.5794H2.93422V45.5601H2.91492V45.5408H2.89562V45.5021H2.87631V45.4828H2.85701V45.4635H2.8377V45.4442H2.8184V45.4249H2.7991V45.3863H2.77979V45.367H2.76049V45.3477H2.74118V45.3091H2.72188V45.2898H2.70258V45.2705H2.68327V45.2512H2.66397V45.2126H2.64466V45.1933H2.62536V45.174H2.60605V45.1547H2.58675V45.1161H2.56745V45.0968H2.54814V45.0775H2.52884V45.0388H2.50953V45.0195H2.49023V45.0002H2.47093V44.9809H2.45162V44.9423H2.43232V44.923H2.41301V44.8844H2.39371V44.8651H2.37441V44.8458H2.3551V44.8072H2.3358V44.7879H2.31649V44.7493H2.29719V44.73H2.27788V44.7107H2.25858V44.6721H2.23928V44.6528H2.21997V44.6142H2.20067V44.5948H2.18136V44.5562H2.16206V44.5369H2.14276V44.5176H2.12345V44.479H2.10415V44.4597H2.08484V44.4211H2.06554V44.4018H2.04624V44.3632H2.02693V44.3246H2.00763V44.3053H1.98832V44.2667H1.96902V44.2474H1.94971V44.2088H1.93041V44.1895H1.91111V44.1509H1.8918V44.1122H1.8725V44.0929H1.85319V44.0543H1.83389V44.035H1.81459V43.9964H1.79528V43.9771H1.77598V43.9385H1.75667V43.8999H1.73737V43.8613H1.71807V43.842H1.69876V43.8034H1.67946V43.7648H1.66015V43.7262H1.64085V43.7069H1.62155V43.6683H1.60224V43.6296H1.58294V43.591H1.56363V43.5717H1.54433V43.5331H1.52502V43.4945H1.50572V43.4559H1.48642V43.4173H1.46711V43.398H1.44781V43.3594H1.4285V43.3208H1.4092V43.2822H1.3899V43.2436H1.37059V43.205H1.35129V43.1663H1.33198V43.1277H1.31268V43.0891H1.29338V43.0505H1.27407V43.0119H1.25477V42.9733H1.23546V42.9347H1.21616V42.8961H1.19685V42.8575H1.17755V42.7996H1.15825V42.761H1.13894V42.7224H1.11964V42.6837H1.10033V42.6451H1.08103V42.5872H1.06173V42.5486H1.04242V42.51H1.02312V42.4714H1.00381V42.4328H0.98451V42.3749H0.965205V42.3363H0.945901V42.2784H0.926597V42.2397H0.907293V42.1818H0.887989V42.1432H0.868685V42.0853H0.849381V42.0467H0.830077V41.9888H0.810773V41.9502H0.791468V41.8923H0.772164V41.8537H0.75286V41.7958H0.733556V41.7378H0.714252V41.6799H0.694948V41.622H0.675644V41.5641H0.65634V41.5062H0.637036V41.4483H0.617731V41.3904H0.598427V41.3325H0.579123V41.2745H0.559819V41.2166H0.540515V41.1587H0.521211V41.0815H0.501907V41.0236H0.482603V40.9464H0.463299V40.8885H0.443994V40.8112H0.42469V40.7533H0.405386V40.6761H0.386082V40.5989H0.366778V40.5217H0.347474V40.4445H0.32817V40.3479H0.308866V40.2707H0.289562V40.1935H0.270258V40.097H0.250953V40.0198H0.231649V39.904H0.212345V39.8074H0.193041V39.6916H0.173737V39.5758H0.154433V39.4793H0.135129V39.3441H0.115825V39.1897H0.0965205V39.0353H0.0772164V38.8808H0.0579123V38.7071H0.0386082V38.4561H0.0193041V38.2052H0V11.8358H0.0193041V11.5655H0.0386082V11.3532H0.0579123V11.1601H0.0772164V10.9478H0.0965205V10.8127H0.115825V10.6968H0.135129V10.5617H0.154433V10.4459H0.173737V10.3301H0.193041V10.1949H0.212345V10.0984H0.231649V10.0019H0.250953V9.92467H0.270258V9.84745H0.289562V9.75093H0.308866V9.67372H0.32817V9.5772H0.347474V9.49998H0.366778V9.40346H0.386082V9.32624H0.405386V9.26833H0.42469V9.21042H0.443994V9.13321H0.463299V9.07529H0.482603V8.99807H0.501907V8.94016H0.521211V8.86295H0.540515V8.80503H0.559819V8.72782H0.579123V8.66991H0.598427V8.61199H0.617731V8.55408H0.637036V8.49617H0.65634V8.45756H0.675644V8.39965H0.694948V8.34174H0.714252V8.28382H0.733556V8.22591H0.75286V8.1873H0.772164V8.12939H0.791468V8.07148H0.810773V8.01357H0.830077V7.95565H0.849381V7.91705H0.868685V7.85913H0.887989V7.82053H0.907293V7.78192H0.926597V7.724H0.945901V7.68539H0.965205V7.64679H0.98451V7.58887H1.00381V7.55027H1.02312V7.51166H1.04242V7.45375H1.06173V7.41514H1.08103V7.37653H1.10033V7.33792H1.11964V7.28001H1.13894V7.2414H1.15825V7.20279H1.17755V7.16418H1.19685V7.12558H1.21616V7.08697H1.23546V7.04836H1.25477V7.00975H1.27407V6.97114H1.29338V6.93254H1.31268V6.89393H1.33198V6.85532H1.35129V6.81671H1.37059V6.7781H1.3899V6.73949H1.4092V6.70089H1.4285V6.66228H1.44781V6.62367H1.46711V6.58506H1.48642V6.54645H1.50572V6.50785H1.52502V6.48854H1.54433V6.44993H1.56363V6.41132H1.58294V6.37271H1.60224V6.35341H1.62155V6.3148H1.64085V6.2762H1.66015V6.25689H1.67946V6.21828H1.69876V6.17968H1.71807V6.14107H1.73737V6.12176H1.75667V6.08315H1.77598V6.04455H1.79528V6.02524H1.81459V5.98663H1.83389V5.94802H1.85319V5.90942H1.8725V5.89011H1.8918V5.85151H1.91111V5.8322H1.93041V5.79359H1.94971V5.77429H1.96902V5.73568H1.98832V5.71638H2.00763V5.67777H2.02693V5.65846H2.04624V5.61986H2.06554V5.60055H2.08484V5.56194H2.10415V5.54264H2.12345V5.50403H2.14276V5.48473H2.16206V5.44612H2.18136V5.42682H2.20067V5.38821H2.21997V5.3689H2.23928V5.3303H2.25858V5.31099H2.27788V5.27238H2.29719V5.25308H2.31649V5.21447H2.3358V5.19516H2.3551V5.17586H2.37441V5.15656H2.39371V5.11795H2.41301V5.09864H2.43232V5.07934H2.45162V5.04073H2.47093V5.02143H2.49023V5.00212H2.50953V4.96352H2.52884V4.94421H2.54814V4.92491H2.56745V4.8863H2.58675V4.867H2.60605V4.84769H2.62536V4.80908H2.64466V4.78978H2.66397V4.77047H2.68327V4.73187H2.70258V4.71256H2.72188V4.69326H2.74118V4.65465H2.76049V4.63535H2.77979V4.61604H2.7991V4.59674H2.8184V4.57743H2.8377V4.55813H2.85701V4.51952H2.87631V4.50022H2.89562V4.48092H2.91492V4.46161H2.93422V4.44231H2.95353V4.423H2.97283V4.38439H2.99214V4.36509H3.01144V4.34578H3.03075V4.32648H3.05005V4.30718H3.06935V4.28787H3.08866V4.24926H3.10796V4.22996H3.12727V4.21066H3.14657V4.19135H3.16587V4.17205H3.18518V4.15274H3.20448V4.11414H3.22379V4.09483H3.24309V4.07553H3.26239V4.05622H3.2817V4.03692H3.301V4.01762H3.32031V3.99831H3.33961V3.97901H3.35891V3.9597H3.37822V3.9404H3.39752V3.92109H3.41683V3.90179H3.43613V3.88248H3.45544V3.86318H3.47474V3.84388H3.49404V3.82457H3.51335V3.80527H3.53265V3.78596H3.55196V3.76666H3.57126V3.74736H3.59056V3.72805H3.60987V3.70875H3.62917V3.67014H3.64848V3.65084H3.66778V3.63153H3.68708V3.61223H3.70639V3.59293H3.72569V3.57362H3.745V3.55432H3.7643V3.53501H3.78361V3.51571H3.80291V3.4964H3.84152V3.4771H3.86082V3.45779H3.88013V3.43849H3.89943V3.41919H3.91873V3.39988H3.93804V3.38058H3.95734V3.36127H3.97665V3.34197H3.99595V3.32267H4.01525V3.30336H4.03456V3.28406H4.07317V3.26476H4.09247V3.24545H4.11177V3.22615H4.13108V3.20684H4.15038V3.18754H4.16969V3.16824H4.18899V3.14893H4.2083V3.12963H4.2276V3.11032H4.2469V3.09102H4.26621V3.07171H4.28551V3.05241H4.32412V3.0331H4.34342V3.0138H4.36273V2.9945H4.38203V2.97519H4.42064V2.95589H4.43994V2.93658H4.45925V2.91728H4.47855V2.89798H4.49786V2.87867H4.53647V2.85937H4.55577V2.84007H4.57507V2.82076H4.59438V2.80146H4.63299V2.78215H4.65229V2.76285H4.67159V2.74355H4.6909V2.72424H4.7102V2.70494H4.74881V2.68563H4.76811V2.66633H4.78742V2.64702H4.80672V2.62772H4.84533V2.60841H4.86463V2.58911H4.88394V2.56981H4.90324V2.5505H4.94185V2.5312H4.96116V2.51189H4.98046V2.49259H5.01907V2.47329H5.03837V2.45398H5.07698V2.43468H5.09628V2.41537H5.11559V2.39607H5.1542V2.37677H5.1735V2.35746H5.1928V2.33816H5.23141V2.31886H5.25072V2.29955H5.27002V2.28025H5.30863V2.26094H5.32793V2.24164H5.36654V2.22233H5.38585V2.20303H5.40515V2.18372H5.44376V2.16442H5.46306V2.14511H5.50167V2.12581H5.52097V2.10651H5.54028V2.0872H5.57889V2.0679H5.59819V2.0486H5.6368V2.02929H5.6561V2.00999H5.69471V1.99068H5.71402V1.97138H5.75262V1.95208H5.77193V1.93277H5.81054V1.91347H5.84914V1.89417H5.86845V1.87486H5.90706V1.85556H5.92636V1.83625H5.96497V1.81695H5.98427V1.79764H6.02288V1.77834H6.06149V1.75903H6.08079V1.73973H6.1194V1.72042H6.13871V1.70112H6.17731V1.68182H6.21592V1.66251H6.23523V1.64321H6.27384V1.62391H6.31244V1.6046H6.35105V1.5853H6.37036V1.56599H6.40896V1.54669H6.44757V1.52739H6.48618V1.50808H6.50548V1.48878H6.54409V1.46947H6.5827V1.45017H6.62131V1.43087H6.64061V1.41156H6.67922V1.39226H6.71783V1.37295H6.75644V1.35365H6.77574V1.33434H6.81435V1.31504H6.85296V1.29573H6.89157V1.27643H6.93017V1.25713H6.96878V1.23782H7.00739V1.21852H7.046V1.19921H7.08461V1.17991H7.12322V1.16061H7.16182V1.1413H7.20043V1.122H7.23904V1.1027H7.27765V1.08339H7.31626V1.06409H7.35487V1.04478H7.39347V1.02548H7.45139V1.00618H7.48999V0.98687H7.5286V0.967567H7.58651V0.948261H7.62512V0.928959H7.66373V0.909653H7.70234V0.89035H7.76025V0.871044H7.79886V0.851742H7.83747V0.832436H7.89538V0.813133H7.93399V0.793831H7.9726V0.774525H8.03051V0.755222H8.08842V0.735916H8.12703V0.716614H8.18494V0.697308H8.24285V0.678005H8.28146V0.658699H8.33937V0.639397H8.39729V0.62009H8.43589V0.600788H8.49381V0.581482H8.55172V0.56218H8.60963V0.542877H8.66754V0.523571H8.72546V0.504269H8.80267V0.484962H8.86059V0.46566H8.9185V0.446354H8.97641V0.427052H9.03432V0.407745H9.11154V0.388443H9.16945V0.369137H9.24667V0.349834H9.32388V0.330532H9.4011V0.311226H9.47832V0.291924H9.55553V0.272617H9.61345V0.253315H9.70997V0.234009H9.80649V0.214706H9.90301V0.1954H9.99953V0.176098H10.0767V0.156792H10.1926V0.137489H10.3084V0.118187H10.4242V0.0988808H10.5593V0.0795784H10.7138V0.0602722H10.8682V0.0409698H11.0613V0.0216637H11.2929V0.0023613H12.5284V0.0216637H12.6249V0.0409698H12.7021V0.0602722H12.76V0.0795784H12.8179V0.0988808H12.8758V0.118187H12.9338V0.137489H12.9917V0.156792H13.0303V0.176098H13.0882V0.1954H13.1461V0.214706H13.1847V0.234009H13.2426V0.253315H13.2812V0.272617H13.3391V0.291924H13.3777V0.311226H13.4164V0.330532H13.4743V0.349834H13.5129V0.369137H13.5515V0.388443H13.6094V0.407745H13.648V0.427052H13.6866V0.446354H13.7252V0.46566H13.7638V0.484962H13.8217V0.504269H13.8603V0.523571H13.899V0.542877H13.9376V0.56218H13.9762V0.581482H14.0341V0.600788H14.0727V0.62009H14.1113V0.639397H14.1499V0.658699H14.1885V0.678005H14.2271V0.697308H14.2657V0.716614H14.3043V0.735916H14.343V0.755222H14.4009V0.774525H14.4395V0.793831H14.4781V0.813133H14.5167V0.832436H14.5553V0.851742H14.5939V0.871044H14.6325V0.89035H14.6711V0.909653H14.7097V0.928959H14.7483V0.948261H14.7869V0.967567H14.8256V0.98687H14.8642V1.00618H14.9028V1.02548H14.9414V1.04478H14.98V1.06409H15.0186V1.08339H15.0572V1.1027H15.0958V1.122H15.1344V1.1413H15.173V1.16061H15.2116V1.17991H15.2502V1.19921H15.2889V1.21852H15.3275V1.23782H15.3661V1.25713H15.4047V1.27643H15.4433V1.29573H15.4819V1.31504H15.5205V1.33434H15.5591V1.35365H15.5977V1.37295H15.6363V1.39226H15.6749V1.41156H15.7135V1.43087H15.7522V1.45017H15.7908V1.46947H15.8294V1.48878H15.868V1.50808H15.9066V1.52739H15.9452V1.54669H15.9838V1.56599H16.0224V1.5853H16.061V1.6046H16.0996V1.62391H16.1382V1.64321H16.1768V1.66251H16.1961V1.68182H16.2348V1.70112H16.2734V1.72042H16.312V1.73973H16.3506V1.75903H16.3892V1.77834H16.4278V1.79764H16.4664V1.81695H16.505V1.83625H16.5436V1.85556H16.5822V1.87486H16.6208V1.89417H16.6594V1.91347H16.6981V1.93277H16.7367V1.95208H16.7753V1.97138H16.8139V1.99068H16.8332V2.00999H16.8718V2.02929H16.9104V2.0486H16.949V2.0679H16.9876V2.0872H17.0262V2.10651H17.0648V2.12581H17.1034V2.14511H17.142V2.16442H17.1807V2.18372H17.2193V2.20303H17.2579V2.22233H17.2965V2.24164H17.3351V2.26094H17.3544V2.28025H17.393V2.29955H17.4316V2.31886H17.4702V2.33816H17.5088V2.35746H17.5474V2.37677H17.586V2.39607H17.6247V2.41537H17.6633V2.43468H17.7019V2.45398H17.7405V2.47329H17.7791V2.49259H17.7984V2.51189H17.837V2.5312H17.8756V2.5505H17.9142V2.56981H17.9528V2.58911H17.9914V2.60841H18.03V2.62772H18.0686V2.64702H18.1073V2.66633H18.1459V2.68563H18.1845V2.70494H18.2231V2.72424H18.2424V2.74355H18.281V2.76285H18.3196V2.78215H18.3582V2.80146H18.3968V2.82076H18.4354V2.84007H18.474V2.85937H18.5126V2.87867H18.5512V2.89798H18.5899V2.91728H18.6285V2.93658H18.6671V2.95589H18.6864V2.97519H18.725V2.9945H18.7636V3.0138H18.8022V3.0331H18.8408V3.05241H18.8794V3.07171H18.918V3.09102H18.9566V3.11032H18.9952V3.12963H19.0338V3.14893H19.0725V3.16824H19.1111V3.18754H19.1304V3.20684H19.169V3.22615H19.2076V3.24545H19.2462V3.26476H19.2848V3.28406H19.3234V3.30336H19.362V3.32267H19.4006V3.34197H19.4392V3.36127H19.4778V3.38058H19.5165V3.39988H19.5551V3.41919H19.5744V3.43849H19.613V3.45779H19.6516V3.4771H19.6902V3.4964H19.7288V3.51571H19.7674V3.53501H19.806V3.55432H19.8446V3.57362H19.8832V3.59293H19.9218V3.61223H19.9604V3.63153H19.9991V3.65084H20.0377V3.67014H20.057V3.68945H20.0956V3.70875H20.1342V3.72805H20.1728V3.74736H20.2114V3.76666H20.25V3.78596H20.2886V3.80527H20.3272V3.82457H20.3658V3.84388H20.4044V3.86318H20.4431V3.88248H20.4817V3.90179H20.5203V3.92109H20.5589V3.9404H20.5782V3.9597H20.6168V3.97901H20.6554V3.99831H20.694V4.01762H20.7326V4.03692H20.7712V4.05622H20.8098V4.07553H20.8484V4.09483H20.887V4.11414H20.9257V4.13344H20.9643V4.15274H21.0029V4.17205H21.0415V4.19135H21.0801V4.21066H21.0994V4.22996H21.138V4.24926H21.1766V4.26857H21.2152V4.28787H21.2538V4.30718H21.2924V4.32648H21.331V4.34578H21.3696V4.36509H21.4083V4.38439H21.4469V4.4037H21.4855V4.423H21.5241V4.44231H21.5627V4.46161H21.6013V4.48092H21.6399V4.50022H21.6785V4.51952H21.7171V4.53883H21.7557V4.55813H21.775V4.57743H21.8136V4.59674H21.8523V4.61604H21.8909V4.63535H21.9295V4.65465H21.9681V4.67395H22.0067V4.69326H22.0453V4.71256H22.0839V4.73187H22.1225V4.75117H22.1611V4.77047H22.1997V4.78978H22.2383V4.80908H22.2769V4.82839H22.3155V4.84769H22.3542V4.867H22.3928V4.8863H22.4314V4.90561H22.47V4.92491H22.5086V4.94421H22.5472V4.96352H22.5858V4.98282H22.6244V5.00212H22.663V5.02143H22.6823V5.04073H22.7209V5.06004H22.7595V5.07934H22.7982V5.09864H22.8368V5.11795H22.8754V5.13725H22.914V5.15656H22.9526V5.17586H22.9912V5.19516H23.0298V5.21447H23.0684V5.23377H23.107V5.25308H23.1456V5.27238H23.1842V5.29169H23.2228V5.31099H23.2614V5.3303H23.3001V5.3496H23.3387V5.3689H23.3773V5.38821H23.4159V5.40751H23.4545V5.42682H23.4931V5.44612H23.5317V5.46542H23.5703V5.48473H23.6089V5.50403H23.6475V5.52333H23.6861V5.54264H23.7247V5.56194H23.7634V5.58125H23.802V5.60055H23.8406V5.61986H23.8792V5.63916H23.9178V5.65846H23.9564V5.67777H23.995V5.69707H24.0336V5.71638H24.0722V5.73568H24.1108V5.75499H24.1494V5.77429H24.188V5.79359H24.2267V5.8129H24.2653V5.8322H24.3039V5.85151H24.3425V5.87081H24.3811V5.89011H24.4197V5.90942H24.4583V5.92872H24.4969V5.94802H24.5355V5.96733H24.5741V5.98663H24.6127V6.00594H24.6513V6.02524H24.69V6.04455H24.7286V6.06385H24.7672V6.08315H24.8058V6.10246H24.8444V6.12176H24.883V6.14107H24.9409V6.16037H24.9795V6.17968H25.0181V6.19898H25.0567V6.21828H25.0953V6.23759H25.1339V6.25689H25.1726V6.2762H25.2112V6.2955H25.2498V6.3148H25.2884V6.33411H25.327V6.35341H25.3656V6.37271H25.4042V6.39202H25.4428V6.41132H25.4814V6.43063H25.52V6.44993H25.5586V6.46924H25.5972V6.48854H25.6359V6.50785H25.6745V6.52715H25.7324V6.54645H25.771V6.56576H25.8096V6.58506H25.8482V6.60437H25.8868V6.62367H25.9254V6.64297H25.964V6.66228H26.0026V6.68158H26.0412V6.70089H26.0798V6.72019H26.1185V6.73949H26.1571V6.7588H26.1957V6.7781H26.2536V6.79741H26.2922V6.81671H26.3308V6.83601H26.3694V6.85532H26.408V6.87462H26.4466V6.89393H26.4852V6.91323H26.5238V6.93254H26.5625V6.95184H26.6011V6.97114H26.659V6.99045H26.6976V7.00975H26.7362V7.02906H26.7748V7.04836H26.8134V7.06767H26.852V7.08697H26.8906V7.10627H26.9292V7.12558H26.9678V7.14488H27.0064V7.16418H27.0451V7.18349H27.0837V7.20279H27.1416V7.2221H27.1802V7.2414H27.2188V7.2607H27.2574V7.28001H27.296V7.29931H27.3346V7.31862H27.3732V7.33792H27.4118V7.35723H27.4504V7.37653H27.489V7.39583H27.5277V7.41514H27.5663V7.43444H27.6049V7.45375H27.6435V7.47305H27.6821V7.49236H27.7207V7.51166H27.7786V7.53096H27.8172V7.55027H27.8558V7.56957H27.8944V7.58887H27.933V7.60818H27.9717V7.62748H28.0103V7.64679H28.0489V7.66609H28.0875V7.68539H28.1261V7.7047H28.1647V7.724H28.2033V7.74331H28.2419V7.76261H28.2805V7.78192H28.3191V7.80122H28.3577V7.82053H28.3963V7.83983H28.435V7.85913H28.4736V7.87844H28.5122V7.89774H28.5508V7.91705H28.5894V7.93635H28.628V7.95565H28.6666V7.97496H28.7052V7.99426H28.7438V8.01357H28.7824V8.03287H28.821V8.05217H28.8789V8.07148H28.9176V8.09078H28.9562V8.11008H28.9948V8.12939H29.0334V8.14869H29.072V8.168H29.1106V8.1873H29.1492V8.20661H29.1878V8.22591H29.2264V8.24522H29.265V8.26452H29.3036V8.28382H29.3422V8.30313H29.3809V8.32243H29.4195V8.34174H29.4581V8.36104H29.4967V8.38034H29.5353V8.39965H29.5739V8.41895H29.6125V8.43826H29.6511V8.45756H29.6897V8.47686H29.7283V8.49617H29.7669V8.51547H29.8055V8.53477H29.8442V8.55408H29.8828V8.57338H29.9214V8.59269H29.96V8.61199H29.9986V8.6313H30.0372V8.6506H30.0758V8.66991H30.1144V8.68921H30.153V8.70851H30.1916V8.72782H30.2302V8.74712H30.2688V8.76643H30.3074V8.78573H30.3461V8.80503H30.3847V8.82434H30.4233V8.84364H30.4619V8.86295H30.5005V8.88225H30.5391V8.90155H30.5777V8.92086H30.6163V8.94016H30.6549V8.95947H30.6935V8.97877H30.7321V8.99807H30.7707V9.01738H30.8094V9.03668H30.848V9.05599H30.8866V9.07529H30.9252V9.0946H30.9638V9.1139H31.0024V9.13321H31.041V9.15251H31.0796V9.17181H31.1182V9.19112H31.1568V9.21042H31.1954V9.22972H31.234V9.24903H31.2727V9.26833H31.3113V9.28764H31.3499V9.30694H31.3885V9.32624H31.4271V9.34555H31.4657V9.36485H31.5043V9.38416H31.5429V9.40346H31.5815V9.42276H31.6201V9.44207H31.6587V9.46137H31.6973V9.48068H31.736V9.49998H31.7746V9.51929H31.8132V9.53859H31.8518V9.5579H31.8904V9.5772H31.929V9.5965H31.9676V9.61581H32.0062V9.63511H32.0448V9.65442H32.0834V9.67372H32.122V9.69302H32.1606V9.71233H32.1993V9.73163H32.2379V9.75093H32.2765V9.77024H32.3151V9.78954H32.3537V9.80885H32.3923V9.82815H32.4309V9.84745H32.4695V9.86676H32.5081V9.88606H32.5467V9.90537H32.5853V9.92467H32.6239V9.94398H32.6626V9.96328H32.7012V9.98259H32.7398V10.0019H32.7784V10.0212H32.817V10.0405H32.8556V10.0598H32.8942V10.0791H32.9328V10.0984H32.9714V10.1177H33.01V10.137H33.0486V10.1563H33.0872V10.1756H33.1259V10.1949H33.1452V10.2142H33.1838V10.2335H33.2224V10.2528H33.261V10.2721H33.2996V10.2915H33.3382V10.3108H33.3768V10.3301H33.4154V10.3494H33.454V10.3687H33.4926V10.388H33.5312V10.4073H33.5698V10.4266H33.6085V10.4459H33.6471V10.4652H33.6857V10.4845H33.7243V10.5038H33.7629V10.5231H33.8015V10.5424H33.8401V10.5617H33.8787V10.581H33.9173V10.6003H33.9559V10.6196H33.9945V10.6389H34.0331V10.6582H34.0718V10.6775H34.1104V10.6968H34.149V10.7161H34.1876V10.7354H34.2262V10.7547H34.2648V10.7741H34.3034V10.7934H34.342V10.8127H34.3806V10.832H34.4192V10.8513H34.4578V10.8706H34.4964V10.8899H34.535V10.9092H34.5737V10.9285H34.6123V10.9478H34.6509V10.9671H34.6895V10.9864H34.7281V11.0057H34.7667V11.025H34.8053V11.0443H34.8439V11.0636H34.8825V11.0829H34.9211V11.1022H34.9597V11.1215H34.9983V11.1408H35.037V11.1601H35.0756V11.1794H35.1142V11.1987H35.1528V11.218H35.1914V11.2374H35.23V11.2567H35.2686V11.276H35.3072V11.2953H35.3458V11.3146H35.3844V11.3339H35.423V11.3532H35.4616V11.3725H35.5003V11.3918H35.5389V11.4111H35.5775V11.4304H35.6161V11.4497H35.6547V11.469H35.6933V11.4883H35.7319V11.5076H35.7705V11.5269H35.8091V11.5462H35.8477V11.5655H35.8863V11.5848H35.9249V11.6041H35.9636V11.6234H36.0022V11.6427H36.0408V11.662H36.0794V11.6813H36.118V11.7006H36.1566V11.72H36.1952V11.7393H36.2338V11.7586H36.2724V11.7779H36.3303V11.7972H36.3689V11.8165H36.4075V11.8358H36.4462V11.8551H36.4848V11.8744H36.5234V11.8937H36.562V11.913H36.6006V11.9323H36.6392V11.9516H36.6778V11.9709H36.7164V11.9902H36.755V12.0095H36.7936V12.0288H36.8322V12.0481H36.8708V12.0674H36.9095V12.0867H36.9481V12.106H36.9867V12.1253H37.0253V12.1446H37.0639V12.1639H37.1025V12.1833H37.1411V12.2026H37.1797V12.2219H37.2183V12.2412H37.2569V12.2605H37.2955V12.2798H37.3341V12.2991H37.3728V12.3184H37.4114V12.3377H37.4693V12.357H37.5079V12.3763H37.5465V12.3956H37.5851V12.4149H37.6237V12.4342H37.6623V12.4535H37.7009V12.4728H37.7395V12.4921H37.7781V12.5114H37.8167V12.5307H37.8554V12.55H37.894V12.5693H37.9326V12.5886H37.9712V12.6079H38.0098V12.6272H38.0484V12.6466H38.1063V12.6659H38.1449V12.6852H38.1835V12.7045H38.2221V12.7238H38.2607V12.7431H38.2994V12.7624H38.338V12.7817H38.3766V12.801H38.4152V12.8203H38.4538V12.8396H38.4924V12.8589H38.531V12.8782H38.5696V12.8975H38.6082V12.9168H38.6661V12.9361H38.7047V12.9554H38.7433V12.9747H38.782V12.994H38.8206V13.0133H38.8592V13.0326H38.8978V13.0519H38.9364V13.0712H38.975V13.0905H39.0136V13.1098H39.0522V13.1292H39.0908V13.1485H39.1294V13.1678H39.168V13.1871H39.2066V13.2064H39.2646V13.2257H39.3032V13.245H39.3418V13.2643H39.3804V13.2836H39.419V13.3029H39.4576V13.3222H39.4962V13.3415H39.5348V13.3608H39.5734V13.3801H39.612V13.3994H39.6506V13.4187H39.6892V13.438H39.7279V13.4573H39.7665V13.4766H39.8051V13.4959H39.8437V13.5152H39.9016V13.5345H39.9402V13.5538H39.9788V13.5731H40.0174V13.5925H40.056V13.6118H40.0946V13.6311H40.1332V13.6504H40.1718V13.6697H40.2105V13.689H40.2491V13.7083H40.2877V13.7276H40.3263V13.7469H40.3649V13.7662H40.4035V13.7855H40.4421V13.8048H40.4807V13.8241H40.5193V13.8434H40.5579V13.8627H40.5965V13.882H40.6351V13.9013H40.6738V13.9206H40.7124V13.9399H40.751V13.9592H40.7896V13.9785H40.8282V13.9978H40.8668V14.0171H40.9054V14.0364H40.944V14.0558H40.9826V14.0751H41.0212V14.0944H41.0598V14.1137H41.0984V14.133H41.1371V14.1523H41.1757V14.1716H41.2143V14.1909H41.2529V14.2102H41.2915V14.2295H41.3301V14.2488H41.3687V14.2681H41.4073V14.2874H41.4459V14.3067H41.4845V14.326H41.5231V14.3453H41.5617V14.3646H41.6004V14.3839H41.639V14.4032H41.6776V14.4225H41.7162V14.4418H41.7355V14.4611H41.7741V14.4804H41.8127V14.4997H41.8513V14.5191H41.8899V14.5384H41.9285V14.5577H41.9671V14.577H42.0057V14.5963H42.0443V14.6156H42.083V14.6349H42.1023V14.6542H42.1409V14.6735H42.1795V14.6928H42.2181V14.7121H42.2567V14.7314H42.2953V14.7507H42.3339V14.77H42.3532V14.7893H42.3918V14.8086H42.4304V14.8279H42.469V14.8472H42.5076V14.8665H42.527V14.8858H42.5656V14.9051H42.6042V14.9244H42.6428V14.9437H42.6814V14.963H42.7007V14.9823H42.7393V15.0017H42.7779V15.021H42.8165V15.0403H42.8358V15.0596H42.8744V15.0789H42.913V15.0982H42.9516V15.1175H42.9709V15.1368H43.0096V15.1561H43.0482V15.1754H43.0675V15.1947H43.1061V15.214H43.1447V15.2333H43.164V15.2526H43.2026V15.2719H43.2412V15.2912H43.2605V15.3105H43.2991V15.3298H43.3377V15.3491H43.357V15.3684H43.3956V15.3877H43.4149V15.407H43.4535V15.4263H43.4922V15.4456H43.5115V15.465H43.5501V15.4843H43.5694V15.5036H43.608V15.5229H43.6466V15.5422H43.6659V15.5615H43.7045V15.5808H43.7238V15.6001H43.7431V15.6194H43.7817V15.6387H43.801V15.658H43.8396V15.6773H43.8589V15.6966H43.8975V15.7159H43.9168V15.7352H43.9555V15.7545H43.9748V15.7738H44.0134V15.7931H44.0327V15.8124H44.0713V15.8317H44.0906V15.851H44.1099V15.8703H44.1485V15.8896H44.1678V15.9089H44.1871V15.9282H44.2257V15.9476H44.245V15.9669H44.2643V15.9862H44.3029V16.0055H44.3222V16.0248H44.3415V16.0441H44.3801V16.0634H44.3994V16.0827H44.4188V16.102H44.4381V16.1213H44.4767V16.1406H44.496V16.1599H44.5153V16.1792H44.5346V16.1985H44.5732V16.2178H44.5925V16.2371H44.6118V16.2564H44.6311V16.2757H44.6697V16.295H44.689V16.3143H44.7083V16.3336H44.7276V16.3529H44.7469V16.3722H44.7662V16.3915H44.7855V16.4109H44.8048V16.4302H44.8241V16.4495H44.8627V16.4688H44.882V16.4881H44.9014V16.5074H44.9207V16.5267H44.94V16.546H44.9593V16.5653H44.9786V16.5846H44.9979V16.6039H45.0172V16.6232H45.0365V16.6425H45.0558V16.6618H45.0751V16.6811H45.0944V16.7004H45.1137V16.7197H45.133V16.739H45.1523V16.7583H45.1716V16.7776H45.1909V16.7969H45.2102V16.8162H45.2295V16.8355H45.2488V16.8548H45.2681V16.8741H45.2874V16.8935H45.3067V16.9128H45.326V16.9514H45.3453V16.9707H45.3647V16.99H45.384V17.0093H45.4033V17.0286H45.4226V17.0479H45.4419V17.0672H45.4612V17.0865H45.4805V17.1058H45.4998V17.1251H45.5191V17.1444H45.5384V17.183H45.5577V17.2023H45.577V17.2216H45.5963V17.2409H45.6156V17.2602H45.6349V17.2795H45.6542V17.2988H45.6735V17.3181H45.6928V17.3374H45.7121V17.3568H45.7314V17.3761H45.7507V17.4147H45.77V17.434H45.7893V17.4533H45.8086V17.4726H45.828V17.4919H45.8473V17.5112H45.8666V17.5305H45.8859V17.5498H45.9052V17.5691H45.9245V17.5884H45.9438V17.6077H45.9631V17.6463H45.9824V17.6656H46.0017V17.6849H46.021V17.7042H46.0403V17.7235H46.0596V17.7428H46.0789V17.7621H46.0982V17.7814H46.1175V17.8007H46.1368V17.8201H46.1561V17.8587H46.1754V17.878H46.1947V17.8973H46.214V17.9166H46.2333V17.9359H46.2526V17.9552H46.2719V17.9745H46.2913V17.9938H46.3106V18.0131H46.3299V18.0517H46.3492V18.071H46.3685V18.0903H46.3878V18.1096H46.4071V18.1289H46.4264V18.1482H46.4457V18.1675H46.465V18.1868H46.4843V18.2061H46.5036V18.2447H46.5229V18.264H46.5422V18.2833H46.5615V18.3027H46.5808V18.322H46.6001V18.3413H46.6194V18.3606H46.6387V18.3799H46.658V18.3992H46.6773V18.4378H46.6966V18.4571H46.7159V18.4764H46.7352V18.4957H46.7546V18.515H46.7739V18.5343H46.7932V18.5536H46.8125V18.5729H46.8318V18.6115H46.8511V18.6308H46.8704V18.6501H46.8897V18.6694H46.909V18.6887H46.9283V18.708H46.9476V18.7466H46.9669V18.766H46.9862V18.7853H47.0055V18.8046H47.0248V18.8239H47.0441V18.8432H47.0634V18.8625H47.0827V18.9011H47.102V18.9204H47.1213V18.9397H47.1406V18.959H47.1599V18.9783H47.1792V18.9976H47.1985V19.0169H47.2178V19.0555H47.2372V19.0748H47.2565V19.0941H47.2758V19.1134H47.2951V19.1327H47.3144V19.152H47.3337V19.1906H47.353V19.2099H47.3723V19.2293H47.3916V19.2486H47.4109V19.2679H47.4302V19.3065H47.4495V19.3258H47.4688V19.3451H47.4881V19.3644H47.5074V19.3837H47.5267V19.4223H47.546V19.4416H47.5653V19.4609H47.5846V19.4802H47.6039V19.4995H47.6232V19.5188H47.6425V19.5574H47.6618V19.5767H47.6811V19.596H47.7005V19.6153H47.7198V19.6346H47.7391V19.6732H47.7584V19.6926H47.7777V19.7119H47.797V19.7312H47.8163V19.7698H47.8356V19.7891H47.8549V19.8084H47.8742V19.8277H47.8935V19.8663H47.9128V19.8856H47.9321V19.9049H47.9514V19.9242H47.9707V19.9628H47.99V19.9821H48.0093V20.0014H48.0286V20.0207H48.0479V20.0593H48.0672V20.0786H48.0865V20.0979H48.1058V20.1172H48.1251V20.1558H48.1444V20.1752H48.1637V20.1945H48.1831V20.2138H48.2024V20.2524H48.2217V20.2717H48.241V20.291H48.2603V20.3103H48.2796V20.3489H48.2989V20.3682H48.3182V20.3875H48.3375V20.4261H48.3568V20.4454H48.3761V20.4647H48.3954V20.5033H48.4147V20.5226H48.434V20.5419H48.4533V20.5805H48.4726V20.5998H48.4919V20.6191H48.5112V20.6578H48.5305V20.6771H48.5498V20.6964H48.5691V20.735H48.5884V20.7543H48.6077V20.7736H48.627V20.8122H48.6464V20.8315H48.6657V20.8508H48.685V20.8894H48.7043V20.9087H48.7236V20.9473H48.7429V20.9666H48.7622V20.9859H48.7815V21.0245H48.8008V21.0438H48.8201V21.0824H48.8394V21.1018H48.8587V21.1404H48.878V21.1597H48.8973V21.179H48.9166V21.2176H48.9359V21.2369H48.9552V21.2755H48.9745V21.2948H48.9938V21.3334H49.0131V21.3527H49.0324V21.372H49.0517V21.4106H49.071V21.4299H49.0903V21.4685H49.1096V21.4878H49.129V21.5264H49.1483V21.565H49.1676V21.5844H49.1869V21.623H49.2062V21.6423H49.2255V21.6809H49.2448V21.7002H49.2641V21.7388H49.2834V21.7581H49.3027V21.7967H49.322V21.8353H49.3413V21.8546H49.3606V21.8932H49.3799V21.9125H49.3992V21.9511H49.4185V21.9704H49.4378V22.009H49.4571V22.0283H49.4764V22.067H49.4957V22.1056H49.515V22.1442H49.5343V22.1635H49.5536V22.2021H49.5729V22.2407H49.5923V22.2793H49.6116V22.2986H49.6309V22.3372H49.6502V22.3758H49.6695V22.3951H49.6888V22.4337H49.7081V22.4723H49.7274V22.511H49.7467V22.5303H49.766V22.5689H49.7853V22.6075H49.8046V22.6461H49.8239V22.6654H49.8432V22.704H49.8625V22.7426H49.8818V22.7812H49.9011V22.8198H49.9204V22.8584H49.9397V22.897H49.959V22.9356H49.9783V22.9742H49.9976V23.0129H50.0169V23.0515H50.0362V23.0901H50.0556V23.1287H50.0749V23.1673H50.0942V23.2059H50.1135V23.2445H50.1328V23.2831H50.1521V23.3217H50.1714V23.3603H50.1907V23.4182H50.21V23.4569H50.2293V23.4955H50.2486V23.5341H50.2679V23.592H50.2872V23.6306H50.3065V23.6692H50.3258V23.7271H50.3451V23.7657H50.3644V23.8043H50.3837V23.8429H50.403V23.9008H50.4223V23.9395H50.4416V23.9974H50.4609V24.0553H50.4802V24.0939H50.4995V24.1518H50.5188V24.2097H50.5382V24.2676H50.5575V24.3062H50.5768V24.3641H50.5961V24.4221H50.6154V24.48H50.6347V24.5186H50.654V24.5765H50.6733V24.6537H50.6926V24.7116H50.7119V24.7888H50.7312V24.8467H50.7505V24.9047H50.7698V24.9819H50.7891V25.0398H50.8084V25.117H50.8277V25.1749H50.847V25.2521H50.8663V25.3487H50.8856V25.4259H50.9049V25.5224H50.9242V25.6189H50.9435V25.7154H50.9628V25.7926H50.9821V25.8892H51.0015V26.005H51.0208V26.1401H51.0401V26.2753H51.0594V26.3911H51.0787V26.5648H51.098V31.0434H51.1173V32.8966H51.098V34.576H51.0787V36.2555H51.0594V37.8191H51.0401V38.2631H51.0208V38.5141H51.0015V38.765H50.9821V38.9194H50.9628V39.0739H50.9435V39.2283H50.9242V39.3827H50.9049V39.4986H50.8856V39.6144H50.8663V39.7109H50.847V39.8267H50.8277V39.9426H50.8084V40.0391H50.7891V40.1163H50.7698V40.2128H50.7505V40.29H50.7312V40.3673H50.7119V40.4638H50.6926V40.541H50.6733V40.6182H50.654V40.6954H50.6347V40.7533H50.6154V40.8305H50.5961V40.9078H50.5768V40.9657H50.5575V41.0429H50.5382V41.1008H50.5188V41.178H50.4995V41.2359H50.4802V41.2938H50.4609V41.3518H50.4416V41.4097H50.4223V41.4676H50.403V41.5255H50.3837V41.5834H50.3644V41.6413H50.3451V41.6992H50.3258V41.7571H50.3065V41.8151H50.2872V41.8537H50.2679V41.9116H50.2486V41.9502H50.2293V42.0081H50.21V42.0467H50.1907V42.1046H50.1714V42.1432H50.1521V42.2011H50.1328V42.2397H50.1135V42.2977H50.0942V42.3556H50.0749V42.3942H50.0556V42.4328H50.0362V42.4714H50.0169V42.5293H49.9976V42.5679H49.9783V42.6065H49.959V42.6451H49.9397V42.6837H49.9204V42.7417H49.9011V42.7803H49.8818V42.8189H49.8625V42.8575H49.8432V42.8961H49.8239V42.954H49.8046V42.9926H49.7853V43.0119H49.766V43.0505H49.7467V43.0891H49.7274V43.1277H49.7081V43.1663H49.6888V43.205H49.6695V43.2436H49.6502V43.2822H49.6309V43.3208H49.6116V43.3594H49.5923V43.398H49.5729V43.4366H49.5536V43.4752H49.5343V43.5138H49.515V43.5331H49.4957V43.5717H49.4764V43.6103H49.4571V43.6489H49.4378V43.6683H49.4185V43.7069H49.3992V43.7455H49.3799V43.7841H49.3606V43.8034H49.3413V43.842H49.322V43.8806H49.3027V43.8999H49.2834V43.9385H49.2641V43.9771H49.2448V44.0157H49.2255V44.035H49.2062V44.0736H49.1869V44.0929H49.1676V44.1316H49.1483V44.1509H49.129V44.1895H49.1096V44.2281H49.0903V44.2474H49.071V44.286H49.0517V44.3053H49.0324V44.3439H49.0131V44.3632H48.9938V44.4018H48.9745V44.4211H48.9552V44.4597H48.9359V44.4983H48.9166V44.5176H48.8973V44.5369H48.878V44.5755H48.8587V44.5948H48.8394V44.6335H48.8201V44.6528H48.8008V44.6721H48.7815V44.7107H48.7622V44.73H48.7429V44.7686H48.7236V44.7879H48.7043V44.8072H48.685V44.8458H48.6657V44.8651H48.6464V44.9037H48.627V44.923H48.6077V44.9616H48.5884V44.9809H48.5691V45.0002H48.5498V45.0388H48.5305V45.0581H48.5112V45.0775H48.4919V45.0968H48.4726V45.1354H48.4533V45.1547H48.434V45.174H48.4147V45.1933H48.3954V45.2319H48.3761V45.2512H48.3568V45.2705H48.3375V45.3091H48.3182V45.3284H48.2989V45.3477H48.2796V45.367H48.2603V45.4056H48.241V45.4249H48.2217V45.4442H48.2024V45.4635H48.1831V45.5021H48.1637V45.5214H48.1444V45.5408H48.1251V45.5601H48.1058V45.5794H48.0865V45.5987H48.0672V45.618H48.0479V45.6566H48.0286V45.6759H48.0093V45.6952H47.99V45.7145H47.9707V45.7338H47.9514V45.7531H47.9321V45.7917H47.9128V45.811H47.8935V45.8303H47.8742V45.8496H47.8549V45.8689H47.8356V45.8882H47.8163V45.9075H47.797V45.9461H47.7777V45.9654H47.7584V45.9847H47.7391V46.004H47.7198V46.0234H47.7005V46.0427H47.6811V46.062H47.6618V46.0813H47.6425V46.1006H47.6232V46.1199H47.6039V46.1392H47.5846V46.1585H47.5653V46.1778H47.546V46.1971H47.5267V46.2164H47.5074V46.2357H47.4881V46.255H47.4688V46.2743H47.4495V46.2936H47.4302V46.3129H47.4109V46.3322H47.3916V46.3515H47.3723V46.3708H47.353V46.3901H47.3337V46.4094H47.3144V46.4287H47.2951V46.448H47.2758V46.4673H47.2565V46.4867H47.2372V46.506H47.2178V46.5253H47.1985V46.5446H47.1792V46.5639H47.1599V46.5832H47.1406V46.6025H47.1213V46.6218H47.102V46.6411H47.0827V46.6604H47.0634V46.6797H47.0441V46.699H47.0248V46.7183H47.0055V46.7376H46.9862V46.7569H46.9476V46.7762H46.9283V46.7955H46.909V46.8148H46.8897V46.8341H46.8704V46.8534H46.8511V46.8727H46.8318V46.892H46.7932V46.9113H46.7739V46.9306H46.7546V46.95H46.7352V46.9693H46.7159V46.9886H46.6966V47.0079H46.658V47.0272H46.6387V47.0465H46.6194V47.0658H46.6001V47.0851H46.5808V47.1044H46.5615V47.1237H46.5422V47.143H46.5036V47.1623H46.4843V47.1816H46.465V47.2009H46.4457V47.2202H46.4071V47.2395H46.3878V47.2588H46.3685V47.2781H46.3299V47.2974H46.3106V47.3167H46.2913V47.336H46.2719V47.3553H46.2333V47.3746H46.214V47.3939H46.1947V47.4132H46.1754V47.4326H46.1368V47.4519H46.1175V47.4712H46.0982V47.4905H46.0596V47.5098H46.0403V47.5291H46.021V47.5484H45.9824V47.5677H45.9631V47.587H45.9438V47.6063H45.9052V47.6256H45.8859V47.6449H45.8473V47.6642H45.828V47.6835H45.8086V47.7028H45.77V47.7221H45.7507V47.7414H45.7121V47.7607H45.6928V47.78H45.6735V47.7993H45.6349V47.8186H45.6156V47.8379H45.577V47.8572H45.5577V47.8765H45.5191V47.8959H45.4998V47.9152H45.4612V47.9345H45.4419V47.9538H45.4033V47.9731H45.384V47.9924H45.3453V48.0117H45.326V48.031H45.2874V48.0503H45.2488V48.0696H45.2295V48.0889H45.1909V48.1082H45.1716V48.1275H45.133V48.1468H45.1137V48.1661H45.0751V48.1854H45.0365V48.2047H45.0172V48.224H44.9786V48.2433H44.94V48.2626H44.9207V48.2819H44.882V48.3012H44.8434V48.3205H44.8048V48.3398H44.7855V48.3592H44.7469V48.3785H44.7083V48.3978H44.6697V48.4171H44.6504V48.4364H44.6118V48.4557H44.5732V48.475H44.5346V48.4943H44.5153V48.5136H44.4767V48.5329H44.4381V48.5522H44.3994V48.5715H44.3608V48.5908H44.3222V48.6101H44.2836V48.6294H44.245V48.6487H44.2064V48.668H44.1678V48.6873H44.1292V48.7066H44.0906V48.7259H44.052V48.7452H44.0134V48.7645H43.9748V48.7838H43.9361V48.8031H43.8975V48.8224H43.8589V48.8418H43.8203V48.8611H43.7624V48.8804H43.7238V48.8997H43.6852V48.919H43.6466V48.9383H43.5887V48.9576H43.5501V48.9769H43.5115V48.9962H43.4729V49.0155H43.4342V49.0348H43.3763V49.0541H43.3377V49.0734H43.2798V49.0927H43.2412V49.112H43.1833V49.1313H43.1254V49.1506H43.0868V49.1699H43.0289V49.1892H42.9902V49.2085H42.9323V49.2278H42.8937V49.2471H42.8358V49.2664H42.7779V49.2857H42.72V49.3051H42.6621V49.3244H42.6042V49.3437H42.5463V49.363H42.4883V49.3823H42.4304V49.4016H42.3725V49.4209H42.3339V49.4402H42.276V49.4595H42.1988V49.4788H42.1216V49.4981H42.0637V49.5174H41.9864V49.5367H41.9285V49.556H41.8513V49.5753H41.7934V49.5946H41.7162V49.6139H41.6583V49.6332H41.5617V49.6525H41.4845V49.6718H41.388V49.6911H41.3108V49.7104H41.2336V49.7297H41.1371V49.749H41.0598V49.7684H40.944V49.7877H40.8475V49.807H40.7317V49.8263H40.6351V49.8456H40.5193V49.8649H40.3842V49.8842H40.2298V49.9035H40.0946V49.9228H39.9402V49.9421H39.7472V49.9614H39.4962V49.9807H39.2453V50" fill="url(#paint2_linear_2022_614)"/>
</g>
<mask id="mask3_2022_614" style="mask-type:luminance" maskUnits="userSpaceOnUse" x="12" y="0" width="35" height="19">
<path d="M12.4147 0.00834084C12.4147 0.00834084 14.6552 0.230339 22.9398 4.97046C28.915 8.38903 31.5788 9.72641 35.5909 11.2128C43.8591 14.276 46.2995 18.0864 46.2995 18.0864C46.2995 18.0864 44.8004 15.6115 35.9562 12.84C30.5522 11.1466 14.4144 8.08325 14.4144 8.08325C14.4144 8.08325 16.7802 4.90386 15.8505 2.84527C14.8892 0.716608 12.4147 0.00834084 12.4147 0.00834084Z" fill="white"/>
</mask>
<g mask="url(#mask3_2022_614)">
<path d="M12.4147 0.00834084C12.4147 0.00834084 14.6552 0.230339 22.9398 4.97046C28.915 8.38903 31.5788 9.72641 35.5909 11.2128C43.8591 14.276 46.2995 18.0864 46.2995 18.0864C46.2995 18.0864 44.8004 15.6115 35.9562 12.84C30.5522 11.1466 14.4144 8.08325 14.4144 8.08325C14.4144 8.08325 16.7802 4.90386 15.8505 2.84527C14.8892 0.716608 12.4147 0.00834084 12.4147 0.00834084Z" fill="url(#paint3_linear_2022_614)"/>
</g>
<path d="M13.6629 19.9721C13.2539 18.1841 15.038 16.6023 17.3452 16.6023C19.4235 16.6023 21.5066 17.0683 22.2992 19.9657H24.9635V24.3885C21.6419 21.6579 14.4404 23.3713 13.6629 19.9721ZM41.3074 18.748H35.3057L29.5958 25.0008V12.5079H24.9635V15.5348C24.8126 15.3395 24.6529 15.1457 24.4742 14.9567C22.7899 13.1734 20.3626 12.2691 17.2597 12.2691C13.6713 12.2691 11.6307 13.8751 10.5506 15.2223C9.20962 16.8948 8.61104 19.1771 9.02555 21.0371C10.0986 25.8519 14.5667 26.621 17.8484 27.0478C20.4398 27.3848 22.9189 27.8553 22.8526 30.1646C22.7841 32.5616 20.0823 33.151 18.3092 33.151C13.6903 33.151 13.5343 29.7371 13.5343 29.7371H8.56677C8.63932 31.0188 9.02698 33.0771 10.605 34.8435C12.3334 36.7784 14.9255 37.7595 18.3092 37.7595C20.9049 37.7595 23.2688 36.9138 24.9635 35.4123V37.4761H29.5958V31.5788L31.2353 29.7855L35.9146 37.4761H41.306L34.4969 26.2125L41.3074 18.748Z" fill="#1A5143"/>
<defs>
<linearGradient id="paint0_linear_2022_614" x1="43.2176" y1="-9.8217" x2="29.8027" y2="15.2814" gradientUnits="userSpaceOnUse">
<stop stop-color="#9CD647"/>
<stop offset="0.636177" stop-color="#9CD647"/>
<stop offset="0.814128" stop-color="#1A5043"/>
<stop offset="1" stop-color="#1A5043"/>
</linearGradient>
<linearGradient id="paint1_linear_2022_614" x1="51.0956" y1="-5.61167" x2="37.6808" y2="19.4914" gradientUnits="userSpaceOnUse">
<stop stop-color="#9CD647"/>
<stop offset="0.636177" stop-color="#9CD647"/>
<stop offset="0.814128" stop-color="#1A5043"/>
<stop offset="1" stop-color="#1A5043"/>
</linearGradient>
<linearGradient id="paint2_linear_2022_614" x1="-29.3123" y1="147.619" x2="48.1224" y2="-25.5298" gradientUnits="userSpaceOnUse">
<stop stop-color="#9CD647"/>
<stop offset="0.75548" stop-color="#9CD647"/>
<stop offset="0.796826" stop-color="#33814C"/>
<stop offset="1" stop-color="#33814C"/>
</linearGradient>
<linearGradient id="paint3_linear_2022_614" x1="22.9863" y1="22.4797" x2="31.3866" y2="4.76821" gradientUnits="userSpaceOnUse">
<stop stop-color="#9CD647"/>
<stop offset="0.636177" stop-color="#9CD647"/>
<stop offset="0.814128" stop-color="#33814C"/>
<stop offset="1" stop-color="#33814C"/>
</linearGradient>
</defs>
</svg>
