<svg width="89" height="50" viewBox="0 0 89 50" fill="none" xmlns="http://www.w3.org/2000/svg">
<g clip-path="url(#clip0_2022_648)">
<path d="M19.9375 19.7188C19.6562 20.1875 19.375 20.3125 18.8438 20.1875C18.4375 20.0938 18 20.1562 17.875 20.3438C17.7188 20.625 17.5625 20.5625 17.2812 20.2188C16.9688 19.8125 16.75 19.9688 15.5938 21.4375C14.375 23.0312 14.2188 23.125 13.8438 22.5938C13.5 22.125 13.5 21.9062 13.9375 21.1562C14.4062 20.4062 14.4062 20.25 14 20C13.75 19.8438 13.3125 19.6875 13.0625 19.6875C12.7188 19.7188 12.75 19.8125 13.1875 20.1562C13.7812 20.625 13.7812 20.625 13.0625 21.4062C12.5 22 12.4375 22.25 12.7188 22.5938C13.2188 23.2188 12.2812 24.0312 11.75 23.5C11.5312 23.2812 11.125 23.125 10.8125 23.125C10.5 23.125 10.1562 22.9062 10.0625 22.6562C9.90625 22.3125 9.78125 22.2812 9.28125 22.5938C8.78125 22.9062 8.625 22.875 8.375 22.5C8.125 22.125 8.0625 22.1562 8.0625 22.7188C8.0625 23.0938 8.21875 23.5 8.375 23.5938C8.9375 23.9375 8.75 24.7812 8.15625 24.5625C7.65625 24.375 7.65625 24.375 8.15625 24.9375C8.4375 25.25 8.6875 25.6875 8.6875 25.875C8.6875 26.0938 8.84375 26.25 9 26.25C9.1875 26.25 9.6875 26.5938 10.0938 27.0312C10.5312 27.4375 10.875 27.6875 10.875 27.5625C10.875 27.4375 11.5 28.0312 12.2812 28.8438C13.5625 30.25 13.75 30.3438 14.6875 30.125C15.25 29.9688 16.1562 29.9062 16.6562 29.9688C17.5312 30.0625 19.5938 30.0938 21.5 30.0312C22.0625 30 22.4062 29.7188 22.6875 29.0938C23.2812 27.75 24.4062 26.5625 25.0625 26.5625C25.4062 26.5625 25.5625 26.4688 25.4688 26.375C25.375 26.25 25.4688 25.875 25.7188 25.5C26.375 24.5625 26.2812 23.9062 25.4375 23.3125C25 23.0625 24.5625 22.5312 24.4688 22.1562C24.3438 21.8125 23.8125 21.0938 23.2812 20.625C22.375 19.8125 22.25 19.7812 21.5625 20.25C20.9375 20.6562 20.7812 20.6562 20.5312 20.2812C20.375 20.0312 20.3125 19.6562 20.4062 19.4375C20.625 18.8125 20.3125 19 19.9375 19.7188ZM18.0625 21.2188C18.0625 21.4062 17.7188 21.9375 17.2812 22.4062C16.4062 23.4062 16.2188 22.8438 17.0625 21.7188C17.625 20.9375 18.0625 20.7188 18.0625 21.2188ZM21.5 22.0625C21.5 22.1562 21.0312 22.9375 20.4688 23.8438C19.375 25.5312 18.875 26.5625 18.9375 26.9375C18.9688 27.0312 18.7812 27.2188 18.5312 27.3125C18.2812 27.4062 18.0625 27.375 18.0625 27.2188C18.0625 27.0625 17.6562 26.875 17.125 26.7812C16.3125 26.5938 16.2188 26.4688 16.2812 25.5312C16.4062 24.1875 18.3125 21.4688 19.0312 21.6562C19.3125 21.75 19.75 21.6875 19.9688 21.5312C20.3438 21.3125 21.5 21.6875 21.5 22.0625ZM23.375 21.4062C23.375 21.9375 21.4688 25.625 21.2188 25.625C21.0312 25.625 20.875 25.5312 20.875 25.4062C20.875 24.9062 22.7812 21.25 23.0625 21.25C23.2188 21.25 23.375 21.3125 23.375 21.4062ZM15.875 22.4688C15.875 22.8438 15.25 23.25 15.0312 23.0312C14.8125 22.8125 15.2188 22.1875 15.5938 22.1875C15.75 22.1875 15.875 22.3125 15.875 22.4688ZM14.7188 24.1875C14.5938 24.375 14.7188 24.375 15 24.125C15.8125 23.4688 15.9375 24.2188 15.2188 25.4688C14.7812 26.1875 14.3438 26.5625 14.0312 26.4688C13.75 26.4062 13.5625 26.1875 13.625 25.9688C13.6875 25.7188 13.5 25.6562 13.0625 25.7812C12.1875 26.0625 12.25 25.375 13.25 24.3438C14.0312 23.5312 15.1875 23.4062 14.7188 24.1875Z" fill="#404040"/>
<path d="M18.2813 25.4688C18.1563 25.7188 17.875 25.9375 17.625 25.9375C17.375 25.9375 17.0625 26.0625 16.9688 26.25C16.875 26.4375 17.125 26.5625 17.5313 26.5625C18.0625 26.5625 18.3438 26.3438 18.4688 25.875C18.6875 25.0625 18.5313 24.75 18.2813 25.4688Z" fill="#404040"/>
<path d="M57.2187 25.8125C56.4062 26.1562 56.125 26.5625 55.6875 27.9375C55.2187 29.4062 55.2187 29.8125 55.5625 31.0625C56 32.625 57.375 34.0625 58.375 34.0625C58.7187 34.0625 59.4375 33.5938 60 33.0312C60.875 32.1562 61.0312 31.75 61.125 30.25C61.25 28.0312 60.625 26.4375 59.3437 25.8125C58.8437 25.5312 58.375 25.3125 58.3125 25.3438C58.25 25.3438 57.7812 25.5625 57.2187 25.8125ZM59.125 27.0625C59.6875 27.5938 59.6562 27.5 59.6875 29.625C59.7187 31.1875 59.4375 32.4688 59.0625 32.5312C57.6875 32.7812 57.5 32.6875 57.125 31.5312C56.5937 30 56.875 27.5 57.625 26.9688C58.3437 26.4375 58.5312 26.4688 59.125 27.0625Z" fill="#404040"/>
<path d="M32.5312 25.8125C31.9062 26.0938 32.4687 26.875 33.25 26.875C34 26.875 34 26.9063 34 30.1563C34 31.9688 34.0625 33.4375 34.125 33.4375C34.1875 33.4375 34.4687 33.5313 34.75 33.625C35.1875 33.7813 35.25 33.375 35.25 30.3438V26.875H36.1875C36.9062 26.875 37.125 26.75 37.125 26.25C37.125 25.6875 36.9375 25.625 35.0312 25.6563C33.8437 25.6563 32.75 25.75 32.5312 25.8125Z" fill="#404040"/>
<path d="M38.125 26C37.625 26.5 37.625 32.875 38.125 33.375C38.3438 33.5938 39.375 33.75 40.625 33.75C42.5312 33.75 42.75 33.6875 42.75 33.125C42.75 32.5625 42.5312 32.5 41.0312 32.5H39.3125V31.25V30H40.5625C41.4688 30 41.8125 29.875 41.8125 29.5312C41.8125 29.1875 41.4688 29.0625 40.5625 29.0625C39.3438 29.0625 39.3125 29.0312 39.3125 27.9688V26.875H40.875C42.2188 26.875 42.4375 26.7812 42.4375 26.25C42.4375 25.6875 42.2188 25.625 40.4688 25.625C39.3438 25.625 38.3438 25.7812 38.125 26Z" fill="#404040"/>
<path d="M43.875 25.9062C43.7812 26.0312 44.0938 26.9062 44.5625 27.8437L45.4062 29.5312L44.4062 31.5625C43.8438 32.6875 43.375 33.625 43.375 33.6562C43.375 33.7187 43.625 33.75 43.9375 33.75C44.2812 33.7187 44.75 33.125 45.2188 32.125L45.9688 30.5L46.7188 32.125C47.25 33.2812 47.625 33.75 48.0625 33.75C48.8438 33.75 48.875 33.8125 47.75 31.5C46.8125 29.5625 46.7812 28.7812 47.5938 27.8125C47.8125 27.5625 48.0625 26.9687 48.1875 26.4687C48.5 25.2188 47.5625 25.375 47 26.6875C46.375 28.1875 46.0938 28.2187 45.4375 26.8437C44.875 25.6875 44.25 25.3125 43.875 25.9062Z" fill="#404040"/>
<path d="M50 26C49.75 26.25 49.625 27.5625 49.625 29.875C49.625 33.3125 49.75 33.75 50.75 33.75C50.8125 33.75 50.875 32.9688 50.875 32.0312V30.3125H52.0938H53.3438L53.4375 31.9375C53.5 33.2188 53.6562 33.625 54.0938 33.6875C54.5625 33.7812 54.625 33.4375 54.625 29.6875C54.625 25.9375 54.5625 25.5938 54.0938 25.6875C53.6562 25.75 53.5 26.1562 53.4375 27.4375L53.3438 29.0625H52.0938H50.875V27.3438C50.875 25.5938 50.6875 25.3125 50 26Z" fill="#404040"/>
<path d="M62.2501 26.0312C62.1876 26.25 62.1563 28.0625 62.1876 30C62.2813 33.125 62.3438 33.5937 62.8438 33.6875C63.3126 33.7812 63.3751 33.4687 63.3751 30.3437V26.875H64.4688H65.5313L65.6251 30.2187C65.7188 33.125 65.7813 33.5937 66.2813 33.6875C66.7501 33.7812 66.8126 33.4375 66.8126 29.7187V25.625H64.6251C63.0938 25.625 62.3751 25.75 62.2501 26.0312Z" fill="#404040"/>
<path d="M69.5938 26.7812C69.375 27.4375 69.1563 28.0938 69.125 28.2812C69.0625 28.4375 68.9688 28.9062 68.875 29.2812C68.7813 29.6875 68.625 30.2812 68.5625 30.5938C68.4688 30.9375 68.2813 31.5 68.0938 31.8438C67.5625 32.8125 67.6563 33.75 68.3125 33.75C68.625 33.75 68.9063 33.5625 68.9375 33.3438C69.0625 31.9375 69.25 31.7188 70.3438 31.625C71.25 31.5312 71.5313 31.6562 71.8438 32.25C72.0625 32.6562 72.2188 33 72.1875 33.0312C71.9375 33.4062 72.25 33.75 72.7813 33.75C73.25 33.75 73.375 33.5938 73.2188 33.1562C73.125 32.8438 72.9688 32.1562 72.9063 31.6875C72.8438 31.1875 72.625 30.2812 72.4375 29.6875C72.25 29.0938 72 28.1562 71.9063 27.6562C71.5 25.3125 70.25 24.8438 69.5938 26.7812ZM70.9063 28.1875C70.9375 29.0625 71.0625 29.6562 71.3438 30.375C71.5313 30.8438 71.4063 30.9375 70.5938 30.9375C69.6875 30.9375 69.625 30.875 69.7813 30.0625C69.9063 29.5938 70.0313 28.9375 70.0625 28.5938C70.125 28.25 70.1875 27.875 70.2188 27.7188C70.3125 27.1875 70.875 27.5625 70.9063 28.1875Z" fill="#404040"/>
<path d="M74.6875 25.875C74.4062 26.0625 74.3125 27.0938 74.375 29.875C74.4687 33.125 74.5312 33.5937 75.0312 33.6875C75.4687 33.7812 75.5625 33.5625 75.5625 32.2187C75.5625 30.75 75.625 30.625 76.3125 30.625C77.5625 30.625 78.625 30.0937 78.875 29.3125C79.3125 27.875 79.25 27.2187 78.5312 26.5625C77.75 25.8125 75.375 25.4062 74.6875 25.875ZM77.75 28.3125C77.75 29.3125 77.6875 29.375 76.6562 29.375C75.5937 29.375 75.5625 29.3437 75.5625 28.1562C75.5625 27.125 75.6875 26.9062 76.2812 26.8125C77.2812 26.625 77.75 27.125 77.75 28.3125Z" fill="#404040"/>
<path d="M80.4688 25.8437C80.3438 25.9375 80.25 27.7812 80.25 29.9062C80.25 33.5312 80.2812 33.75 80.875 33.75C81.4375 33.75 81.5 33.5312 81.5 32.0625C81.5 30.0937 82.2188 29.0625 82.7188 30.3437C83.5625 32.625 84.0312 33.4687 84.4688 33.625C85.5625 34.0625 85.4688 33.4375 83.9375 30.5312C83.2188 29.125 83.0938 28.4687 83.4688 28.0625C83.6875 27.8125 84.1562 27.1875 84.5625 26.625C85.2188 25.6875 85.2188 25.625 84.6875 25.625C84.0938 25.625 83.0312 26.6562 82.6562 27.5937C82.5625 27.875 82.3125 28.125 82.125 28.125C81.9375 28.125 81.875 28.25 81.9688 28.4375C82.0625 28.5937 82 28.75 81.8438 28.75C81.6562 28.75 81.5 28.0937 81.5 27.1875C81.5 26.0937 81.375 25.625 81.0938 25.625C80.8438 25.625 80.5625 25.7188 80.4688 25.8437Z" fill="#404040"/>
<path d="M24.0313 0.906253C23.7813 1.21875 23.6251 1.59375 23.6563 1.6875C23.6876 1.78125 23.4688 2.3125 23.2188 2.8125C22.9688 3.3125 22.7501 3.78125 22.7813 3.8125C22.9063 4 22.3751 6.46875 21.9063 7.8125C21.6563 8.59375 21.3751 9.625 21.3126 10.1563C21.1876 11.0938 21.1876 11.0938 21.5626 10.3125C21.7501 9.875 21.9376 9.46875 21.9688 9.375C22.0001 9.28125 22.1876 8.8125 22.3751 8.34375C22.5938 7.84375 22.7501 7.40625 22.7501 7.34375C22.7501 7.28125 22.9063 6.84375 23.1251 6.34375C23.3126 5.875 23.5313 5.21875 23.5938 4.90625C23.6251 4.59375 23.9063 3.84375 24.2188 3.1875C24.5001 2.5625 24.7501 1.9375 24.7501 1.8125C24.7813 1.71875 24.8751 1.5 25.0313 1.375C25.4063 1 25.2813 0.312503 24.8438 0.312503C24.6251 0.312503 24.2501 0.593753 24.0313 0.906253Z" fill="#159640"/>
<path d="M25.7187 0.59375C25.625 0.78125 25.5937 0.9375 25.6875 0.9375C25.8125 0.9375 24.2812 5.46875 23.4062 7.59375C23.2187 8.09375 23.0625 8.65625 23.0625 8.84375C23.0625 9.0625 22.8437 9.59375 22.625 10.0625C22.375 10.5625 22.2812 10.9375 22.4375 10.9375C22.6562 10.9375 23.0625 10.25 23.2187 9.53125C23.2812 9.34375 23.875 8.0625 24.5625 6.65625C25.4375 4.875 25.7812 3.78125 25.6875 3.1875C25.5312 2.25 26.5 0.75 26.9687 1.1875C27.0937 1.3125 27.1562 1.1875 27.0625 0.9375C26.875 0.375 26 0.15625 25.7187 0.59375Z" fill="#159640"/>
<path d="M17.875 6.625C17.875 12.2813 18.1562 11.4688 18.8438 3.8125C19 2.09375 18.9375 1.875 18.4375 1.875C17.9062 1.875 17.875 2.25 17.875 6.625Z" fill="#159640"/>
<path d="M22.0938 2.28125C21.5938 2.65625 21.2188 3.5625 21.0313 4.78125C20.9688 5.15625 20.7813 6.21875 20.5938 7.15625C19.8126 11.0312 20.3438 10.375 21.6876 5.78125C22.4688 3.09375 22.7813 1.875 22.6563 1.875C22.6251 1.875 22.3751 2.0625 22.0938 2.28125Z" fill="#159640"/>
<path d="M16.4375 2.5625C16.3125 2.9375 16.3437 4.71875 16.4687 8.1875C16.4687 8.84375 16.625 9.375 16.75 9.375C17.0937 9.375 17.5 3.84375 17.2187 2.875C17.0312 2.125 16.625 1.96875 16.4375 2.5625Z" fill="#159640"/>
<path d="M11.3438 2.875C11.1875 3.3125 11.2813 3.90625 11.5938 4.6875C11.7188 4.9375 11.8438 5.5 11.9375 5.9375C12.1563 7.21875 12.7813 8.75 13.0938 8.75C13.25 8.75 13.2188 8.40625 13.0625 7.96875C12.9063 7.53125 12.7813 7.0625 12.8125 6.9375C12.8438 6.8125 12.75 6.15625 12.5938 5.46875C12.375 4.375 12.2813 3.78125 12.1563 2.71875C12.0938 2.34375 11.5 2.46875 11.3438 2.875Z" fill="#159640"/>
<path d="M19.5001 3.46875C19.4063 4 19.3751 4.5625 19.4688 4.6875C19.5626 4.84375 19.5001 5.625 19.3126 6.4375C18.9376 8.0625 19.3751 9.125 19.7813 7.59375C20.5001 4.75 20.5938 3.4375 20.1251 2.9375C19.7501 2.59375 19.6563 2.6875 19.5001 3.46875Z" fill="#159640"/>
<path d="M13.0313 3.21875C13 3.4375 13.0313 3.71875 13.0625 3.90625C13.0938 4.0625 13.1875 4.5625 13.2813 5C13.3438 5.4375 13.4688 6 13.5 6.25C13.9688 8.75 14.125 9.28125 14.3438 9.6875C14.5625 10.0937 14.5 8.5625 14.1563 5.3125C14.125 4.875 14.0625 4.21875 14.0313 3.875C14 3.15625 13.0938 2.5625 13.0313 3.21875Z" fill="#159640"/>
<path d="M14.7813 4.28125C15.4688 10.6563 15.7813 11.6875 15.7188 7.34375C15.6563 2.6875 15.6563 2.8125 15.0938 2.8125C14.7188 2.8125 14.6563 3.09375 14.7813 4.28125Z" fill="#159640"/>
<path d="M10.2501 4.1875C9.96882 4.5625 10.0313 5.0625 10.5938 6.625C11.0001 7.71875 11.5001 8.9375 11.7188 9.375C11.9376 9.8125 12.1251 10.3438 12.1251 10.5312C12.1251 10.75 12.2813 10.9375 12.4376 10.9375C12.6563 10.9375 12.6563 10.75 12.4376 10.3125C12.2501 9.96875 12.1876 9.6875 12.2813 9.6875C12.3751 9.6875 12.3126 9.40625 12.1251 9.03125C11.9376 8.6875 11.7188 8.125 11.6251 7.78125C11.5001 7.15625 11.3126 6.4375 11.0001 5.21875C10.9063 4.84375 10.8126 4.34375 10.8126 4.125C10.7501 3.65625 10.7188 3.65625 10.2501 4.1875Z" fill="#159640"/>
<path d="M25.375 6.8125C23.7188 10.3437 23.0625 11.8437 23.0625 12.0937C23.0625 12.5 26.8125 5.8125 26.8125 5.40625C26.8125 4.375 26.25 4.96875 25.375 6.8125Z" fill="#159640"/>
<path d="M8.87503 5.3125C8.62503 5.9375 8.78128 6.625 9.34378 7.53125C9.59378 7.9375 10.0625 8.875 10.375 9.59375C10.7188 10.3438 11.0938 10.9375 11.2813 10.9375C11.4375 10.9375 11.4063 10.7188 11.1875 10.4688C10.9688 10.2188 10.9063 10 11.0313 10C11.1563 10 11.125 9.8125 10.9375 9.59375C10.75 9.40625 10.5938 9.0625 10.5625 8.90625C10.5313 8.71875 10.3438 8.25 10.1875 7.8125C10 7.375 9.68753 6.53125 9.46878 5.9375C9.18753 5.1875 9.00003 5 8.87503 5.3125Z" fill="#159640"/>
<path d="M27.0001 6.9375C26.7188 7.5 26.3751 8.1875 26.2188 8.4375C25.4688 9.71875 24.3126 12.2813 24.6876 11.8125C26.1251 10.0313 28.3438 6.4375 28.1876 6.1875C27.8751 5.71875 27.5001 5.9375 27.0001 6.9375Z" fill="#159640"/>
<path d="M7.68759 7.03125C7.50009 7.25 7.96884 8.40625 8.40634 8.75C8.50009 8.84375 8.84384 9.40625 9.15634 10C9.46884 10.5937 9.78134 10.9375 9.84384 10.7187C9.90634 10.5312 9.75009 10 9.50009 9.59375C9.21884 9.1875 9.06259 8.78125 9.15634 8.71875C9.21884 8.625 8.96884 8.1875 8.59384 7.6875C8.21884 7.21875 7.81259 6.9375 7.68759 7.03125Z" fill="#159640"/>
<path d="M4.4063 7.40625C3.75005 7.625 4.31255 8.46875 7.37505 11.8125L8.7188 13.2812L7.8438 11.875C7.37505 11.0938 6.7813 10.25 6.56255 10C6.3438 9.75 6.18755 9.40625 6.2188 9.25C6.2188 9.09375 6.12505 8.875 5.9688 8.78125C5.81255 8.6875 5.4688 8.3125 5.2188 7.9375C4.9688 7.59375 4.5938 7.34375 4.4063 7.40625Z" fill="#159640"/>
<path d="M5.875 7.46875C5.875 7.625 6.1875 8.15625 6.59375 8.65625C6.96875 9.125 7.6875 10.125 8.1875 10.8437C9.375 12.5937 9.59375 12.5625 8.5625 10.7812C8.09375 10 7.84375 9.375 7.96875 9.375C8.09375 9.375 8.0625 9.25 7.90625 9.125C7.71875 9 7.34375 8.53125 7.03125 8.03125C6.5 7.21875 5.875 6.90625 5.875 7.46875Z" fill="#159640"/>
<path d="M26.8751 10.1562C24.8438 13.3125 24.9063 13.9062 26.9688 11.0312C27.6563 10.0625 28.4688 9 28.7813 8.65625C29.3751 7.96875 29.4376 7.625 29.0313 7.375C28.9063 7.28125 27.9376 8.53125 26.8751 10.1562Z" fill="#159640"/>
<path d="M2.4375 8.3125C2.4375 8.625 4.9375 11.375 6.125 12.3438C7.375 13.375 7.25 13.125 4.8125 10.0625C3.5 8.40625 2.4375 7.625 2.4375 8.3125Z" fill="#159640"/>
<path d="M29.625 8.6875C29.625 8.8125 29.375 9.21875 29.0625 9.5625C28.7812 9.875 28.2812 10.5 28 10.9375C27.6875 11.375 27.1562 12.125 26.75 12.6562L26.0625 13.5938L26.8125 12.9687C28.125 11.8437 30.0625 9.65625 30.125 9.1875C30.1562 8.9375 30.0625 8.6875 29.9062 8.5625C29.75 8.46875 29.625 8.53125 29.625 8.6875Z" fill="#159640"/>
<path d="M0.875 9.09375C0.875 9.28125 1.46875 9.9375 2.15625 10.5625C2.875 11.1875 4.1875 12.375 5.0625 13.1875C5.9375 14 6.8125 14.6875 6.96875 14.6875C7.15625 14.6875 6.8125 14.25 6.28125 13.75C5.71875 13.25 5.25 12.7812 5.25 12.7188C5.25 12.6562 4.40625 11.7188 3.375 10.6875C1.5625 8.8125 0.875 8.375 0.875 9.09375Z" fill="#159640"/>
<path d="M19.0312 9.59376C19.0312 10.375 19.0625 10.4063 19.3125 9.84376C19.6875 9.00001 19.6875 8.75001 19.3125 8.75001C19.1562 8.75001 19 9.12501 19.0312 9.59376Z" fill="#159640"/>
<path d="M13.25 10C13.4375 11.125 13.5938 11.4375 13.8125 11.2187C13.875 11.1562 13.7188 10.5937 13.5 10L13.0625 8.90625L13.25 10Z" fill="#159640"/>
<path d="M0.781282 10.5312C0.531282 10.9687 1.15628 12.1875 1.65628 12.1875C1.90628 12.1875 2.12503 12.3125 2.12503 12.4375C2.12503 12.5625 2.50003 12.9062 3.00003 13.1875C3.46878 13.4687 4.31253 14.125 4.87503 14.6562C5.40628 15.1875 5.87503 15.5312 5.87503 15.4375C5.87503 15.3125 6.12503 15.4375 6.43753 15.6562C6.71878 15.9062 6.18753 15.3125 5.25003 14.4062C4.31253 13.4687 3.40628 12.6875 3.28128 12.6875C3.15628 12.6562 2.56253 12.125 2.00003 11.4687C1.40628 10.7812 0.875032 10.375 0.781282 10.5312Z" fill="#159640"/>
<path d="M28.8437 12.0937C28.0937 12.9375 27.2187 13.8437 26.9062 14.1875C26.375 14.75 26.375 14.75 27 14.4375C27.8437 14 30.5625 11.3125 30.5625 10.9375C30.5625 10.4062 30.2812 10.5938 28.8437 12.0937Z" fill="#159640"/>
<path d="M16.5 11.6875C16.5 12.125 16.6562 12.5 16.8125 12.5C17 12.5 17.125 12.2188 17.125 11.9062C17.125 11.5625 17 11.1875 16.8125 11.0938C16.625 10.9688 16.5 11.25 16.5 11.6875Z" fill="#159640"/>
<path d="M84.75 13.3125C84.8437 13.5938 84.9375 13.875 84.9375 13.9375C84.9375 14.0313 85.3125 14.2188 85.75 14.4063C86.6875 14.75 88.0625 14.0938 88.0625 13.2813C88.0625 12.6875 87.5625 12.6875 87.3125 13.2813C87.2187 13.5313 86.8125 13.75 86.375 13.75C85.9687 13.75 85.5625 13.5313 85.4375 13.2813C85.3437 13.0313 85.125 12.8125 84.9062 12.8125C84.7187 12.8125 84.6562 13.0313 84.75 13.3125Z" fill="#159640"/>
<path d="M2.4375 14.375C2.4375 14.5312 2.59375 14.6875 2.75 14.6875C2.9375 14.6875 3.34375 14.9687 3.6875 15.3125C4.03125 15.6562 4.3125 15.8437 4.3125 15.75C4.3125 15.625 4.5625 15.7187 4.875 15.9375C5.15625 16.1562 4.84375 15.8125 4.15625 15.1875C2.875 14.0312 2.4375 13.8125 2.4375 14.375Z" fill="#159640"/>
<path d="M41.25 15.5C40.0937 15.9688 39.6562 16.75 40.25 17.2813C40.5312 17.5625 40.7187 17.5 41.0937 16.9375C41.6562 16.1563 42.9062 16.0313 43.1875 16.75C43.5937 17.7813 43.375 18.4375 42.5937 18.625C41.5625 18.875 41.5625 19.6875 42.5937 19.6875C43.625 19.6875 44 21 43.2187 21.875C42.4375 22.75 41.9062 22.6563 41.2187 21.5313C40.6875 20.6563 40.5937 20.625 40.125 21.0938C39.0625 22.1563 41.1562 23.6875 43.1875 23.3438C43.9375 23.2188 44.9375 22 44.9375 21.2188C44.9375 20.4063 44.2812 19.0625 43.9687 19.25C43.8125 19.3438 43.6875 19.2813 43.6875 19.125C43.6875 18.9375 43.9062 18.75 44.1562 18.625C44.75 18.4063 44.7812 16.4688 44.2187 16C43.3125 15.25 42.25 15.0625 41.25 15.5Z" fill="#159640"/>
<path d="M60.4063 15.25C60.0626 15.3125 59.4063 15.7812 58.9376 16.3125C58.1876 17.1875 58.0938 17.4688 58.1876 19.3438C58.2813 21.4375 58.8751 23.25 59.3438 22.9375C59.5001 22.8438 59.6251 22.9062 59.6251 23.0625C59.6251 23.2188 60.1876 23.3438 60.9063 23.3438C62.0001 23.3438 62.2501 23.1875 62.9063 22.2188C63.4688 21.4062 63.5626 21.0625 63.2813 20.875C62.7813 20.5625 62.0313 20.5625 62.2501 20.875C62.5626 21.4062 61.5001 22.4688 60.8126 22.3438C59.7501 22.125 59.5626 21.7812 59.5626 19.7188C59.5313 17.7188 60.0626 16.25 60.7813 16.25C61.4063 16.25 62.4063 17.25 62.2188 17.6875C62.0313 18.2188 62.2813 18.25 63.0626 17.8125C63.6251 17.5 63.6251 17.4375 63.1563 16.5938C62.5938 15.6562 61.4063 15.0625 60.4063 15.25Z" fill="#159640"/>
<path d="M66.7188 15.25C65.9688 15.4062 64.5938 16.5938 64.8125 16.9062C64.875 17.0312 64.8438 17.2188 64.6875 17.3125C64.5313 17.4062 64.4375 18.3125 64.4688 19.3125C64.5938 22.0938 65.5 23.4375 67.3438 23.4375C68.625 23.4375 69.625 22.5312 69.625 21.3438C69.625 20.4375 68.9375 20.4062 68.5313 21.3125C68.3438 21.6875 67.9688 22.125 67.6563 22.3125C67.1875 22.5938 66.9688 22.5 66.5 21.9375C65.625 20.875 65.4375 19.3125 65.9375 17.75C66.3125 16.6562 66.5625 16.375 67.25 16.3125C67.9375 16.2188 68.125 16.375 68.4063 17.125C68.625 17.8125 68.875 18.0312 69.3125 17.9062C70 17.7188 69.9688 17.25 69.1563 16.2188C68.5 15.375 67.6563 15.0312 66.7188 15.25Z" fill="#159640"/>
<path d="M2.1875 15.625C2.3125 16.0313 4.9375 17.625 4.9375 17.2813C4.9375 17.1563 4.28125 16.6563 3.5 16.1563C2.71875 15.6875 2.125 15.4375 2.1875 15.625Z" fill="#159640"/>
<path d="M28.875 15.8125C28.5313 16.75 28.6563 22.6563 29.0625 23.0625C29.8125 23.8125 30.25 23.4688 30.25 22.1875C30.25 21.5313 30.4063 20.5938 30.625 20.1563C30.9688 19.375 31.4688 19.125 31.5313 19.6875C31.5938 20.1875 31.6875 20.4063 32.2813 21.7188C32.5938 22.4063 32.8438 23.0625 32.8125 23.1875C32.7813 23.3438 33.0938 23.4375 33.5313 23.4375C34.2813 23.4375 34.625 22.7188 34.0313 22.375C33.7188 22.1563 32.125 18.875 32.125 18.4063C32.125 18.2188 32.5313 17.4375 33.0625 16.6875C33.9063 15.4375 33.9375 15.3125 33.375 15.3125C32.9688 15.3125 32.3438 15.9688 31.5 17.25L30.25 19.1875V17.25C30.25 15.5625 30.1875 15.3125 29.6563 15.3125C29.3438 15.3125 28.9688 15.5313 28.875 15.8125Z" fill="#159640"/>
<path d="M34.6563 15.5938C34.3125 15.8125 34.2813 16 34.5 16.3125C34.6875 16.5312 35 17.125 35.1875 17.6562C35.375 18.1562 35.7188 19 35.9063 19.5312C36.125 20.0312 36.3125 20.6875 36.375 20.9375C36.5 21.5625 35.875 22.25 35.3438 22.0625C35.0625 21.9375 34.9375 22.1562 34.9375 22.6562C34.9375 23.6875 35.9375 23.6875 36.75 22.6562C37.4375 21.8125 39.5 15.7188 39.2188 15.4375C38.7813 14.9688 37.9063 16.2812 37.5938 17.875C37.5313 18.1875 37.3438 18.6875 37.1563 18.9688C36.9063 19.4062 36.8125 19.4375 36.8125 19.0625C36.8125 18.8125 36.5313 18.0312 36.1875 17.3438C35.8438 16.6562 35.5938 15.9062 35.5625 15.6875C35.5625 15.25 35.2813 15.2188 34.6563 15.5938Z" fill="#159640"/>
<path d="M46.4063 15.5312C46.1251 15.7812 46.1251 22.2812 46.3751 22.9375C46.5001 23.2812 46.9688 23.4375 47.9688 23.4375C50.5001 23.4375 51.8751 21.9688 51.1563 20.0625C50.8751 19.3438 49.9376 18.2188 49.7188 18.3438C49.6563 18.4062 49.1251 18.4375 48.5313 18.4375C47.5001 18.4375 47.4376 18.375 47.4376 17.3438V16.25H49.0001C50.1876 16.25 50.5626 16.125 50.5626 15.7812C50.5626 15.4062 50.1251 15.3125 48.5938 15.3125C47.5001 15.3125 46.5001 15.4062 46.4063 15.5312ZM49.5938 19.8125C49.8126 20.0625 49.9376 20.6562 49.8751 21.1562C49.7813 21.9062 49.6251 22.0312 48.6251 22.125L47.4376 22.2188V20.8125C47.4376 19.4375 47.4688 19.375 48.3438 19.375C48.8438 19.375 49.4063 19.5625 49.5938 19.8125Z" fill="#159640"/>
<path d="M53.9687 16C53.75 16.4062 53.5312 16.8438 53.5 17.0312C53.4375 17.1875 53.1875 18.125 52.9062 19.0625C51.875 22.6562 51.7812 23.0625 52.1562 23.3125C52.5937 23.5625 53.0937 23.0625 53.1875 22.3125C53.25 21.875 53.5937 21.6875 54.5312 21.625C55.6875 21.5312 55.8437 21.5938 56.125 22.4688C56.375 23.1562 56.6562 23.4375 57.1562 23.4375C57.6562 23.4375 57.7812 23.3125 57.5937 22.875C57.4687 22.5938 57.3437 22.1875 57.3125 22.0312C57.2812 21.8438 56.9375 20.7188 56.5625 19.5312C56.1875 18.3125 55.8437 16.9062 55.7812 16.4062C55.625 15.1875 54.5312 14.9375 53.9687 16ZM55.0937 18.1875C55.4687 20 55.4375 20.1562 54.5312 20.25C53.625 20.375 53.5937 20.2812 54.2187 18.0312C54.4062 17.2812 54.9062 17.375 55.0937 18.1875Z" fill="#159640"/>
<path d="M70.9063 18.9062C70.8438 22.7812 70.9688 23.4375 71.8438 23.4375C72.3438 23.4375 72.4375 23.1875 72.4375 21.8438C72.4375 19.9688 73.125 18.9375 73.6875 20C73.875 20.3438 73.9688 20.625 73.875 20.625C73.5 20.625 75.2188 23.2812 75.6563 23.375C76.4375 23.5312 76.3125 22.9688 75.0938 20.5938C74.0938 18.625 73.9375 17.5 74.6875 17.5C74.8438 17.5 74.875 17.3438 74.7813 17.1875C74.6875 17 74.7188 16.875 74.875 16.875C75.0313 16.875 75.3125 16.5312 75.5 16.0938C75.8125 15.4062 75.7813 15.3125 75.2813 15.3125C75 15.3125 74.5313 15.6562 74.3125 16.0938C74.0938 16.5312 73.7813 16.875 73.625 16.875C73.4688 16.875 73.4063 17 73.5 17.125C73.5625 17.25 73.375 17.7188 73.0313 18.125L72.4375 18.9062V17.125C72.4375 15.4062 72.4063 15.3125 71.6875 15.375C70.9688 15.4375 70.9375 15.5 70.9063 18.9062Z" fill="#159640"/>
<path d="M77.3438 15.5312C77.2188 15.625 77.125 17.4688 77.125 19.5938C77.125 23.2188 77.1562 23.4375 77.75 23.4375C78.125 23.4375 78.375 23.2188 78.375 22.875C78.375 22.5938 78.6562 22 79 21.5625C79.3438 21.125 79.625 20.6562 79.625 20.5312C79.625 20.375 79.9062 19.875 80.2188 19.4375C80.5312 18.9688 80.8125 18.4688 80.8125 18.3438C80.8125 18.1875 80.9062 17.9688 81.0312 17.875C81.1562 17.75 81.2188 17.8125 81.1875 17.9688C81.1562 18.125 81.125 19.4375 81.1562 20.8438C81.1875 23.2188 81.25 23.4375 81.8125 23.4375C82.4062 23.4375 82.4375 23.2188 82.4375 19.3438C82.4375 15.2812 82.4375 15.2812 81.75 15.375C81.3438 15.4375 81.0312 15.625 81.0312 15.8438C81.0312 16.0625 80.7812 16.5 80.5 16.8438C80.2188 17.1875 80.0312 17.5 80.0938 17.5625C80.1562 17.625 79.8125 18.375 79.3125 19.2188L78.375 20.7812V18.0312C78.375 15.9688 78.2812 15.3125 77.9688 15.3125C77.7188 15.3125 77.4375 15.4062 77.3438 15.5312Z" fill="#159640"/>
<path d="M84.0625 15.6875C83.5625 16.1875 83.5625 22.5625 84.0625 23.0625C84.5625 23.5625 84.9375 23.5312 84.9375 23.0312C84.9375 22.8438 85.5625 21.5625 86.3125 20.2188L87.6562 17.7812L87.5 20.125C87.3438 22.5312 87.625 23.4375 88.5625 23.4375C88.9062 23.4375 89 22.625 89 19.375C89 15.7188 88.9375 15.3125 88.4688 15.3125C88.0938 15.3125 87.5938 15.9688 87.0312 17.125C86.5312 18.0938 85.875 19.4062 85.5625 20L84.9688 21.0938L84.9375 18.1875C84.9375 15.3438 84.8125 14.9375 84.0625 15.6875Z" fill="#159640"/>
<path d="M4.09382 24.5938C4.37507 24.6562 4.87507 24.6562 5.18757 24.5938C5.46882 24.5 5.21882 24.4375 4.62507 24.4375C4.03132 24.4375 3.78132 24.5 4.09382 24.5938Z" fill="#159640"/>
<path d="M28.5 33.0938C28.8438 33.4375 29.2188 33.75 29.375 33.75C29.8125 33.75 29.3438 33.1562 28.5938 32.7812C27.9063 32.4062 27.9063 32.4062 28.5 33.0938Z" fill="#159640"/>
<path d="M27.9376 34.2188C28.2188 34.6563 28.5626 34.9063 28.7501 34.8125C28.9063 34.7188 28.7188 34.375 28.3438 34.0313C27.4376 33.25 27.3126 33.2813 27.9376 34.2188Z" fill="#159640"/>
<path d="M25.9375 35.4375C26.1562 35.6875 26.5937 36.1875 26.9062 36.5625C27.2187 36.9375 27.5625 37.1562 27.6562 37.0625C27.8437 36.9062 26.0625 35 25.7187 35C25.5937 35 25.7187 35.1875 25.9375 35.4375Z" fill="#159640"/>
<path d="M25.0313 38.125C28.0313 43.7188 28.8438 45.0625 29.0938 44.7813C29.5 44.4063 29.3125 43.5313 28.6875 42.8125C28.3438 42.4063 28.0625 41.9688 28.0625 41.8125C28.0625 41.5625 27.8438 41.25 26.9375 40.2188C26.75 40 26.3438 39.4063 26 38.9063C25.6875 38.375 25.3125 37.8125 25.1563 37.6563C25.0313 37.4688 24.6875 37.0625 24.4375 36.7188C24.1563 36.375 24.4375 37 25.0313 38.125Z" fill="#159640"/>
<path d="M25.7813 37.0937C26.0938 37.5937 26.5313 38.1562 26.75 38.375C26.9688 38.625 27.3438 39.2187 27.5938 39.7187C28.0313 40.5 28.6875 40.9687 28.6875 40.4375C28.6875 40.1875 27.5 38.5312 26.625 37.5937C26.2188 37.1562 25.875 36.6562 25.875 36.5312C25.875 36.375 25.7188 36.25 25.5625 36.25C25.375 36.25 25.4688 36.625 25.7813 37.0937Z" fill="#159640"/>
<path d="M16.5938 41.2813C16.5625 44.0938 16.6875 45.2188 16.9688 45.5313C17.3438 45.875 17.375 45.3125 17.25 42.1563C17.0625 37.0625 16.5938 36.4688 16.5938 41.2813Z" fill="#159640"/>
<path d="M22.125 37.5625C22.125 37.6562 23.2812 40.7812 23.5938 41.5625C23.6875 41.8125 23.8125 42.0937 23.8438 42.1875C23.875 42.2812 24 42.5937 24.125 42.875C24.25 43.1562 24.4062 43.5625 24.4375 43.8125C24.4688 44.0312 24.6875 44.5312 24.875 44.9062C25.0938 45.3125 25.1875 45.625 25.0625 45.625C24.9688 45.625 25.0312 45.8125 25.2188 46.0312C25.4062 46.2812 25.5938 46.7187 25.6875 47.0625C25.75 47.375 25.9062 47.9687 26.0312 48.375C26.25 49.0937 26.2812 49.0937 26.8438 48.5C27.4375 47.8437 27.5312 48.0625 24.0938 41.2187C23.5312 40.0937 23.1562 39.0625 23.2812 38.9375C23.375 38.8437 23.3125 38.75 23.125 38.75C22.9062 38.75 22.75 38.5625 22.75 38.3125C22.75 38.0625 22.625 37.75 22.4375 37.6562C22.2812 37.5625 22.125 37.5 22.125 37.5625Z" fill="#159640"/>
<path d="M23.375 37.7187C23.375 37.875 23.5312 38.1562 23.7188 38.3437C23.9062 38.5312 24.0625 38.875 24.125 39.0937C24.1562 39.3437 24.5312 40.2187 24.9688 41.0937C25.4062 41.9375 25.8125 42.7812 25.875 42.9687C25.9062 43.125 26.4062 44.2187 26.9375 45.375C27.875 47.3437 27.9688 47.4687 28.4375 46.9687C28.9375 46.5 28.9375 46.4062 28.4375 45.5C28.1562 44.9687 27.8125 44.4687 27.7188 44.375C27.5312 44.2187 25.5 40.75 25.1562 40C24.625 38.8437 23.375 37.25 23.375 37.7187Z" fill="#159640"/>
<path d="M21.1563 38.4062C21.375 38.75 21.4375 39.0625 21.3438 39.0625C21.25 39.0625 21.3125 39.3437 21.5 39.7187C21.6875 40.0625 21.9063 40.625 22 40.9687C22.0625 41.2812 22.1875 41.8437 22.2813 42.1875C22.375 42.5312 22.5 43.0937 22.5938 43.4375C22.6875 43.7812 22.8125 44.3437 22.875 44.6562C22.9688 45 23.1875 45.5625 23.375 45.9062C23.5625 46.2812 23.625 46.5625 23.5313 46.5625C23.4375 46.5625 23.5 46.8437 23.6875 47.2187C23.9063 47.5625 24.125 47.7812 24.2188 47.6875C24.3438 47.5937 24.5938 47.6562 24.8438 47.875C25.1875 48.1562 25.2188 48.0937 25 47.4687C24.8438 47.0625 24.6563 46.5625 24.625 46.4062C24.5 45.9687 24.375 45.5937 23.9688 44.5312C23.75 44 23.5625 43.5312 23.5625 43.4375C23.5313 43.3437 23.4375 43.125 23.3438 42.9687C23.2188 42.7812 22.9688 42.0937 22.75 41.4062C22.5313 40.7187 22.25 40 22.0938 39.8125C21.9375 39.625 21.7813 39.1562 21.7188 38.75C21.6563 38.3437 21.4375 37.9375 21.2188 37.875C20.9063 37.7812 20.9063 37.875 21.1563 38.4062Z" fill="#159640"/>
<path d="M14.4063 39.4688C14.375 40.2813 14.4063 40.3438 14.625 39.8438C14.9688 39.0313 15 38.4375 14.7188 38.4375C14.5625 38.4375 14.4375 38.9063 14.4063 39.4688Z" fill="#159640"/>
<path d="M20.3438 39.6875C20.4375 40.2812 20.625 41.125 20.7188 41.5625C20.9688 42.5937 21.4375 45.4375 21.4688 46.1562C21.5 46.5937 22.75 46.7187 22.75 46.2812C22.75 46.125 22.5625 45.5312 22.3125 44.9687C22.0625 44.375 21.8125 43.4687 21.7188 42.9687C21.625 42.4375 21.4063 41.5937 21.1875 41.0937C21 40.5625 20.7813 39.9062 20.6875 39.5625C20.4688 38.4687 20.1563 38.5937 20.3438 39.6875Z" fill="#159640"/>
<path d="M15.5312 40C15.3125 41.0938 15.4062 41.5 15.75 41.1875C15.8437 41.0625 15.875 40.5313 15.8125 39.9375L15.7187 38.9063L15.5312 40Z" fill="#159640"/>
<path d="M17.9376 40.0625C17.8438 40.4687 17.8438 42.0937 17.9688 43.6875C18.1251 45.9687 18.2813 46.6562 18.6876 46.875C19.2501 47.1875 19.2501 47 18.8751 43.9687C18.7813 43.4375 18.6563 42.1875 18.5313 41.25C18.3126 39.2812 18.2188 39.0937 17.9376 40.0625Z" fill="#159640"/>
<path d="M19.1563 40.8437C19.375 41.6562 19.5625 43.3125 19.75 46C19.8438 47.375 19.9688 47.5937 20.6875 47.3125C21 47.1875 21.1563 46.9062 21.0313 46.5625C20.8438 46 20.75 45.5312 20.375 43.5937C20.2813 43.0625 20.1563 42.5 20.125 42.3437C19.6875 40.4375 19.5313 40 19.25 40C19.0625 40 19.0313 40.3437 19.1563 40.8437Z" fill="#159640"/>
<path d="M25.2812 48.9687C25.25 49.3437 25.4062 49.75 25.5625 49.8437C25.9375 50.0625 25.9375 49.7812 25.5625 48.9062C25.3125 48.3125 25.2812 48.3125 25.2812 48.9687Z" fill="#159640"/>
<path d="M11.875 19.75C12 20.0312 11.8438 20.4687 11.5313 20.75C10.8438 21.375 10.4375 21.4062 10.6563 20.8125C10.7813 20.5 10.6563 20.375 10.25 20.4062C9.93754 20.4375 9.71879 20.5312 9.81254 20.6562C9.87504 20.7812 9.56254 21.2187 9.15629 21.6562C8.50004 22.3125 8.43754 22.4687 8.84379 22.625C9.12504 22.7187 9.40629 22.5937 9.50004 22.3437C9.62504 22.0937 9.81254 21.875 9.96879 21.875C10.0938 21.875 10.1563 22.0625 10.0625 22.2812C10 22.5 10.3125 22.8125 10.875 23.0312C11.5313 23.2812 11.75 23.2812 11.625 23.0625C11.4688 22.8437 11.6563 22.7812 12.0938 22.9062C12.6563 23.0312 12.7188 23 12.4063 22.625C12.0938 22.25 12.1875 22 12.7813 21.3437C13.1875 20.875 13.2813 20.6875 12.9688 20.9062C12.5 21.2812 12.4375 21.2812 12.625 20.8437C12.7188 20.5312 12.5625 20.0937 12.25 19.7812C11.75 19.2812 11.7188 19.2812 11.875 19.75Z" fill="#ECECEC"/>
<path d="M15.6563 20.1875C15.1875 20.6875 14.6875 21.0625 14.5625 21.0312C14.4688 21 14.1875 21.1875 13.9375 21.4687C13.5938 21.9062 13.5938 21.9687 13.9688 21.75C14.2813 21.5312 14.3438 21.6562 14.1563 22.1875C13.8125 23.25 14.4063 22.8437 15.7188 21.1562C17 19.4375 16.9688 18.875 15.6563 20.1875Z" fill="#ECECEC"/>
<path d="M20.75 19.8438C20.875 20.125 21.0938 20.2813 21.25 20.25C21.7188 20.0938 21.5938 19.5313 21.0625 19.4375C20.7188 19.375 20.625 19.5 20.75 19.8438Z" fill="#ECECEC"/>
<path d="M17.1251 21.875C16.7501 22.375 16.5626 22.8125 16.7188 22.8125C16.8438 22.8125 17.2188 22.375 17.5001 21.875C18.1876 20.6562 17.9688 20.6562 17.1251 21.875Z" fill="#ECECEC"/>
<path d="M22.3126 22.4062C22.0313 23.0625 21.6251 24.0625 21.3751 24.5938C21.1251 25.1562 21.0313 25.625 21.1563 25.625C21.3751 25.625 22.0938 24.2188 23.1251 21.7812C23.2501 21.5 23.2188 21.25 23.0938 21.25C22.9376 21.25 22.5938 21.7812 22.3126 22.4062Z" fill="#ECECEC"/>
<path d="M19.2188 21.7813C17.9688 21.9688 16.0313 24.875 16.4688 25.9688C16.6251 26.375 16.7813 26.5313 16.7813 26.3125C16.8126 26.125 16.9688 25.9375 17.1876 25.9375C17.3751 25.9375 17.8126 25.6875 18.1563 25.375C18.7501 24.875 18.7813 24.875 18.6251 25.5313C18.3126 26.7813 18.8126 26.2813 20.1563 24.0938C21.2188 22.3438 21.3751 21.9063 21.0001 21.75C20.7188 21.6563 20.4063 21.5938 20.3126 21.5938C20.1876 21.625 19.6876 21.7188 19.2188 21.7813Z" fill="#ECECEC"/>
<path d="M13.125 24.6875C12.2813 25.8125 12.25 26.0312 13.0625 25.7812C13.4063 25.6562 13.6875 25.7187 13.6875 25.9062C13.6875 26.6562 14.5938 26.1875 15.2188 25.125C15.875 24.0312 15.875 24.0312 15.25 24.2187C14.9063 24.3437 14.625 24.2812 14.625 24.0937C14.625 23.4375 13.7813 23.75 13.125 24.6875Z" fill="#ECECEC"/>
<path d="M50.9688 27.3438C50.9688 28.375 51.0309 28.75 51.0931 28.1875C51.1553 27.625 51.1553 26.7813 51.0931 26.3125C51.0309 25.8438 50.9688 26.3125 50.9688 27.3438Z" fill="#ECECEC"/>
<path d="M33.8125 30C33.8125 31.8125 33.8436 32.5312 33.9058 31.625C33.968 30.75 33.968 29.25 33.9058 28.3437C33.8436 27.4687 33.8125 28.1875 33.8125 30Z" fill="#ECECEC"/>
<path d="M50.9688 32.0313C50.9688 33.0625 51.0309 33.4375 51.0931 32.875C51.1553 32.3125 51.1553 31.4688 51.0931 31C51.0309 30.5313 50.9688 31 50.9688 32.0313Z" fill="#ECECEC"/>
</g>
<defs>
<clipPath id="clip0_2022_648">
<rect width="88.4375" height="50" fill="white" transform="translate(0.5625)"/>
</clipPath>
</defs>
</svg>
