<svg width="24" height="24" viewBox="0 0 24 24" fill="none" xmlns="http://www.w3.org/2000/svg">
<g clip-path="url(#clip0_2093_9)">
<path d="M12.0004 23.9529C18.5279 23.9529 23.9534 18.5389 23.9534 11.9999C23.9534 5.47237 18.5159 0.046875 11.9884 0.046875C5.44985 0.046875 0.0478516 5.47237 0.0478516 11.9999C0.0478516 18.5389 5.46135 23.9529 12.0004 23.9529ZM12.0009 21.9609C6.46885 21.9609 2.05035 17.5309 2.05035 11.9999C2.05035 6.47988 6.45685 2.03888 11.9884 2.03888C17.5079 2.03888 21.9489 6.48038 21.9609 11.9999C21.9724 17.5314 17.5194 21.9609 11.9999 21.9609M9.18735 14.7659C11.9174 17.5079 15.3984 19.2419 17.4609 17.1909C17.5339 17.1189 17.6005 17.0406 17.6599 16.9569C18.1989 16.3594 18.3514 15.5624 17.6599 15.0469C17.1209 14.6599 16.5469 14.2619 15.5739 13.5819C14.8944 13.1019 14.4489 13.2184 13.9219 13.7459L13.4529 14.2029C13.3124 14.3319 13.0899 14.3204 12.9374 14.2264C12.5274 13.9804 11.8359 13.4294 11.1794 12.7734C10.5349 12.1284 9.94935 11.4024 9.72635 11.0154C9.64435 10.8864 9.58585 10.6754 9.74985 10.5234L10.2069 10.0309C10.7344 9.48038 10.8514 9.05837 10.3594 8.36687L8.91785 6.32788C8.42535 5.63638 7.71085 5.76537 6.92535 6.35137C6.86685 6.39837 6.82035 6.44537 6.77335 6.49187C4.71085 8.55437 6.45685 12.0349 9.18735 14.7654" fill="#344045"/>
</g>
<defs>
<clipPath id="clip0_2093_9">
<rect width="24" height="24" fill="white"/>
</clipPath>
</defs>
</svg>
