<svg width="33" height="33" viewBox="0 0 33 33" fill="none" xmlns="http://www.w3.org/2000/svg">
<path d="M29.7 16.5C29.7 20.0009 28.3093 23.3583 25.8338 25.8338C23.3583 28.3093 20.0009 29.7 16.5 29.7C12.9991 29.7 9.64167 28.3093 7.16619 25.8338C4.69071 23.3583 3.3 20.0009 3.3 16.5C3.3 12.9991 4.69071 9.64167 7.16619 7.16619C9.64167 4.69071 12.9991 3.3 16.5 3.3C20.0009 3.3 23.3583 4.69071 25.8338 7.16619C28.3093 9.64167 29.7 12.9991 29.7 16.5ZM16.5 33C25.6129 33 33 25.6129 33 16.5C33 7.38705 25.6129 0 16.5 0C7.38705 0 0 7.38705 0 16.5C0 25.6129 7.38705 33 16.5 33ZM17.0907 12.1803C15.4869 12.848 12.2799 14.2302 7.46955 16.3267C6.68745 16.637 6.27825 16.9405 6.24195 17.2375C6.17925 17.7391 6.8079 17.9372 7.66425 18.2061L8.02395 18.3216C8.86545 18.5955 10.0007 18.9156 10.5897 18.9288C11.1243 18.9398 11.7205 18.7198 12.3783 18.2688C16.8729 15.2328 19.1928 13.6988 19.338 13.667C19.4419 13.6438 19.5838 13.6142 19.6796 13.7C19.7769 13.7858 19.767 13.9474 19.7571 13.992C19.6944 14.2576 17.226 16.5528 15.9489 17.7392C15.5705 18.0956 15.1948 18.4547 14.8219 18.8166C14.0398 19.5707 13.4524 20.1366 14.8549 21.0606C16.2756 21.9978 17.7094 22.9317 19.0954 23.92C19.7785 24.4084 20.3923 24.8441 21.1514 24.7764C21.5919 24.7352 22.0473 24.321 22.2783 23.0835C22.8261 20.163 23.9002 13.8303 24.1478 11.22C24.1621 11.0035 24.1527 10.786 24.1197 10.5715C24.1002 10.3989 24.0166 10.2399 23.8854 10.126C23.6874 9.96435 23.3822 9.93135 23.2469 9.933C22.6265 9.94455 21.6744 10.2745 17.0924 12.1803" fill="#34A7E0"/>
</svg>
