<svg width="33" height="33" viewBox="0 0 33 33" fill="none" xmlns="http://www.w3.org/2000/svg">
<path d="M28.191 4.80158C26.6704 3.27385 24.8595 2.06253 22.8637 1.23818C20.8679 0.413839 18.7272 -0.00703421 16.5663 8.89267e-05C7.51206 8.89267e-05 0.132664 7.34257 0.132664 16.3515C0.132664 19.239 0.895477 22.044 2.32161 24.519L0 33L8.70603 30.723C11.1106 32.0265 13.8136 32.7195 16.5663 32.7195C25.6206 32.7195 33 25.377 33 16.368C33 11.9956 31.292 7.88707 28.191 4.80158ZM16.5663 29.9475C14.1121 29.9475 11.7075 29.2875 9.60151 28.05L9.10402 27.753L3.93015 29.106L5.30653 24.09L4.97487 23.5785C3.61101 21.4122 2.88696 18.9078 2.88543 16.3515C2.88543 8.86057 9.0211 2.75558 16.5497 2.75558C20.198 2.75558 23.6307 4.17458 26.201 6.74857C27.4739 8.00894 28.4827 9.50826 29.1687 11.1596C29.8548 12.8108 30.2044 14.5812 30.1975 16.368C30.2307 23.859 24.095 29.9475 16.5663 29.9475ZM24.0618 19.7835C23.6472 19.5855 21.6241 18.5955 21.2593 18.447C20.8779 18.315 20.6126 18.249 20.3307 18.645C20.0487 19.0575 19.2693 19.9815 19.0372 20.2455C18.805 20.526 18.5563 20.559 18.1417 20.3445C17.7271 20.1465 16.4005 19.701 14.8417 18.315C13.6146 17.226 12.802 15.8895 12.5533 15.477C12.3211 15.0645 12.5201 14.85 12.7357 14.6356C12.9181 14.4541 13.1503 14.1571 13.3492 13.9261C13.5482 13.6951 13.6312 13.5136 13.7638 13.2496C13.8965 12.9691 13.8301 12.7381 13.7307 12.5401C13.6312 12.3421 12.802 10.3291 12.4704 9.50406C12.1387 8.71207 11.7905 8.81106 11.5417 8.79457H10.7457C10.4638 8.79457 10.0327 8.89357 9.65125 9.30606C9.28643 9.71856 8.22513 10.7086 8.22513 12.7216C8.22513 14.7345 9.701 16.6815 9.9 16.9455C10.099 17.226 12.802 21.351 16.9146 23.1165C17.893 23.5455 18.6558 23.793 19.2528 23.9745C20.2312 24.288 21.1266 24.2385 21.8397 24.1395C22.6357 24.024 24.2774 23.1495 24.609 22.1925C24.9573 21.2355 24.9573 20.427 24.8412 20.2455C24.7251 20.064 24.4764 19.9815 24.0618 19.7835Z" fill="#189412"/>
</svg>
