<svg width="49" height="40" viewBox="0 0 49 40" xmlns="http://www.w3.org/2000/svg">
<g clip-path="url(#clip0_2066_2)">
<path d="M47.7562 8.93918C47.272 8.31379 46.6494 7.80924 45.9372 7.46523C45.225 7.12121 44.4427 6.9471 43.6519 6.95659H14.2956L11.7564 2.34792C11.3467 1.62746 10.7517 1.02978 10.033 0.616928C9.31434 0.204078 8.49827 -0.00889611 7.66951 0.000114267H1.73912C1.27788 0.000114267 0.835524 0.183343 0.509376 0.509491C0.183228 0.835638 0 1.27799 0 1.73923C0 2.20048 0.183228 2.64283 0.509376 2.96897C0.835524 3.29512 1.27788 3.47835 1.73912 3.47835H7.66951C7.87533 3.46954 8.07988 3.51465 8.26291 3.60922C8.44593 3.70378 8.60108 3.84451 8.71298 4.01748L11.5825 9.23483L13.0782 25.4434C13.2786 27.1216 14.108 28.6614 15.3989 29.7523C16.6899 30.8432 18.3465 31.404 20.0346 31.3216H38.0693C39.5606 31.3593 41.0231 30.9068 42.2325 30.0335C43.442 29.1602 44.3316 27.9143 44.7649 26.4869L48.5388 12.887C48.7247 12.2135 48.7508 11.5058 48.6149 10.8204C48.4791 10.135 48.185 9.49084 47.7562 8.93918ZM45.2171 11.9305L41.4432 25.5478C41.2081 26.2447 40.7506 26.8452 40.1411 27.2568C39.5315 27.6684 38.8036 27.8684 38.0693 27.826H19.9651C19.1521 27.8856 18.346 27.641 17.7033 27.1396C17.0605 26.6383 16.627 25.916 16.4868 25.113L15.1825 10.4348H43.6519C43.906 10.4323 44.1576 10.4855 44.389 10.5906C44.6203 10.6958 44.8258 10.8504 44.991 11.0435C45.0948 11.1638 45.1692 11.3065 45.2084 11.4604C45.2476 11.6143 45.2506 11.7752 45.2171 11.9305Z"/>
<path d="M20.8695 39.9998C22.7904 39.9998 24.3477 38.4426 24.3477 36.5216C24.3477 34.6006 22.7904 33.0434 20.8695 33.0434C18.9485 33.0434 17.3912 34.6006 17.3912 36.5216C17.3912 38.4426 18.9485 39.9998 20.8695 39.9998Z"/>
<path d="M38.2606 39.9998C40.1816 39.9998 41.7388 38.4426 41.7388 36.5216C41.7388 34.6006 40.1816 33.0434 38.2606 33.0434C36.3396 33.0434 34.7823 34.6006 34.7823 36.5216C34.7823 38.4426 36.3396 39.9998 38.2606 39.9998Z"/>
</g>
<defs>
<clipPath id="clip0_2066_2">
<rect width="49" height="40" fill="white"/>
</clipPath>
</defs>
</svg>
