<svg width="60" height="60" viewBox="0 0 60 60" fill="none" xmlns="http://www.w3.org/2000/svg">
<path d="M14.8039 0.303713C13.859 0.88864 13.724 1.30859 13.724 3.76828V5.973L11.9693 6.018C10.3795 6.07799 10.1095 6.12299 9.29959 6.51294C8.14473 7.08287 7.00487 8.22272 6.43495 9.37758L6 10.2775V30V49.7225L6.43495 50.6224C7.00487 51.7773 8.15973 52.9171 9.29959 53.4721C10.0945 53.862 10.3945 53.922 11.9693 53.967L13.724 54.027V56.2317C13.724 58.6914 13.859 59.1114 14.8039 59.6963C15.4788 60.1012 16.7687 60.1012 17.4436 59.6963C18.3885 59.1114 18.5234 58.6914 18.5234 56.2017V53.997H29.922H41.3206V56.2017C41.3206 58.6914 41.4556 59.1114 42.4005 59.6963C43.0754 60.1012 44.3652 60.1012 45.0401 59.6963C45.985 59.1114 46.12 58.6914 46.12 56.2317V54.027L47.8898 53.982C49.4646 53.922 49.7345 53.877 50.5444 53.4871C51.6993 52.9171 52.8391 51.7773 53.4091 50.6224L53.844 49.7225V30V10.2775L53.4091 9.37758C52.8391 8.22272 51.6993 7.08287 50.5444 6.51294C49.7345 6.12299 49.4646 6.07799 47.8898 6.018L46.12 5.973V3.76828C46.12 1.30859 45.985 0.88864 45.0401 0.303713C44.3652 -0.101236 43.0754 -0.101236 42.4005 0.303713C41.4556 0.88864 41.3206 1.30859 41.3206 3.78328V6.003H29.922H18.5234V3.78328C18.5234 1.84852 18.4934 1.51856 18.2235 1.08362C17.7735 0.363706 17.0986 0.00375082 16.1237 0.00375082C15.5688 0.00375082 15.1339 0.0937396 14.8039 0.303713ZM48.2197 10.9674C49.1646 11.2973 49.1196 10.3525 49.1196 29.97C49.1196 42.8834 49.0746 47.9378 48.9546 48.2977C48.6247 49.2426 49.5696 49.1976 29.922 49.1976C10.2745 49.1976 11.2193 49.2426 10.8894 48.2977C10.6494 47.5928 10.6494 12.4072 10.8894 11.7023C11.2193 10.7724 10.2595 10.8174 29.862 10.8024C42.8204 10.8024 47.8598 10.8474 48.2197 10.9674Z" fill="#035EA8"/>
<path d="M42.1155 13.5919C41.1856 14.1468 40.7207 15.0167 40.7207 16.2015C40.7207 18.0463 41.8756 19.2012 43.7203 19.2012C45.5651 19.2012 46.72 18.0463 46.72 16.2015C46.72 14.3568 45.5651 13.2019 43.7053 13.2019C42.9404 13.2019 42.6105 13.2769 42.1155 13.5919Z" fill="#035EA8"/>
<path d="M27.0726 16.4117C22.0182 17.5366 18.2537 20.9862 16.6489 25.9506C16.3039 27.0154 16.229 27.5703 16.154 29.3701C16.079 31.6198 16.199 32.6397 16.7539 34.3495C18.0287 38.339 21.3283 41.6986 25.2728 43.0784C28.1075 44.0533 31.737 44.0533 34.5717 43.0784C38.4112 41.7436 41.6658 38.489 43.0006 34.6495C43.9755 31.8148 43.9755 28.1853 43.0006 25.3506C41.4258 20.8362 37.5263 17.4466 32.7269 16.4267C31.482 16.1568 28.2424 16.1568 27.0726 16.4117ZM31.797 21.2261C35.8465 22.081 38.9211 25.8606 38.9211 30C38.9211 34.8594 34.7816 38.9989 29.9222 38.9989C25.7828 38.9989 22.0032 35.9243 21.1483 31.8748C20.5034 28.8152 21.3883 25.9206 23.608 23.6858C25.8427 21.4511 28.7374 20.5812 31.797 21.2261Z" fill="#035EA8"/>
<path d="M14.5188 41.1886C13.589 41.7435 13.124 42.6134 13.124 43.7982C13.124 44.5481 13.199 44.8931 13.499 45.388C14.0539 46.3329 14.9238 46.7979 16.1236 46.7979C17.3235 46.7979 18.1934 46.3329 18.7483 45.388C19.2733 44.4881 19.2733 43.1083 18.7483 42.2084C18.1934 41.2635 17.3235 40.7986 16.1087 40.7986C15.3437 40.7986 15.0138 40.8736 14.5188 41.1886Z" fill="#035EA8"/>
</svg>
