<svg width="500" height="500" viewBox="0 0 500 500" fill="none" xmlns="http://www.w3.org/2000/svg">
<g clip-path="url(#clip0_258_8)">
<path d="M187.418 38.2637C155.374 48.4237 122.548 67.9622 95.1929 92.9716C69.4012 117.199 28.7597 193.009 35.7938 204.732C44.391 218.018 60.8039 210.203 66.2749 189.883C74.8722 153.15 117.077 103.913 158.5 81.2485C239.001 36.7006 345.295 58.5837 400.786 130.486C425.796 164.092 427.359 179.723 406.257 179.723C397.66 179.723 390.626 183.63 390.626 188.32C390.626 200.043 452.369 273.508 461.748 273.508C471.127 273.508 492.229 224.271 497.7 189.101C502.39 162.529 501.608 161.747 478.943 165.655C457.84 168.781 453.933 165.655 437.52 135.175C404.694 73.433 329.663 31.2298 253.851 32.0113C228.059 32.0113 198.36 35.1375 187.418 38.2637Z"/>
<path d="M196.022 182.071C182.735 221.148 171.793 256.317 171.793 260.225C171.793 263.351 180.39 265.696 191.332 265.696C214.779 265.696 213.998 262.57 198.366 321.967C192.114 347.758 187.424 374.33 188.987 379.801C191.332 389.961 320.291 250.065 320.291 238.342C320.291 235.997 310.13 234.434 296.844 234.434C284.339 234.434 273.397 232.871 273.397 230.526C273.397 228.182 285.902 201.609 300.752 171.911C315.601 142.212 328.107 115.64 328.107 113.295C328.107 110.95 303.878 109.387 274.178 109.387H220.25L196.022 182.071Z"/>
<path d="M13.1362 268.043C-6.40303 329.003 -4.8399 338.382 22.515 334.474C42.0542 331.348 46.7436 335.256 62.3749 364.954C82.6957 402.468 116.303 431.385 169.45 454.832C198.368 467.336 216.344 469.681 260.893 467.336C321.855 463.428 362.497 446.235 404.702 407.157C430.493 382.93 471.135 307.12 464.101 295.397C455.504 281.329 438.309 290.708 433.62 311.809C426.586 343.071 372.657 403.25 332.797 424.351C283.559 450.142 210.873 447.798 160.071 419.662C120.993 397.779 78.0063 350.886 78.0063 330.566C78.0063 325.096 85.0404 320.406 93.6377 320.406C102.235 320.406 109.269 316.499 109.269 311.809C109.269 298.523 46.7436 226.621 35.8016 226.621C30.3307 226.621 20.1703 245.378 13.1362 268.043Z"/>
</g>
<defs>
<clipPath id="clip0_258_8">
<rect width="500" height="500" fill="white"/>
</clipPath>
</defs>
</svg>
