<svg width="500" height="500" viewBox="0 0 500 500" fill="none" xmlns="http://www.w3.org/2000/svg">
<path d="M242.999 0.958502C241.758 1.54261 237.669 4.0981 233.8 6.79961C218.686 17.2406 195.979 29.5069 177.36 37.3194C158.084 45.4239 125.812 55.0618 106.172 58.6394C97.0449 60.3187 72.3662 63.3853 64.1156 63.8234C53.9667 64.4805 50.6081 65.3567 47.1764 68.2773C41.4814 73.1692 41.8464 64.5535 42.1385 180.645C42.3575 284.033 42.3575 284.325 43.9638 292.722C46.9574 308.128 53.3826 328.717 59.0777 340.692C69.2266 362.158 83.8294 382.018 105.441 403.703C132.603 431.01 159.253 449.92 217.664 483.434C227.594 489.129 237.45 494.824 239.422 496.065C247.599 501.249 251.396 501.249 259.72 496.43C264.977 493.364 267.24 492.049 296.373 475.475C339.451 450.943 367.342 430.426 394.649 403.046C421.445 376.103 432.47 360.04 444.153 330.397C446.781 323.753 450.14 313.458 451.965 306.229C458.025 282.573 457.66 290.823 457.879 178.09C458.171 65.7948 458.536 74.0453 452.914 68.9344C451.308 67.4741 449.19 66.0138 448.168 65.6488C447.146 65.2107 438.238 64.1155 428.455 63.0933C397.278 59.8807 367.561 53.3824 338.502 43.3795C315.575 35.4941 291.408 23.4468 268.043 8.18687C262.713 4.75522 257.164 1.4696 255.558 0.958502C251.98 -0.355747 245.92 -0.282733 242.999 0.958502ZM257.456 33.4497C273.081 43.2335 294.62 54.5507 312.071 61.9981C342.225 74.9215 382.31 85.0704 420.204 89.4513L430.937 90.6925L431.448 110.698C431.74 121.723 431.813 162.173 431.594 200.578C431.156 274.76 431.156 274.249 427.432 294.547C425.096 307.032 422.686 314.553 417.21 326.308C411.442 338.939 406.696 346.971 399.322 356.901C375.447 388.954 345.146 413.925 290.531 446.343C280.456 452.33 267.24 460.215 261.034 463.939L249.79 470.656L240.225 465.034C234.968 461.968 222.118 454.374 211.677 448.241C151.659 413.048 119.533 385.814 95.1465 349.38C88.7213 339.889 86.2388 335.289 80.8358 322.657C75.1407 309.515 72.4392 299.366 69.7377 280.674C68.2774 270.818 68.2044 267.386 68.2044 180.865V91.2766L71.344 90.9115C73.0233 90.6925 78.7184 89.9624 83.9024 89.3052C113.254 85.8006 139.028 80.1055 163.122 71.7819C191.306 62.1441 222.045 47.4683 242.488 33.9608C246.431 31.4053 249.863 29.2149 250.082 29.2149C250.374 29.1419 253.66 31.1132 257.456 33.4497Z" fill="white"/>
<path d="M269.575 163.194C263.076 164.728 258.111 167.648 252.927 172.905C247.524 178.381 244.166 184.441 242.048 192.838C237.668 209.85 237.23 255.484 241.318 271.474C243.436 279.797 246.648 285.858 251.759 290.969C259.572 298.708 270.305 302.14 282.425 300.825C299.291 298.854 310.9 288.778 315.427 272.204C317.18 265.633 317.253 248.11 315.5 241.757C312.361 230.075 306.155 222.263 296.152 217.298C289.945 214.231 289.872 214.231 281.841 214.231C272.86 214.231 269.648 215.326 264.829 219.926C263.514 221.167 262.273 221.971 262.054 221.825C261.47 221.167 263.149 204.958 264.245 200.578C266.581 191.305 272.933 185.391 280.454 185.391C285.638 185.391 289.142 188.822 291.26 195.978C291.771 197.73 292.866 199.336 293.961 199.92C295.641 200.87 296.517 200.797 302.942 198.825C312.215 196.051 312.653 195.467 310.973 187.946C308.637 177.286 303.307 169.401 296.079 165.677C288.996 162.099 278.19 161.077 269.575 163.194ZM283.009 236.5C286.879 237.596 289.726 240.297 291.698 244.678C293.961 249.862 294.18 261.836 292.063 267.823C289.069 276.439 280.454 280.893 272.787 277.753C265.486 274.687 261.689 265.852 262.711 254.097C263.807 240.662 272.13 233.507 283.009 236.5Z" fill="white"/>
<path d="M353.032 163.195C350.404 163.706 346.607 165.021 344.49 166.043C337.042 169.693 330.252 179.112 328.208 188.896C327.185 193.861 327.185 204.667 328.208 209.632C329.668 216.568 334.268 224.235 338.868 227.374L341.35 228.981L337.553 231.463C332.296 234.822 328.5 239.933 326.528 246.212C324.411 253.002 324.192 267.094 326.163 274.468C330.982 292.43 342.81 300.826 363.546 300.972C377.492 301.045 385.085 298.344 392.679 290.677C400.272 283.084 403.412 273.957 403.412 260.231C403.412 246.358 400.272 238.326 391.876 230.66L387.86 227.009L391.876 223.359C397.863 217.883 399.907 212.845 400.272 202.185C400.637 192.109 399.761 187.217 396.33 180.353C393.409 174.585 387.86 168.963 382.165 166.043C374.571 162.173 362.816 161.005 353.032 163.195ZM371.87 185.902C372.892 186.706 374.571 188.896 375.594 190.94C377.127 194.007 377.419 195.54 377.419 201.454C377.419 212.553 374.863 217.371 368.292 218.978C360.188 220.949 353.982 217.809 351.864 210.727C350.55 206.346 350.404 196.124 351.572 192.62C352.667 189.407 356.318 185.537 359.165 184.661C362.524 183.639 369.679 184.296 371.87 185.902ZM370.994 239.495C376.981 241.758 379.974 248.256 379.974 258.989C379.974 269.868 378.003 274.76 372.308 277.681C368.657 279.579 360.334 279.725 356.975 277.973C350.842 274.687 348.578 269.576 348.578 259.062C348.578 244.752 353.251 238.764 364.422 238.691C366.905 238.691 369.826 239.057 370.994 239.495Z" fill="white"/>
<path d="M103.108 165.165C102.304 166.041 102.158 177.723 102.231 231.535C102.231 267.457 102.524 297.247 102.816 297.685C103.546 298.853 124.866 298.926 125.596 297.758C125.815 297.32 126.107 267.384 126.18 231.243C126.326 169.838 126.253 165.53 125.012 164.873C122.967 163.778 104.276 164.07 103.108 165.165Z" fill="white"/>
<path d="M145.964 165.896C145.307 166.991 144.942 168.378 145.161 169.035C145.38 169.693 145.599 198.679 145.599 233.434C145.599 278.629 145.818 296.883 146.403 297.613C147.498 298.927 167.504 299 168.818 297.686C169.475 297.029 169.694 290.384 169.694 272.131V247.452H180.281C198.388 247.452 207.807 244.532 215.985 236.354C228.324 224.015 231.026 201.819 222.264 184.66C219.562 179.403 212.188 172.613 206.055 169.693C197.585 165.677 192.474 164.947 168.526 164.436L147.206 163.998L145.964 165.896ZM190.722 188.676C195.249 190.063 199.119 193.203 201.309 197.365C202.55 199.701 202.915 201.6 202.915 206.199C202.915 213.063 201.309 216.713 196.928 220.364C192.839 223.723 188.312 224.818 178.31 224.818H169.694V206.199V187.581H178.31C184.005 187.581 188.239 187.946 190.722 188.676Z" fill="white"/>
</svg>
