<svg width="500" height="500" viewBox="0 0 500 500" fill="none" xmlns="http://www.w3.org/2000/svg">
<path d="M99.184 1.12674C96.1558 2.46477 93.7614 4.64787 92.2825 7.39435C90.8741 10.1408 90.8741 16.6197 92.353 19.4366C94.8178 24.1549 100.381 27.4648 106.085 27.4648H108.339V39.9296C108.409 58.169 109.536 84.0845 110.804 95.3521C112.283 109.155 114.818 120.915 118.902 133.239C129.254 164.648 146.79 189.577 187.001 230.352C197.212 240.634 205.522 249.366 205.522 249.789C205.522 250.141 198.48 257.746 189.888 266.62C159.043 298.451 146.015 314.225 132.635 336.268C123.268 351.69 118.409 363.31 115.099 378.169C110.804 397.676 109.114 415.563 108.55 448.38L108.128 472.535H105.945C100.522 472.535 94.7473 475.845 92.5642 480.211C89.0431 487.113 91.6487 495.141 98.5502 498.592C101.226 500 103.691 500 249.677 500C392.635 500 398.268 499.93 401.015 498.662C406.156 496.338 408.761 491.408 408.198 484.789C407.635 478.239 402.635 473.662 395.029 472.746L391.438 472.324V459.225C391.438 422.746 388.55 390.986 383.621 372.183C379.395 355.986 368.761 335.704 354.606 316.761C343.691 302.113 333.832 291.056 312.705 269.648L293.409 250L298.48 244.366C301.226 241.338 305.381 237.183 307.635 235.211C312.916 230.634 334.536 207.535 342.212 198.239C366.79 168.451 378.48 146.761 384.677 118.944C389.114 99.0845 390.592 83.5211 391.226 51.9014L391.649 27.4648H394.536C398.057 27.4648 402.423 25.4929 404.959 22.8169C410.945 16.4084 408.902 5.28167 401.156 1.47886L398.057 -1.71363e-05H249.818C119.043 0.0704054 101.367 0.21125 99.184 1.12674ZM366.508 48.0282C365.381 99.0845 361.437 121.479 349.536 145.634C339.114 166.69 326.649 182.254 292.353 216.901C271.79 237.817 271.085 238.592 269.959 242.606C268.198 248.451 268.832 254.437 271.649 260.211C273.55 264.084 277.283 268.169 296.226 287.465C321.297 313.028 330.874 324.014 340.381 338.38C360.733 368.944 365.452 388.592 366.578 447.394L367.001 472.535H249.888H132.776L133.268 451.549C134.043 417.817 135.311 401.901 138.409 388.028C143.621 364.155 152.705 346.268 171.297 322.887C179.536 312.535 187.635 303.803 206.93 284.155C216.508 274.437 225.24 265.141 226.437 263.38C229.325 259.084 230.874 254.296 230.874 249.366C230.874 240.986 230.592 240.634 207.353 216.549C195.663 204.507 182.705 190.775 178.55 186.056C150.592 154.296 139.959 130.563 135.452 89.5775C134.325 80 133.057 50.4929 132.987 35.7746V27.5352L138.128 27.2535C140.874 27.1831 193.55 26.9718 255.099 26.9014L367.001 26.7605L366.508 48.0282Z"/>
<path d="M235.734 40.5621C223.974 42.6748 210.946 48.2382 200.593 55.4917C190.523 62.6044 177.988 77.5339 173.129 88.2382C166.579 102.745 163.903 122.111 166.157 138.52C167.706 149.999 174.255 165.703 181.65 175.492C186.439 181.9 196.298 191.055 203.27 195.633C237.284 217.816 280.523 213.309 309.044 184.576C316.439 177.041 321.509 170.14 325.875 161.478C332.284 148.802 334.396 140.351 334.396 127.534C334.396 83.1677 305.593 47.8156 263.481 40.4917C256.086 39.2241 242.988 39.2241 235.734 40.5621ZM266.439 55.9846C273.551 57.7452 281.016 61.1255 287.917 65.5621C294.467 69.8579 306.016 81.6184 310.1 88.2382C318.974 102.745 322.284 124.506 317.988 140.985C314.748 153.449 308.903 164.013 300.241 173.168C283.199 191.125 257.354 198.731 232.988 192.956C225.664 191.196 213.199 185.21 206.931 180.421C195.453 171.759 186.439 158.379 181.861 143.309C180.1 137.534 179.889 135.985 179.889 124.999C179.819 114.647 180.03 112.252 181.439 107.041C185.593 91.6889 196.368 76.0551 208.692 67.6044C217.072 61.8297 232.284 55.8438 242.495 54.2945C248.551 53.3086 258.903 54.0832 266.439 55.9846Z"/>
<path d="M245.943 68.5917C244.746 69.155 243.549 70.0705 243.267 70.7748C243.056 71.4086 242.845 81.479 242.845 93.1691C242.845 113.592 242.774 114.507 241.436 115.352C239.535 116.549 237.211 121.338 237.211 124.085C237.281 127.254 239.464 131.831 241.788 133.662C244.394 135.704 248.76 136.831 252.07 136.268C254.535 135.845 255.873 136.479 271.577 145.352C281.859 151.268 289.112 154.93 290.31 154.93C295.239 154.93 298.267 147.606 294.817 144.155C293.901 143.24 286.155 138.451 277.493 133.451C264.676 125.986 261.718 124.014 261.436 122.535C260.662 119.014 259.535 116.831 257.563 115.141L255.521 113.451V92.3945C255.521 71.3381 255.521 71.3381 253.901 69.8593C251.788 67.8874 248.69 67.3945 245.943 68.5917Z"/>
<path d="M244.605 338.31C239.746 339.93 231.789 344.226 211.507 356.268C200.662 362.747 185.591 371.48 178.056 375.775C161.789 384.86 157.845 388.24 153.76 396.691C150.591 403.31 150.169 406.972 149.465 434.156C149.112 448.31 149.183 452.888 149.887 454.156L150.732 455.846L250.028 455.494C335.732 455.282 349.394 455.071 349.958 454.226C350.943 452.818 350.239 408.733 349.183 403.17C347.07 392.536 343.197 388.874 320.591 375.987C311.366 370.705 295.38 361.339 285.098 355.282C256.577 338.31 251.296 336.057 244.605 338.31Z"/>
</svg>
