<svg width="500" height="500" viewBox="0 0 500 500" fill="none" xmlns="http://www.w3.org/2000/svg">
<g clip-path="url(#clip0_259_38)">
<mask id="mask0_259_38" style="mask-type:luminance" maskUnits="userSpaceOnUse" x="0" y="0" width="500" height="500">
<path d="M500 0H0V500H500V0Z" fill="white"/>
</mask>
<g mask="url(#mask0_259_38)">
<path d="M243.073 54.7768C235.629 56.5893 229.867 61.5091 226.954 68.565C225.66 71.6074 225.66 73.9378 225.336 184.955L225.012 298.238L195.041 339.15L165.07 380.126H152.252C139.694 380.126 139.435 380.126 138.076 381.615C136.198 383.621 136.198 386.599 138.14 388.412C139.629 389.771 140.147 389.836 155.295 389.836H170.895L172.514 387.764C173.42 386.599 180.088 377.472 187.338 367.503C205.398 342.581 222.682 319.212 224.106 317.658C225.336 316.428 225.336 316.817 225.336 333.647V350.866L220.87 353.844C206.693 363.295 198.019 379.543 198.019 396.633C197.954 406.99 200.09 414.24 205.722 423.044C212.195 433.207 220.74 439.81 232.78 444.018C238.412 446.024 250.841 446.801 257.185 445.571C266.636 443.694 275.181 439.098 282.819 431.653C300.362 414.693 302.887 388.606 289.034 367.697C285.668 362.648 277.9 355.139 273.627 352.873L270.649 351.32V306.977V262.57L279.842 250.012C290.199 235.835 350.271 154.013 350.66 153.624C350.789 153.495 354.349 153.171 358.622 152.977C367.102 152.524 368.073 152.135 368.785 148.705C369.044 147.28 368.785 146.245 367.749 144.95L366.39 143.202H355.515C342.762 143.202 345.352 141.584 334.735 156.473C326.903 167.477 284.826 225.478 276.152 237.195C273.368 241.079 270.908 244.186 270.714 244.186C270.52 244.186 270.326 212.078 270.326 172.785C270.326 133.557 270.196 94.3288 270.002 85.5898C269.678 70.6364 269.614 69.6007 268.19 66.9467C264.823 60.6675 259.256 56.3304 252.589 54.7768C248.252 53.7411 247.41 53.7411 243.073 54.7768ZM250.064 68.7592C251.359 69.1476 253.301 70.4422 254.401 71.7369L256.408 74.0026V219.134V364.266H247.993L239.577 364.331V219.393C239.577 82.5474 239.642 74.3262 240.743 72.5137C241.325 71.4132 243.008 69.9891 244.432 69.3418C247.475 67.9177 247.087 67.9824 250.064 68.7592Z"/>
<path d="M130.89 222.954C127.459 225.284 126.1 227.55 125.776 231.499C124.805 243.216 138.334 248.135 144.872 238.425C147.785 234.088 146.426 226.32 142.283 223.342C139.241 221.141 133.738 220.947 130.89 222.954ZM139.435 227.809C140.988 229.557 141.377 232.211 140.535 234.8C139.305 238.49 135.745 239.526 132.962 236.936C130.955 235.059 130.825 229.945 132.767 228.003C134.386 226.385 138.011 226.32 139.435 227.809Z"/>
<path d="M165.653 222.436C158.856 224.313 154.649 228.909 151.994 237.389C150.829 241.208 150.57 243.474 150.57 251.63C150.57 262.053 151.282 266.26 153.872 271.504C156.137 275.97 158.921 278.883 162.934 280.825C166.106 282.379 166.948 282.508 172.126 282.249C175.816 282.055 178.535 281.537 180.024 280.825C182.937 279.336 186.303 276.1 187.662 273.64C188.828 271.309 190.381 265.16 189.863 264.642C189.669 264.448 187.274 264.253 184.62 264.253H179.636L178.729 266.972C176.723 272.669 169.99 274.417 165.718 270.338C162.546 267.296 161.704 263.153 162.028 251.048C162.222 242.244 162.481 240.173 163.582 237.713C165.394 233.829 167.077 232.469 170.443 232.081C174.392 231.628 177.435 233.764 178.729 237.907L179.7 240.949H185.008H190.381L189.993 238.813C188.18 228.521 182.419 222.889 172.58 221.918C170.249 221.724 167.53 221.918 165.653 222.436Z"/>
<path d="M440.253 223.02C437.081 225.091 435.527 228.133 435.527 232.147C435.527 243.928 449.963 247.877 455.206 237.52C457.86 232.341 455.659 224.832 450.804 222.502C447.762 221.013 442.777 221.272 440.253 223.02ZM449.574 228.133C451.193 230.464 450.934 234.866 448.992 236.743C447.244 238.555 446.273 238.685 443.878 237.649C440.835 236.225 440.123 230.658 442.648 227.81C444.202 226.127 448.345 226.321 449.574 228.133Z"/>
<path d="M476.049 222.178C472.36 222.955 470.159 224.185 467.375 227.162C462.196 232.535 460.125 239.785 460.125 252.279C460.125 268.074 463.815 276.618 472.36 280.826C475.532 282.38 476.373 282.509 481.552 282.25C487.896 281.927 491.003 280.697 494.434 277.072C496.699 274.676 498.835 270.404 499.483 266.65L499.936 264.254H494.434H488.996L488.608 266.132C487.507 271.44 481.163 274.223 476.632 271.375C472.942 269.109 471.777 265.355 471.453 254.998C471 241.857 472.489 235.707 476.697 233.182C481.228 230.399 486.471 232.535 488.154 237.908L489.125 240.95H494.563H500.001L499.548 238.296C498.447 231.564 494.369 225.997 488.802 223.602C485.241 222.048 479.739 221.466 476.049 222.178Z"/>
<path d="M94.837 223.665C86.9396 227.484 83.5734 237.712 84.415 255.837C84.8681 265.547 85.7744 269.625 88.4932 274.61C91.5356 280.177 95.5491 282.378 102.67 282.378C110.179 282.378 115.487 278.3 118.141 270.467C120.018 264.965 120.795 254.802 120.018 245.933C118.983 234.411 116.393 228.39 110.956 224.506C108.625 222.888 107.46 222.564 103.188 222.37C98.8505 222.111 97.6853 222.305 94.837 223.665ZM105.906 233.44C108.431 235.964 109.014 239.589 109.014 252.601C109.014 269.172 107.848 272.668 102.346 272.668C99.1741 272.668 97.5558 271.179 96.4554 267.36C95.2902 263.476 95.2902 240.172 96.3906 236.935C98.0737 232.145 102.864 230.397 105.906 233.44Z"/>
<path d="M406.718 223.017C398.043 226.188 394.418 236.352 395.13 255.772C395.778 274.479 400.956 282.377 412.543 282.377C425.231 282.377 430.539 273.638 430.539 252.6C430.539 235.575 427.238 227.03 419.211 223.405C416.233 222.046 410.019 221.851 406.718 223.017ZM416.169 233.503C418.887 235.769 419.535 239.459 419.535 252.47C419.47 268.783 418.369 272.149 413.191 272.537C410.99 272.732 410.213 272.408 408.918 271.049C408.077 270.142 407.171 268.589 406.976 267.618C406.135 263.734 405.811 246.32 406.523 240.948C407.106 236.093 407.43 235.251 409.177 233.633C411.637 231.432 413.709 231.432 416.169 233.503Z"/>
<path d="M62.8558 223.277C62.8558 223.601 58.4539 232.081 53.0811 242.244L43.3711 260.693L43.7595 265.354L44.2126 270.079H54.5052H64.7978V275.905V281.731H69.9765H75.1551V275.905V270.079H77.615H80.0101V265.872V261.664H77.615H75.1551V242.244V222.824H69.0055C65.6393 222.824 62.8558 223.018 62.8558 223.277ZM64.9273 249.688L64.7331 261.664H58.5834C55.1525 261.664 52.4985 261.47 52.6279 261.146C52.7574 260.887 55.3467 255.838 58.5187 249.947C61.6259 244.057 64.1505 238.878 64.1505 238.425C64.1505 238.036 64.3447 237.713 64.6683 237.713C64.9273 237.713 65.0567 243.086 64.9273 249.688Z"/>
<path d="M363.673 242.309L353.445 261.729L353.834 265.872L354.287 270.079H364.903H375.519V275.905V281.731H380.698H385.877V275.905V270.079H388.142H390.408V265.937V261.729L388.013 261.535L385.553 261.34V242.05V222.824H379.727L373.901 222.889L363.673 242.309ZM375.519 249.688V261.664H369.37C366.004 261.664 363.22 261.535 363.22 261.34C363.22 261.146 365.291 257.133 367.816 252.407C370.276 247.746 372.995 242.503 373.772 240.755C374.548 239.072 375.26 237.713 375.325 237.713C375.455 237.713 375.519 243.086 375.519 249.688Z"/>
<path d="M327.485 244.963L327.291 251.631H320.947H314.668V255.968V260.37H321.141H327.615V267.167V273.964H331.822H336.03V267.167V260.37H342.503H348.977V256.162V251.955H342.503H336.03V245.158V238.361H331.822H327.679L327.485 244.963Z"/>
<path d="M0.1942 254.283C0.323666 256.743 0.582599 258.685 0.906265 258.555C1.1652 258.491 9.06265 258.426 18.449 258.426H35.5385L35.7975 254.542L35.9917 250.658H26.2817C20.9736 250.658 12.8172 250.464 8.28585 250.205L0 249.816L0.1942 254.283Z"/>
</g>
</g>
<defs>
<clipPath id="clip0_259_38">
<rect width="500" height="500" fill="white"/>
</clipPath>
</defs>
</svg>
