<svg width="500" height="500" viewBox="0 0 500 500" fill="none" xmlns="http://www.w3.org/2000/svg">
<path d="M245.256 0.941833C242.246 1.87851 238.967 3.88574 226.322 12.7174C208.324 25.229 161.757 48.1781 127.969 61.2249C106.558 69.5213 90.0994 74.8739 69.7597 80.2264C55.91 83.9063 50.4237 86.315 47.6136 89.9948C43.8668 94.879 44.0006 91.8682 44.0006 178.178C44.0006 228.358 44.2682 261.209 44.7366 266.897C45.4725 276.33 48.3495 294.529 50.6913 304.632C57.5158 333.937 70.1612 360.165 89.7649 385.255C116.728 419.846 170.588 461.194 226.991 490.566L245.056 500H250.074H255.159L271.484 491.704C304.134 475.111 337.722 453.5 361.808 433.495C397.871 403.587 418.277 379.233 434.001 347.452C443.635 327.982 449.724 308.111 453.47 283.824C456.013 267.097 456.214 258.6 456.013 175.502L455.812 95.2136L454.006 92.1359C450.66 86.5157 446.178 84.0401 433.131 80.7617C408.643 74.6732 371.777 61.5594 342.071 48.3788C316.78 37.2054 287.876 21.6161 268.607 8.76993C255.159 -0.128693 252.148 -1.19919 245.256 0.941833ZM261.849 37.7406C282.724 50.9212 305.673 63.0983 332.704 75.476C363.213 89.3927 382.482 96.351 413.995 104.915C418.211 106.052 423.296 107.458 425.236 107.993L428.782 109.063L428.514 188.415C428.247 274.658 428.314 273.52 424.366 292.12C418.344 320.556 406.167 346.181 387.567 369.532C380.81 378.029 361.808 397.097 351.638 405.528C339.796 415.363 325.545 425.867 309.621 436.438C291.221 448.682 282.055 454.102 267.135 461.662C260.511 465.008 253.954 468.487 252.549 469.357L249.94 470.962L244.186 467.684C240.974 465.811 235.22 462.8 231.34 460.859C216.955 453.7 195.478 439.985 174.87 424.864C153.728 409.341 140.681 398.435 127.634 385.322C111.51 369.063 101.474 355.347 92.1066 336.68C83.2749 319.017 77.5878 300.751 73.908 277.535C72.436 268.636 72.436 267.365 72.436 188.616V108.729L87.49 104.915C123.218 95.8826 150.382 85.1776 197.418 61.6263C223.177 48.7802 242.781 37.2722 247.33 32.388C248.267 31.4514 249.338 30.6485 249.806 30.6485C250.207 30.6485 255.694 33.86 261.849 37.7406Z"/>
<path d="M221.705 94.5442C216.152 96.4845 212.605 101.837 212.605 108.26C212.605 113.077 214.077 116.423 217.557 119.5C226.656 127.462 240.907 120.571 240.907 108.26C240.907 98.0903 231.206 91.132 221.705 94.5442Z"/>
<path d="M290.887 105.919C289.816 106.454 287.14 110.335 283.661 116.423C273.491 134.354 239.569 190.824 238.967 191.024C238.632 191.091 232.811 184.066 225.987 175.368C209.528 154.359 210.598 155.497 207.654 155.497C204.376 155.497 202.302 157.571 202.302 160.916C202.302 162.321 202.703 174.498 203.239 188.014C203.707 201.529 203.975 212.769 203.841 212.903C203.64 213.104 193.27 211.297 180.825 208.888C168.313 206.547 154.33 203.937 149.713 203.201C145.097 202.465 140.012 201.529 138.339 201.194C131.113 199.588 126.965 201.127 126.965 205.409C126.965 208.219 127.835 209.424 131.782 212.635C133.722 214.174 140.012 219.727 145.699 225.013C151.386 230.232 159.548 237.525 163.764 241.138C179.353 254.519 185.174 259.738 185.174 260.206C185.174 260.474 172.528 273.052 157.14 288.173C141.751 303.361 128.771 316.608 128.303 317.679C127.166 320.489 128.504 323.567 131.381 324.771C133.388 325.574 134.525 325.373 147.773 321.626C155.668 319.419 167.644 315.806 174.469 313.665C181.293 311.524 191.062 308.647 196.147 307.308C201.298 305.97 205.848 304.699 206.383 304.498C207.119 304.231 207.253 310.721 207.253 342.702V381.307L208.926 382.913C210.799 384.853 214.211 385.121 216.352 383.649C217.088 383.114 219.832 379.434 222.441 375.42C240.907 347.118 249.204 334.339 253.753 326.912L259.039 318.415L262.117 320.623C263.789 321.827 272.688 328.25 281.854 334.874C291.087 341.498 303.197 350.263 308.885 354.344C317.248 360.499 319.523 361.837 321.463 361.837C324.273 361.837 327.685 358.827 327.685 356.217C327.685 354.745 322.266 340.628 310.758 311.992C304.937 297.473 302.194 290.113 302.461 289.846C302.595 289.712 308.215 288.574 315.04 287.236C321.798 285.965 330.094 284.292 333.372 283.556C336.718 282.821 348.962 280.546 360.67 278.538C372.379 276.531 382.549 274.591 383.218 274.19C386.63 272.316 387.5 268.034 385.025 265.157C383.686 263.551 380.007 262.481 349.765 254.853C313.434 245.62 307.546 244.015 307.814 243.279C307.881 243.011 312.364 237.993 317.783 232.038C323.203 226.15 327.886 220.53 328.087 219.527C328.689 217.252 327.217 214.576 324.741 213.438C323.136 212.635 320.995 212.836 307.413 214.977C298.849 216.315 291.087 217.586 290.151 217.787C288.612 218.055 288.411 217.921 288.612 216.583C288.746 215.713 290.218 202.465 291.89 187.211C293.63 171.956 295.369 156.567 295.905 153.088C297.243 143.989 300.254 116.222 300.254 112.944C300.254 106.722 295.637 103.309 290.887 105.919ZM268.406 200.324C267.469 208.353 266.533 219.259 266.332 224.478L265.93 234.045L268.874 236.989C273.424 241.472 278.308 242.275 285.133 239.666C286.136 239.264 286.069 239.666 284.53 242.141C281.185 247.427 282.323 255.523 286.939 258.935C289.147 260.607 298.782 263.819 306.008 265.224L311.962 266.428L307.613 266.964C305.205 267.298 298.38 268.436 292.359 269.573C280.65 271.848 278.71 272.718 277.104 276.598C275.565 280.345 276.033 282.754 280.583 294.462C284.397 304.164 284.932 305.97 284.263 307.375L283.527 309.048L277.371 304.097C266.599 295.667 260.712 291.652 258.37 291.184C255.225 290.582 251.478 291.251 249.404 292.79C248.468 293.459 243.583 300.885 238.565 309.249L229.332 324.503L229.265 310.587C229.265 302.893 228.998 294.061 228.73 290.983C228.329 285.497 228.195 285.296 225.652 283.155C221.37 279.408 218.962 279.141 209.929 281.282C203.306 282.821 193.203 284.828 191.731 284.895C191.463 284.895 195.21 280.813 200.094 275.795C211 264.622 212.271 262.213 210.531 255.79C209.996 253.783 208.524 251.843 204.242 247.761C201.165 244.817 196.882 241.071 194.608 239.398C192.4 237.725 190.593 236.186 190.526 235.986C190.526 235.785 191.262 235.183 192.199 234.714C193.671 233.912 195.076 234.045 203.774 235.919C209.193 237.123 214.613 238.06 215.817 238.06C218.828 238.06 222.909 235.852 224.783 233.243C226.255 231.168 226.322 230.566 226.188 221.333C225.987 212.501 226.121 211.765 226.991 212.97C233.213 221.065 238.833 223.14 245.39 219.794C248.735 218.189 248.936 217.854 259.909 200.257C266.466 189.753 269.543 185.203 269.945 185.538C270.079 185.605 269.343 192.229 268.406 200.324Z"/>
<path d="M147.706 138.436C143.625 140.108 141.216 144.524 142.019 148.94C142.353 150.947 144.294 153.222 152.59 161.652C158.21 167.339 163.563 172.357 164.567 172.893C166.908 174.097 171.324 174.097 173.733 172.893C177.279 171.019 178.952 166.737 177.881 162.589C177.346 160.716 174.736 157.705 166.641 149.609C154.597 137.633 152.657 136.495 147.706 138.436Z"/>
<path d="M351.17 163.793C346.754 166.603 335.848 177.843 334.711 180.854C331.901 188.214 339.193 195.641 347.021 193.366C348.694 192.831 351.839 190.288 357.258 185.069C366.358 176.171 367.495 173.963 365.555 168.811C364.016 164.93 361.273 162.923 356.857 162.656C354.247 162.455 352.909 162.722 351.17 163.793Z"/>
<path d="M165.838 344.576C159.014 346.516 155.267 354.21 158.01 360.7C159.215 363.644 163.229 367.056 166.106 367.592C175.272 369.264 182.833 361.771 180.491 353.207C178.751 346.717 172.061 342.769 165.838 344.576Z"/>
</svg>
