<svg width="500" height="500" viewBox="0 0 500 500" fill="none" xmlns="http://www.w3.org/2000/svg">
<path d="M241.991 29.0349C235.965 30.473 230.076 33.8969 225.145 38.8958C221.105 42.9359 217.818 48.3457 188.51 99.1563C98.8036 254.875 49.6364 340.13 24.7104 383.203C12.8637 403.678 2.52357 422.167 1.77031 424.29C0.0583642 429.22 -0.489459 437.301 0.469232 442.573C2.93444 455.995 14.0963 467.773 27.7235 471.334C31.1474 472.224 58.8125 472.361 249.798 472.361C489.813 472.361 471.05 472.704 480.02 468.184C482.623 466.883 486.183 464.212 488.854 461.473C499.537 450.859 502.824 435.726 497.482 422.441C496.592 420.318 485.636 400.87 473.104 379.231C419.007 286.033 392.643 240.563 348.063 163.183C322.042 117.988 295.952 72.6554 290.131 62.5206C280.818 46.1544 278.969 43.4153 274.45 38.8273C265.205 29.4458 254.043 26.0904 241.991 29.0349ZM255.07 60.3293C255.824 61.1511 267.328 80.9412 280.613 104.292C313.071 161.129 384.22 284.184 427.361 358.003C458.039 410.389 470.981 433.397 470.981 435.383C470.981 437.643 468.859 440.519 466.188 441.889C464.476 442.779 437.77 442.916 249.798 442.916C61.5516 442.916 35.1876 442.779 33.4071 441.889C30.9419 440.656 28.6137 437.369 28.6137 435.246C28.6137 434.424 31.9006 428.124 35.8723 421.345C47.4451 401.829 111.472 291.374 142.493 237.482C202.342 133.464 240.484 67.3826 242.744 63.8902C246.853 57.3848 251.304 56.1522 255.07 60.3293Z"/>
<path d="M240.622 150.447C230.213 153.871 223.16 162.431 220.969 174.14C220.49 176.948 221.38 189.685 225.488 235.497C228.365 267.271 231.446 302.057 232.405 312.808C234.254 333.694 234.665 335.475 238.431 338.625C241.581 341.295 244.457 342.254 249.113 342.254C253.838 342.254 256.646 341.295 259.933 338.488C263.494 335.543 264.179 333.42 265.206 322.19C269.725 275.145 277.943 182.837 277.943 179.276C278.011 170.169 274.656 162.362 268.219 156.336C263.083 151.611 258.289 149.694 250.483 149.42C246.032 149.214 243.704 149.488 240.622 150.447Z"/>
<path d="M241.513 361.974C234.254 364.439 227.817 370.123 224.53 377.107C222.955 380.531 222.75 381.764 222.75 388.475C222.75 395.323 222.887 396.35 224.667 399.911C228.571 407.922 234.871 412.99 243.636 415.25C255.551 418.263 268.767 411.62 274.382 399.774C275.957 396.487 276.163 395.117 276.163 388.749C276.163 381.832 276.094 381.353 273.561 376.354C270.548 370.191 266.576 366.288 260.207 363.343C254.592 360.673 247.128 360.125 241.513 361.974Z"/>
</svg>
