<svg width="501" height="318" viewBox="0 0 501 318" fill="none" xmlns="http://www.w3.org/2000/svg">
<g clip-path="url(#clip0_2236_2)">
<path d="M4.17498 153.243C9.35589 150.125 22.8263 164.675 26.971 177.147C32.1519 192.736 36.2967 189.618 50.2851 159.998C65.8279 126.741 120.227 71.6585 160.639 47.7547C229.027 7.74193 310.885 -8.36713 377.719 5.14369C441.962 18.6545 520.712 76.3353 495.844 91.4051C492.735 93.4837 479.265 86.7282 465.794 76.855C393.261 23.851 301.041 19.6938 203.122 64.9031C144.06 92.4444 70.4907 167.793 58.5746 213.522L54.9479 226.513L65.8279 212.483C80.8525 192.736 96.9133 193.256 96.9133 213.002C96.9133 229.631 42.5138 317.451 32.1519 317.451C17.6454 317.451 12.4645 300.823 9.87398 241.583C8.31971 208.326 5.72925 183.902 4.17498 187.02C2.10261 190.138 0.54834 184.422 0.54834 174.029C0.54834 164.156 2.10261 154.802 4.17498 153.243Z" fill="#035EA8"/>
</g>
<defs>
<clipPath id="clip0_2236_2">
<rect width="501" height="318" fill="white"/>
</clipPath>
</defs>
</svg>
