<svg width="501" height="318" viewBox="0 0 501 318" fill="none" xmlns="http://www.w3.org/2000/svg">
<g clip-path="url(#clip0_2236_4)">
<path d="M496.922 153.243C491.741 150.125 478.27 164.675 474.126 177.147C468.945 192.736 464.8 189.618 450.812 159.998C435.269 126.741 380.869 71.6585 340.458 47.7547C272.07 7.74193 190.212 -8.36713 123.378 5.14369C59.1346 18.6545 -19.6152 76.3353 5.25312 91.4051C8.36167 93.4837 21.832 86.7282 35.3024 76.855C107.835 23.851 200.055 19.6938 297.975 64.9031C357.037 92.4444 430.606 167.793 442.522 213.522L446.149 226.513L435.269 212.483C420.244 192.736 404.183 193.256 404.183 213.002C404.183 229.631 458.583 317.451 468.945 317.451C483.451 317.451 488.632 300.823 491.223 241.583C492.777 208.326 495.367 183.902 496.922 187.02C498.994 190.138 500.548 184.422 500.548 174.029C500.548 164.156 498.994 154.802 496.922 153.243Z" fill="#035EA8"/>
</g>
<defs>
<clipPath id="clip0_2236_4">
<rect width="501" height="318" fill="white"/>
</clipPath>
</defs>
</svg>
