<svg width="600" height="600" viewBox="0 0 600 600" fill="none" xmlns="http://www.w3.org/2000/svg">
<path d="M107.37 37.5264C94.9623 40.256 85.7809 49.9337 88.2623 57.8744C89.0068 60.8522 102.655 76.2373 118.288 92.1186L146.825 121.152L145.336 133.063C141.862 158.87 138.388 168.3 130.944 174.751C124.492 180.211 121.266 180.955 103.647 180.955H83.5476L53.2737 151.177C36.6479 134.8 21.2628 121.4 19.2776 121.4C12.8258 121.4 5.13329 129.092 2.40368 138.274C-1.31852 151.674 -0.574078 182.692 3.64441 199.566C15.8036 245.721 54.0181 283.191 100.67 294.11C116.551 297.832 129.207 297.832 160.225 294.358C164.443 294.11 196.454 324.632 294.224 421.905C365.194 492.131 427.727 552.927 433.186 556.649C446.834 565.582 465.693 567.567 484.8 562.108C503.908 556.401 521.03 540.023 527.233 521.164C532.196 505.779 531.452 483.942 525.248 472.279C523.015 468.309 494.23 438.035 460.978 405.031C408.371 352.672 399.438 344.732 392.986 344.732C383.06 344.732 369.66 349.446 369.66 352.921C369.66 354.409 398.197 384.187 433.186 419.176C467.926 453.916 497.704 484.686 499.193 487.168C500.682 489.649 501.178 497.094 500.682 504.042C498.2 528.856 471.4 543.497 449.812 531.338C445.593 529.104 382.068 467.564 308.616 394.609L174.865 262.347L163.699 264.332C157.495 265.325 141.366 266.317 127.718 266.317C104.392 266.566 101.662 266.069 86.5253 258.625C66.9217 248.947 46.8219 228.599 38.3849 209.988C32.1813 196.34 26.2257 171.277 28.4591 168.796C29.2035 168.051 38.3849 175.992 49.0552 186.414C59.4774 196.836 70.6439 206.514 73.6217 208.003C81.0661 211.725 120.77 211.229 132.184 207.259C155.262 198.822 166.18 182.94 172.136 148.944C177.595 116.685 174.369 106.759 149.058 80.7039L132.681 63.8299L145.088 65.567C166.677 68.5447 184.543 78.2224 201.913 96.5853C227.224 123.633 234.172 148.944 228.217 191.377L224.991 214.207L259.98 248.451C279.335 267.31 296.209 282.695 297.698 282.695C301.42 282.695 305.39 273.266 305.887 262.595C306.135 253.414 304.894 251.429 281.072 227.358L256.009 202.047L258.243 188.399C263.206 160.855 255.513 121.648 240.376 97.826C222.013 68.2966 194.221 47.7004 162.21 39.5116C141.862 34.3005 124.492 33.5561 107.37 37.5264Z" fill="#035EA8"/>
<path d="M419.289 40.7523C393.73 47.9485 374.623 59.1151 354.523 79.2149C313.579 120.159 300.924 173.262 318.79 230.088C328.22 260.858 328.468 265.325 322.512 292.373C316.309 319.917 317.053 328.602 326.483 332.821C333.431 336.046 337.153 335.302 369.908 323.391L389.016 316.443L412.093 322.398C459.241 334.806 498.944 328.85 535.918 303.787C587.036 269.047 610.61 207.01 595.473 147.703C583.314 100.059 551.8 64.078 506.141 45.467C492.493 39.7597 485.545 38.5189 461.474 38.0226C441.374 37.2782 428.967 38.2708 419.289 40.7523ZM479.341 67.0558C501.426 71.7706 518.548 81.4483 535.918 99.0667C560.733 123.881 570.411 147.703 570.659 183.436C570.659 218.177 559.492 244.232 534.678 267.31C500.433 299.321 462.715 307.262 413.582 292.621C394.723 286.913 393.73 286.913 376.36 290.884C366.434 292.869 356.508 295.35 354.275 296.343C350.553 297.832 350.305 297.088 352.29 289.643C357.005 274.01 355.02 250.436 347.327 223.388C342.364 206.266 339.883 192.122 339.883 181.203C339.883 131.822 370.901 88.6445 418.049 72.2668C441.623 63.8299 458 62.5891 479.341 67.0558Z" fill="#035EA8"/>
<path d="M441.623 106.511C429.96 118.174 441.871 141.748 457.256 137.778C479.093 132.318 477.852 104.03 455.767 102.045C449.315 101.548 445.345 102.789 441.623 106.511Z" fill="#035EA8"/>
<path d="M425.245 158.126C420.778 161.103 418.793 170.533 421.771 175.992C423.756 179.466 426.982 180.955 432.937 180.955H441.623V208.251C441.623 233.066 441.126 235.547 437.156 235.547C431.449 235.547 424.252 242.992 424.252 248.947C424.252 251.181 425.493 255.399 426.734 258.129C428.967 262.347 432.193 262.843 452.789 262.843C479.837 262.843 483.311 261.851 486.537 253.414C489.515 245.721 483.559 235.547 476.363 235.547C471.648 235.547 471.4 233.81 471.4 200.559C471.4 181.451 470.159 163.585 468.919 160.855C466.685 156.885 463.459 156.14 447.082 156.14C436.66 156.14 426.734 157.133 425.245 158.126Z" fill="#035EA8"/>
<path d="M449.564 483.694C438.397 494.116 441.127 509.997 455.271 516.449C466.934 521.66 481.327 510.493 481.327 495.853C481.327 488.408 470.408 478.731 461.971 478.731C458.249 478.731 452.542 480.964 449.564 483.694Z" fill="#035EA8"/>
</svg>
