<svg width="600" height="600" viewBox="0 0 600 600" fill="none" xmlns="http://www.w3.org/2000/svg">
<g clip-path="url(#clip0_2234_10)">
<path d="M69.3893 1.67552C53.5409 5.59209 41.6091 15.2469 34.7778 29.5469C29.9504 39.6571 29.5861 44.9399 30.2237 92.3941C30.4969 115.438 30.7702 179.834 30.7702 235.576V336.861L45.6167 321.741L60.3721 306.712L60.8275 175.826L61.283 44.8488L64.0154 40.4768C65.9282 37.4711 68.2963 35.2851 71.6664 33.3724L76.5849 30.5488L252.375 30.822L428.165 31.0042L432.81 33.4635C435.543 34.9208 438.548 37.5622 440.188 39.8393L442.92 43.8469L443.649 68.075C444.013 81.4641 444.195 125.548 444.104 165.989L443.831 239.675L446.564 239.129C454.488 237.489 470.336 234.939 472.158 234.939H474.344V139.939C474.344 35.3762 474.435 37.8354 468.697 26.9966C464.325 18.7991 455.216 9.96406 446.928 5.95642C433.448 -0.419386 447.474 -0.0550542 252.102 0.0360287C87.2416 0.0360287 75.4008 0.218194 69.3893 1.67552Z" fill="#035EA8"/>
<path d="M219.403 81.0998C215.669 81.5552 208.473 82.9215 203.373 84.1056C131.053 101.593 89.7011 176.555 113.292 247.326C115.842 254.886 121.762 267.455 125.861 273.922C127.136 276.017 128.229 277.93 128.229 278.294C128.229 278.568 106.643 300.61 80.3196 327.206C53.7234 354.075 31.6813 377.119 30.6794 379.032C26.1252 387.958 31.2259 400.71 41.245 405.355C45.8902 407.541 52.0839 407.541 56.7291 405.355C59.1883 404.171 76.0387 387.958 108.1 355.806L155.827 307.987L161.748 312.086C176.048 321.832 197.361 330.12 215.213 332.944C227.236 334.766 249.552 334.31 260.299 331.942C311.033 320.83 347.284 284.397 358.851 233.026C361.766 219.728 361.766 195.227 358.851 181.473C350.471 142.581 324.604 109.427 290.175 93.0317C268.224 82.6482 242.994 78.3673 219.403 81.0998ZM249.552 111.157C270.683 114.072 295.002 127.734 308.573 144.22C324.148 163.074 331.526 183.204 331.617 207.159C331.708 235.121 321.689 258.62 301.56 277.839C276.603 301.611 242.811 310.082 208.018 301.338C198.727 299.061 182.423 291.137 174.681 285.217C157.285 272.01 144.442 252.336 138.886 230.476C136.062 219.09 136.062 195.045 138.886 184.206C143.349 167.629 151.182 153.146 162.385 141.215C185.429 116.804 215.578 106.33 249.552 111.157Z" fill="#035EA8"/>
<path d="M486.185 260.897C478.807 263.175 452.302 280.845 443.74 289.133C439.186 293.596 439.004 294.052 436.727 303.706C432.082 323.289 430.351 335.221 430.26 346.515C430.169 362.91 429.258 361.817 459.68 385.226C474.618 396.702 477.988 400.345 477.988 404.717C477.988 408.27 474.435 414.736 466.693 425.12C447.293 451.17 416.598 480.863 390.275 499.17C382.259 504.726 377.705 505.546 372.878 502.267C371.512 501.356 363.223 492.339 354.57 482.32C336.536 461.189 334.077 459.458 324.058 459.458C319.321 459.549 316.498 460.187 310.395 462.828C294.638 469.477 265.218 483.049 262.759 484.779C259.024 487.33 256.656 491.702 251.464 505C244.178 523.672 242.629 529.41 242.538 538.245C242.538 544.985 242.903 546.625 245.18 550.996C248.823 558.01 264.763 573.585 276.239 581.145C314.221 606.466 341.272 606.284 391.914 580.598C425.342 563.657 450.845 544.985 481.084 515.474C511.324 485.872 530.542 460.278 547.666 426.668C563.241 396.247 571.803 368.375 571.803 348.428C571.803 327.934 562.148 304.071 543.932 279.478C534.732 267.091 529.814 264.541 508.227 261.444C493.198 259.258 491.741 259.167 486.185 260.897Z" fill="#035EA8"/>
<path d="M56.2735 431.769C54.5429 432.315 48.076 432.953 41.8824 433.317L30.6792 433.955L30.7703 456.999C30.7703 469.751 31.2257 482.229 31.7722 484.779C34.3225 496.802 43.8862 509.736 54.3608 515.383C66.2015 521.668 60.7366 521.303 143.531 521.577L218.401 521.941L218.492 518.935C218.492 517.296 219.676 510.465 220.951 503.816L223.502 491.793H150.089H76.6761L71.6665 489.242C68.4786 487.694 65.8372 485.417 64.0155 482.866L61.2831 478.859L61.0098 454.813C60.8276 441.606 60.4633 430.767 60.099 430.858C59.7346 430.949 58.0041 431.314 56.2735 431.769Z" fill="#035EA8"/>
</g>
<defs>
<clipPath id="clip0_2234_10">
<rect width="600" height="600" fill="white"/>
</clipPath>
</defs>
</svg>
