<svg width="600" height="600" viewBox="0 0 600 600" fill="none" xmlns="http://www.w3.org/2000/svg">
<path d="M446.826 150.675L312.972 284.259L324.201 284.529C330.4 284.619 338.126 284.439 341.36 284.08L347.289 283.361L392.566 238.893C417.45 214.458 468.297 163.88 505.488 126.419C542.77 88.9579 573.583 58.3242 574.033 58.3242C574.482 58.3242 574.841 82.0406 574.841 116.268V174.211H560.018H545.195L542.051 177.086C538.009 180.769 537.11 185.171 539.356 189.843C541.872 195.143 544.028 195.772 560.467 195.772H574.841V220.836V245.99L560.018 246.259L545.195 246.529L542.411 249.314C537.649 254.165 537.47 261.531 542.051 265.843C544.746 268.359 551.125 269.347 565.678 269.347L574.841 269.437V294.141V318.846H561.186C545.465 318.846 542.231 319.744 539.626 325.134C537.559 329.267 537.559 332.95 539.805 336.633C542.68 341.395 546.004 342.203 561.366 342.203H574.841V366.908V391.612H559.928H545.016L542.051 394.577C540.344 396.284 538.727 398.799 538.368 400.147C537.38 404.01 539.716 409.579 543.309 412.005C546.184 413.981 547.262 414.071 560.557 414.071H574.841V457.461C574.841 481.358 575.111 505.254 575.47 510.464L576.009 520.077H533.607H491.115L491.474 532.204L491.744 544.332H541.422C596.222 544.332 594.695 544.512 598.198 538.672C599.995 535.798 599.995 532.114 599.995 281.295C599.995 4.60278 600.354 23.1088 595.054 18.9764C593.078 17.3594 591.371 17 586.609 17L580.68 17.0899L446.826 150.675Z" fill="#035EA8"/>
<path d="M24.6009 61.0192C14.4496 64.3431 5.10673 73.5961 1.69299 83.9272C-0.103708 89.3173 -0.103708 91.0241 0.0759618 265.394L0.345467 441.471L2.68118 446.412C7.53228 456.563 15.7971 464.019 25.679 467.074C31.0691 468.691 34.0336 468.87 60.8943 468.87H90.1806L104.105 454.946L118.029 440.932L76.1663 441.111C37.4474 441.201 34.1235 441.111 31.8776 439.674C26.4875 436.081 26.8468 448.298 26.8468 264.496C26.8468 81.861 26.5773 91.9225 31.6979 88.5986C33.9438 87.0714 42.9273 86.9816 173.727 86.7121C307.671 86.4426 313.421 86.4426 316.026 88.0596C317.463 88.9579 319.44 90.7546 320.338 92.192C321.865 94.5277 321.955 98.3906 321.596 165.408C321.416 205.654 321.596 236.198 322.045 236.198C322.494 236.198 328.783 230.269 336.059 222.992L349.355 209.696V150.854C349.355 87.0714 349.355 87.3409 344.324 78.0879C341.18 72.2486 333.813 65.511 327.076 62.1871L321.955 59.6717L175.973 59.492C33.9438 59.3124 29.8114 59.4022 24.6009 61.0192Z" fill="#035EA8"/>
<path d="M94.852 138.457C90.2704 139.445 87.1262 141.152 83.7125 144.746C77.8732 150.765 78.0528 147.98 78.0528 228.921C78.1427 287.763 78.4122 302.855 79.3105 305.64C81.1971 310.761 84.7905 314.893 89.4619 317.139L93.774 319.295H169.685H245.595L251.614 316.331C259.43 312.558 265.629 305.73 268.324 298.004C270.3 292.345 270.3 292.165 270.3 223.172V153.999L268.054 149.327C265.718 144.207 259.879 139.625 254.669 138.727C249.818 138.008 98.4454 137.738 94.852 138.457ZM242.271 228.472L242.451 291.895H175.075C138.063 291.895 107.429 291.985 107.07 292.075C106.62 292.255 106.261 263.508 106.081 228.202L105.902 164.06L173.907 164.509L242.002 164.959L242.271 228.472Z" fill="#035EA8"/>
<path d="M316.565 315.791C295.454 320.283 278.026 337.172 270.12 360.619L268.054 366.908V415.419V463.93H259.071C248.919 463.93 246.404 464.918 243.349 470.038C241.643 472.733 241.553 474.8 241.553 503.726C241.553 536.965 241.553 537.055 246.494 541.637C248.829 543.793 249.279 543.883 265.449 544.332L281.979 544.781L282.248 559.155C282.428 570.923 282.697 574.067 284.045 576.403C288.177 584.039 300.934 584.039 305.066 576.403C306.324 574.067 306.683 570.743 306.953 558.885L307.312 544.332L355.014 544.512L402.807 544.781L403.256 559.604C403.525 569.486 404.064 575.145 404.873 576.493C407.927 581.793 416.372 583.68 421.942 580.266C426.883 577.212 427.691 573.798 427.332 558.167L427.062 544.422L443.861 544.152C460.301 543.883 460.661 543.883 463.086 541.637C467.758 537.235 467.937 536.067 467.937 503.906C467.937 476.417 467.847 473.901 466.23 470.847C463.445 465.457 459.942 463.93 450.24 463.93H441.975L441.705 415.419C441.346 367.447 441.346 366.818 439.28 360.619C435.956 350.647 431.284 342.562 424.547 335.286C414.216 324.326 403.525 318.037 390.859 315.612C381.246 313.815 325.459 313.995 316.565 315.791ZM392.027 344.09C399.393 346.785 406.939 354.151 411.072 362.685L414.485 369.513L414.755 416.946L415.024 464.379H354.745H294.466L294.735 417.395C295.005 374.364 295.184 370.142 296.711 366.009C300.485 355.948 309.109 346.605 317.463 343.64C320.338 342.652 327.884 342.293 354.026 342.293C385.379 342.203 387.265 342.293 392.027 344.09ZM440.807 492.677C441.616 492.946 441.885 496.36 441.885 505.254V517.381L355.014 517.202L268.054 516.932L267.785 505.344C267.695 498.875 267.695 493.216 267.874 492.767C268.234 491.778 438.202 491.689 440.807 492.677Z" fill="#035EA8"/>
<path d="M145.788 450.993C106.441 490.251 73.1118 523.85 71.6745 525.646C66.2844 532.294 67.7217 539.93 74.8187 543.434C78.5918 545.23 79.9393 545.23 147.944 545.23H217.297V532.653V520.076H164.744C135.817 520.076 112.19 519.897 112.19 519.627C112.19 519.358 137.883 493.395 169.325 461.953C200.768 430.421 227.988 402.842 229.784 400.686C232.569 397.182 233.018 396.104 233.018 391.972C233.018 387.66 232.659 386.851 229.694 383.886C226.999 381.191 225.652 380.473 221.789 380.113L217.118 379.664L145.788 450.993Z" fill="#035EA8"/>
</svg>
