<svg width="600" height="600" viewBox="0 0 600 600" fill="none" xmlns="http://www.w3.org/2000/svg">
<path d="M262.666 15.0486C208.357 41.7854 150.427 57.939 94.1682 62.3951C64.6463 64.6232 57.1265 67.4083 50.9993 78.5486C46.8217 86.6254 46.5432 97.7657 47.3787 196.079C48.4927 302.47 48.7712 305.255 55.734 331.156C74.6726 400.505 110.879 460.106 164.909 511.351C203.622 547.836 263.502 588.777 293.024 598.525C301.657 601.31 304.442 600.753 322.267 591.562C425.315 539.759 503.019 452.586 535.605 352.323C551.48 303.027 552.315 294.672 552.315 182.989V80.4982L545.074 73.257C538.111 66.5727 534.212 65.4587 499.12 61.8381C431.164 54.8754 383.817 41.2284 331.736 13.3775C317.811 5.85777 303.328 -0.26943 299.708 0.00907943C296.087 0.00907943 279.655 6.69329 262.666 15.0486ZM321.989 46.7986C370.171 71.0289 432.278 88.8535 486.587 94.4236C502.462 95.8162 516.388 97.2087 517.78 97.2087C522.236 97.2087 520.844 259.301 516.109 290.215C500.234 394.935 433.671 486.007 324.774 551.457L302.493 564.825L285.504 556.191C247.905 537.531 198.331 499.933 170.758 469.854C126.754 421.393 95.5607 360.957 84.1419 301.077C78.2932 270.72 78.5717 97.2087 84.1419 97.2087C86.37 97.2087 102.523 95.2592 120.07 93.0311C174.379 86.0684 227.295 69.9149 271.578 47.3556C283.554 41.2284 294.973 36.2153 296.923 35.9368C298.872 35.9368 310.013 40.6714 321.989 46.7986Z" fill="#035EA8"/>
<path d="M336.749 248.718L271.3 314.167L237.6 282.139C211.977 258.465 201.673 250.389 196.381 250.389C187.469 250.389 179.113 261.529 181.898 269.606C183.848 276.29 256.539 347.031 265.451 351.209C270.743 353.437 273.806 352.88 281.326 348.424C286.339 345.082 320.874 311.939 358.195 274.897C428.936 203.599 432.278 198.865 420.581 188.281C408.883 177.698 404.706 180.761 336.749 248.718Z" fill="#035EA8"/>
</svg>
