<svg width="600" height="600" viewBox="0 0 600 600" fill="none" xmlns="http://www.w3.org/2000/svg">
<path d="M51.2587 3.4146C42.3077 7.44256 34.9231 15.946 32.2378 25.1208C30.8951 29.8201 30 131.638 30 296.337V559.72L37.6084 568.224L45.2167 576.504L185.3 577.175L325.384 577.622L318.894 568.224C315.314 562.853 311.733 556.364 311.062 553.455L309.496 548.532H183.062H56.8531L57.3006 288.281L57.9719 28.2537H206.783H355.593L356.712 76.3654C358.055 131.638 359.174 136.337 375.286 143.722C383.565 147.302 390.278 147.974 430.111 147.974H475.313V235.917V323.861L486.949 328.337C493.439 330.574 499.481 332.812 500.376 333.26C501.271 333.707 502.166 287.386 502.166 230.323C502.166 135.89 501.719 126.044 498.362 119.554C492.32 108.813 387.593 7.44256 378.195 3.63838C367.006 -1.06091 61.7761 -1.28468 51.2587 3.4146ZM459.649 118.211C459.649 118.435 442.642 118.883 421.607 118.883H383.565V81.736V44.5893L421.607 81.0647C442.642 100.981 459.649 117.764 459.649 118.211Z" fill="#035EA8"/>
<path d="M118.391 151.106C114.14 157.596 115.93 167.218 121.748 170.351C124.209 171.694 158.671 172.589 206.783 172.589H287.565L292.936 166.994C299.426 160.729 299.873 157.596 294.95 150.659L291.593 145.736H206.783H121.748L118.391 151.106Z" fill="#035EA8"/>
<path d="M119.734 218.687C114.139 225.847 113.916 228.309 118.615 234.798L121.972 239.721H264.74C400.125 239.721 407.733 239.498 411.09 235.693C415.789 230.547 416.013 224.057 411.761 218.239C408.628 214.211 404.152 213.987 266.531 213.316L124.433 212.868L119.734 218.687Z" fill="#035EA8"/>
<path d="M120.629 287.833C117.496 290.742 115.035 294.77 115.035 296.784C115.035 298.798 117.496 302.826 120.629 305.735L126 311.33H262.279C355.593 311.33 400.796 310.658 405.719 308.868C417.132 304.84 418.027 289.847 406.838 284.924C402.81 282.91 362.754 282.239 263.622 282.239H126L120.629 287.833Z" fill="#035EA8"/>
<path d="M423.845 358.546C403.481 362.127 376.181 376.896 360.516 392.56C311.51 441.567 311.286 516.979 359.845 565.539C384.013 589.706 410.195 600 446.894 600C513.355 600 569.299 545.175 569.299 480.056C569.299 461.931 562.138 434.63 553.187 418.966C544.684 404.196 524.544 383.385 509.775 374.882C484.041 359.665 451.593 353.623 423.845 358.546ZM467.034 386.294C486.502 391.217 501.719 400.169 514.474 413.147C552.74 452.98 551.173 508.923 510.894 547.413C459.201 596.643 375.062 574.713 355.593 507.133C352.684 497.735 352.013 488.56 352.684 473.567C353.356 455.889 354.475 450.742 360.74 438.434C373.048 413.147 396.768 393.903 424.069 386.518C439.957 382.266 451.369 382.266 467.034 386.294Z" fill="#035EA8"/>
<path d="M468.152 451.637C458.977 461.259 447.789 473.119 443.313 478.042L435.481 486.993L424.292 476.476C418.027 470.658 410.418 465.287 407.062 464.392C399.229 462.378 392.516 468.644 392.516 478.266C392.516 484.308 394.978 487.665 408.852 500.196C426.53 516.084 433.691 519.888 440.628 517.203C443.089 516.308 458.082 502.21 473.747 486.098C498.809 460.14 502.166 455.665 502.166 448.952C502.166 441.119 495.9 434.406 488.516 434.406C486.502 434.406 477.327 442.238 468.152 451.637Z" fill="#035EA8"/>
<path d="M165.384 425.231C159.119 428.14 150.168 436.868 136.07 453.651C124.881 467.077 115.035 479.385 114.14 480.951C111.231 485.651 117.273 497.063 123.315 498.406C131.818 500.644 135.846 497.511 156.881 472.448C167.846 459.469 178.587 448.728 180.825 448.28C184.405 447.385 184.629 448.728 183.286 461.931C181.272 480.28 184.629 491.469 193.356 495.944C204.993 501.986 221.105 498.854 228.937 489.455C231.398 486.77 236.545 485.875 252.657 485.875C275.258 485.875 280.629 483.189 280.629 471.777C280.629 460.812 276.153 459.021 247.734 459.021C225.58 459.021 221.105 459.693 215.734 463.497L209.244 468.196L210.587 452.756C212.154 434.63 209.692 428.588 198.951 424.113C188.657 419.861 176.126 420.308 165.384 425.231Z" fill="#035EA8"/>
</svg>
