<svg width="600" height="600" viewBox="0 0 600 600" fill="none" xmlns="http://www.w3.org/2000/svg">
<path d="M293.902 1.04623C292.145 1.70537 285.334 5.58695 278.889 9.68824C245.126 31.22 208.581 49.9688 172.328 64.4698C139.152 77.7257 102.24 87.8325 70.1623 92.5197C61.3738 93.7647 57.8584 95.2295 54.5627 98.9646C49.5826 104.604 49.8023 102.26 50.1685 161.802C50.5347 216.364 50.8276 223.322 53.9768 253.276C60.3485 313.477 73.7509 362.473 96.4545 408.905C126.628 470.498 173.427 520.738 246.225 569.661C259.92 578.816 285.846 594.928 291.998 598.004C297.052 600.64 302.325 600.64 307.744 598.15C316.679 593.976 353.957 570.174 372.193 556.991C410.496 529.234 444.845 496.424 469.086 464.419C482.708 446.403 497.283 422.161 506.803 401.655C530.386 350.828 541.957 301.393 547.67 226.544C549.208 206.623 550.013 109.657 548.768 104.75C547.743 101.088 544.374 96.9872 540.712 95.1562C539.248 94.4239 532.656 92.9591 526.138 91.8605C457.222 80.8017 392.407 55.0954 321.659 10.6403C314.629 6.17285 307.525 1.99832 305.913 1.26594C302.325 -0.345278 298.223 -0.418515 293.902 1.04623ZM328.617 50.4082C366.92 73.0385 400.536 88.6381 440.67 102.187C461.909 109.438 481.683 114.125 515.299 120.057L520.279 120.936L519.913 168.247C519.547 218.415 519.034 228.521 515.299 258.402C508.268 315.381 496.257 358.078 475.678 399.311C461.762 427.288 444.405 451.749 422.361 474.379C392.773 504.7 363.112 529.454 332.279 549.521C319.609 557.797 300.933 569.148 300.054 569.148C298.004 569.075 265.926 548.642 250.985 537.803C205.505 504.846 172.768 473.867 150.43 442.594C118.792 398.286 101.728 356.614 89.6434 294.289C82.2465 256.352 79.9761 225.299 79.9761 161.656V120.863L88.2519 119.618C127.434 113.685 172.182 99.8434 212.902 81.0214C236.411 70.1823 269.881 52.0194 291.193 38.5438L299.981 33.051L307.671 37.8114C311.919 40.4479 321.366 46.1604 328.617 50.4082Z" fill="#035EA8"/>
<path d="M276.399 124.451C272.883 125.477 268.636 130.164 266.878 134.851C265.193 139.245 263.436 148.619 262.63 157.188C262.191 161.656 261.825 162.754 260.287 163.926C259.334 164.732 258.163 165.391 257.796 165.391C257.43 165.391 253.695 167.075 249.447 169.126L241.831 172.861L233.775 167.075C222.496 159.019 217.223 156.016 212.829 155.064C209.24 154.259 208.801 154.332 205.725 156.163C201.184 158.726 170.937 188.973 169.619 192.122C167.275 197.835 168.154 200.398 177.894 215.925C182.875 223.907 185.365 228.521 185.145 229.474C184.559 232.037 178.7 245.586 177.968 246.025C177.528 246.318 172.914 247.197 167.568 248.149C149.185 251.225 144.352 253.056 141.715 257.816C140.543 260.014 140.397 262.65 140.397 284.914C140.397 308.716 140.47 309.668 141.935 311.646C144.791 315.527 149.698 317.432 163.027 319.922C169.912 321.167 176.283 322.558 177.235 323.071C178.407 323.657 179.945 326.22 182.216 331.64C183.973 335.887 185.438 339.842 185.438 340.575C185.438 341.234 182.289 346.727 178.334 352.659C174.452 358.591 170.717 364.816 169.985 366.427C168.154 370.382 168.227 374.63 170.131 377.779C172.182 381.148 201.916 410.809 205.212 412.86C208.068 414.544 211.73 414.837 215.538 413.592C216.93 413.153 223.375 409.198 229.966 404.804C236.558 400.41 242.124 396.821 242.417 396.821C242.783 396.821 245.639 398.066 248.788 399.677C252.011 401.215 255.819 402.9 257.284 403.339C261.532 404.731 262.117 405.902 263.436 415.716C264.754 425.969 267.244 434.685 270.027 438.713C273.542 443.913 274.202 444.059 296.832 444.279C319.462 444.572 324.442 444.059 327.592 441.056C331.693 437.101 335.575 424.724 336.746 411.468C337.039 408.685 337.405 406.195 337.698 405.829C338.211 405.023 355.788 396.821 356.96 396.821C357.326 396.821 361.647 399.677 366.481 403.119C382.227 414.471 388.012 416.449 395.116 412.86C398.559 411.102 423.533 386.787 427.707 381.148C429.758 378.365 430.417 376.754 430.637 373.678C431.076 368.478 430.49 367.233 421.409 352.952L413.792 341.014L416.941 332.811C418.626 328.344 420.31 324.316 420.676 323.803C421.409 322.924 428.513 321.167 442.355 318.53C450.85 316.919 455.757 314.502 457.661 310.913C458.833 308.79 458.979 306.08 458.979 283.889C458.979 260.233 458.906 259.135 457.515 257.157C455.318 254.155 448.946 251.298 441.402 249.98C437.814 249.321 431.662 248.076 427.854 247.197C420.09 245.366 420.896 246.245 416.429 235.479C414.744 231.451 413.938 228.448 414.231 227.423C414.451 226.471 417.307 221.93 420.603 217.316C430.197 203.767 432.614 197.981 430.563 193.148C429.977 191.683 422.288 183.407 412.4 173.374C394.091 154.918 392.48 153.746 386.987 154.771C383.472 155.431 377.613 158.653 366.407 166.343L357.399 172.568L348.098 168.174C343.045 165.757 338.65 163.56 338.358 163.267C337.991 162.974 337.259 159.166 336.673 154.771C335.282 145.104 333.89 139.538 331.473 134.045C329.203 128.992 327.299 126.795 323.49 125.037C320.854 123.792 318.51 123.719 299.688 123.719C288.19 123.719 277.717 124.085 276.399 124.451ZM309.502 160.045C313.53 185.165 314.189 186.117 330.155 191.61C335.721 193.514 342.605 196.37 345.388 197.981C348.171 199.593 351.467 201.497 352.712 202.156C355.568 203.767 361.281 203.84 364.284 202.302C366.334 201.277 374.976 194.759 382.886 188.314L385.889 185.897L392.553 192.196C396.288 195.638 399.291 198.714 399.291 198.934C399.291 199.227 396.288 203.401 392.7 208.235C380.762 224.2 380.249 226.398 386.328 238.042C388.525 242.217 391.894 249.687 393.798 254.74C397.387 264.042 399.511 267.85 402.513 269.754C405.223 271.585 415.257 273.782 423.459 274.368L431.149 274.881L431.369 284.475L431.589 294.069L423.679 294.875C413.279 296.046 405.077 298.024 401.635 300.294C398.412 302.418 397.46 304.249 393.432 315.161C391.821 319.555 389.184 325.414 387.5 328.124C384.058 333.983 382.446 338.231 382.446 341.527C382.446 344.822 385.889 351.194 393.066 361.228L399.364 369.943L392.7 376.681L385.962 383.418L375.562 375.875C369.923 371.7 364.137 367.746 362.746 367.087C358.791 365.182 353.298 366.061 347.439 369.65C341.214 373.385 336.38 375.509 327.225 378.512C315.361 382.466 313.53 385.03 310.747 402.68C309.868 408.099 308.989 413.446 308.77 414.544L308.33 416.595H299.615C294.855 416.595 290.9 416.375 290.9 416.009C290.826 412.127 286.359 389.863 285.187 387.666C282.844 383.052 280.866 381.734 271.492 378.512C266.658 376.827 258.968 373.531 254.428 371.115C240.586 363.718 238.608 364.084 223.228 376.241L213.708 383.785L206.97 376.607L200.232 369.43L207.116 359.836C218.688 343.651 219.054 341.453 212.609 328.783C210.485 324.609 207.263 317.505 205.505 313.037C200.305 299.928 197.449 298.097 178.92 295.973L167.861 294.728V284.621V274.515H171.523C176.649 274.515 190.711 272.464 194.373 271.146C199.866 269.241 201.33 267.044 205.725 254.521C207.116 250.419 210.046 243.608 212.243 239.361C214.367 235.113 216.344 230.279 216.637 228.595C217.296 224.347 215.026 219.879 206.75 208.747C203.015 203.767 200.085 199.373 200.232 199.08C200.818 197.322 212.829 185.971 213.561 186.41C214.001 186.703 218.102 189.706 222.643 193.075C240.293 206.038 239.487 205.964 255.819 197.762C262.557 194.32 269.295 191.463 272.444 190.731C281.013 188.607 284.968 184.799 287.165 176.596C287.824 174.106 290.826 154.845 290.9 152.721C290.9 152.428 294.781 152.208 299.615 152.208H308.257L309.502 160.045Z" fill="#035EA8"/>
<path d="M286.725 217.682C259.847 222.809 238.608 242.29 231.431 268.436C229.161 276.858 229.161 292.897 231.504 301.612C234.946 314.649 241.245 325.195 251.059 334.569C266.585 349.363 286.872 356.174 308.111 353.611C324.589 351.633 338.211 345.115 349.856 333.544C364.577 318.97 371.534 299.928 369.85 278.543C367.799 251.445 346.047 225.885 319.096 218.781C311.553 216.803 294.488 216.218 286.725 217.682ZM312.139 245.952C328.251 250.419 340.481 265.506 341.873 282.717C343.704 305.787 323.93 326.586 300.054 326.513C280.207 326.44 263.216 313.257 258.675 294.435C256.551 285.5 258.089 274.588 262.557 266.165C271.712 249.028 292.584 240.459 312.139 245.952Z" fill="#035EA8"/>
</svg>
