<svg width="600" height="600" viewBox="0 0 600 600" fill="none" xmlns="http://www.w3.org/2000/svg">
<path d="M4.00024 43.2355C0.235308 47.2358 0 67.9429 0 292.662C0 534.794 0 537.853 4.70616 542.559C9.41232 547.265 12.4713 547.265 167.069 547.265H324.725L313.43 533.147L302.371 519.028H165.422H28.237V291.956V64.8839H163.304H298.606L299.312 110.769C300.253 171.478 295.782 167.008 355.315 167.949L400.024 168.655V204.892V241.13L406.612 237.835C410.142 235.953 416.495 233.364 420.731 231.717L428.261 229.129V190.774C428.261 169.831 427.084 149.595 425.908 145.595C423.554 139.006 336.255 52.1772 322.607 43.2355C316.96 39.2353 304.959 39 162.127 39C15.5303 39 7.52986 39.2353 4.00024 43.2355ZM378.846 134.77L384.729 140.182H355.786H327.078V112.651V85.1204L350.138 107.239C362.61 119.475 375.552 131.711 378.846 134.77Z" fill="#035EA8"/>
<path d="M79.2987 170.302C74.1219 175.949 74.3572 185.597 79.534 190.303C83.5342 193.833 92.9465 194.303 166.598 194.303C246.367 194.303 249.662 194.068 254.133 189.597C256.721 187.009 258.839 182.773 258.839 180.185C258.839 177.596 256.721 173.361 254.133 170.773C249.662 166.302 246.367 166.066 166.363 166.066C88.711 166.066 82.8283 166.302 79.2987 170.302Z" fill="#035EA8"/>
<path d="M79.299 238.541C74.3575 243.953 74.1222 254.072 79.0637 258.778C82.1227 262.072 93.4175 262.543 167.069 262.543H251.544L255.074 257.366C260.016 250.307 259.78 244.659 254.133 239.012C249.662 234.541 246.368 234.306 166.363 234.306C88.7113 234.306 82.8286 234.541 79.299 238.541Z" fill="#035EA8"/>
<path d="M416.966 272.19C414.377 274.779 411.789 281.132 410.848 286.073C409.671 293.368 407.789 296.192 402.377 299.015C395.553 302.545 394.847 302.31 386.611 296.662C381.199 293.133 374.375 290.78 369.198 290.78C361.904 290.78 358.845 292.897 344.02 308.192C324.96 327.723 324.019 331.017 332.019 349.607C336.726 360.666 336.726 361.137 332.725 368.196C329.666 373.608 326.607 375.491 321.901 375.491C318.372 375.491 312.724 378.079 308.959 381.138C302.841 386.55 302.371 387.727 301.665 411.022C300.723 441.141 302.841 446.318 317.43 449.848C327.549 452.201 336.49 459.966 336.49 466.319C336.49 467.967 334.137 474.085 331.549 479.732C324.49 494.321 326.607 500.674 345.903 519.499C364.257 537.618 369.669 539.03 386.14 530.558C399.788 523.735 408.024 527.264 411.554 541.618C416.26 559.737 419.554 561.384 450.379 561.384C472.263 561.384 478.146 560.678 481.205 557.384C486.146 552.677 489.441 543.971 489.441 536.677C489.441 532.206 491.323 530.323 498.382 528.205C506.383 525.852 508.736 526.323 517.207 530.558C533.443 538.794 537.679 537.618 556.974 518.322C576.269 499.027 577.681 494.321 568.975 478.791C562.386 466.79 564.974 455.495 575.328 452.201C591.329 447.495 594.859 445.377 597.447 439.965C601.212 431.259 600.741 395.492 596.506 387.491C593.211 380.903 582.858 375.491 573.681 375.491C570.857 375.491 568.033 372.431 565.445 366.784C562.151 358.548 562.151 357.372 566.857 347.959C575.093 331.017 573.916 327.252 554.621 307.957C534.855 288.427 528.502 286.544 513.677 296.427C506.618 301.368 504.5 301.839 499.088 299.486C490.617 295.956 487.087 291.015 487.087 283.25C487.087 279.72 484.97 274.543 482.381 271.955C478.146 267.719 474.616 267.249 449.438 267.249C424.025 267.249 420.966 267.719 416.966 272.19ZM462.38 303.722C464.027 314.781 468.263 319.252 480.028 322.311C483.323 323.252 490.852 326.076 496.97 328.9L508.03 333.841L517.913 327.488L527.796 320.899L534.62 327.958L541.679 334.782L535.796 345.842L529.914 356.901L537.443 373.843C547.326 396.668 547.091 396.198 559.562 399.727L570.622 403.022V414.552V426.082L560.504 427.494C555.091 428.2 549.679 429.847 548.503 431.023C547.326 432.2 542.855 441.612 538.855 451.73C531.09 470.32 531.09 470.32 535.326 478.085C537.679 482.556 540.502 486.085 541.679 486.085C545.914 486.085 543.091 492.674 535.326 500.204L527.325 507.969L518.619 501.38L510.148 494.792L497.912 498.792C491.323 500.91 481.205 505.145 475.322 507.969C465.674 512.675 464.498 514.087 462.615 524.205L460.498 535.5H449.203H438.143L436.261 524.44C434.143 513.381 433.908 513.146 416.495 504.439C395.317 494.086 391.552 493.85 380.493 501.145L372.257 506.792L364.963 499.263C360.962 495.027 357.668 491.027 357.668 490.086C357.668 489.144 360.492 483.968 363.786 478.791L369.669 469.378L364.963 459.495C362.374 454.083 359.551 446.789 358.609 443.024C356.492 434.318 347.079 427.258 337.196 427.258H329.196L329.902 413.846L330.608 400.198L339.549 398.786C350.609 396.904 353.197 394.55 361.198 376.196L367.551 361.607L362.139 348.43L356.727 335.253L364.021 327.958L371.551 320.664L380.964 327.017L390.376 333.606L412.024 324.664C423.79 319.722 433.673 314.781 434.143 313.369C434.614 311.957 435.555 306.781 436.496 301.839C437.908 293.133 437.908 293.133 449.203 293.133H460.733L462.38 303.722Z" fill="#035EA8"/>
<path d="M424.496 356.43C413.201 361.607 399.554 374.549 393.906 385.373C388.494 395.727 386.847 419.964 390.612 433.141C394.377 446.789 408.731 463.025 423.084 469.849C436.262 476.438 460.028 477.143 473.205 471.496C523.09 449.848 524.502 379.02 475.323 356.901C461.44 350.548 437.909 350.312 424.496 356.43ZM459.322 380.197C475.323 384.667 487.794 405.61 483.794 421.375C479.794 437.376 458.145 450.789 441.909 447.259C431.791 444.906 419.319 432.906 416.496 422.787C412.025 406.316 423.084 384.903 438.379 380.432C448.498 377.608 449.439 377.608 459.322 380.197Z" fill="#035EA8"/>
<path d="M81.4163 307.487L75.2983 312.193V386.079C75.2983 453.848 75.5336 460.202 79.5339 464.908L83.7694 470.32L157.891 469.849L231.778 469.614L237.19 463.496C242.367 457.613 242.367 456.907 242.367 385.844V314.075L236.484 308.428L230.837 302.545H159.303C90.3581 302.545 87.5344 302.78 81.4163 307.487ZM214.13 386.079V441.377H158.833H103.535V386.079V330.782H158.833H214.13V386.079Z" fill="#035EA8"/>
</svg>
