<svg width="200" height="201" viewBox="0 0 200 201" fill="none" xmlns="http://www.w3.org/2000/svg">
<path d="M83.7715 1.58287C61.9044 4.72115 43.6693 13.9118 28.2338 29.7527C14.8412 43.4266 7.19905 56.6522 2.35653 74.5852C0.162261 83.0287 0.0109322 83.9253 0.0109322 99.0189C-0.0647322 111.647 0.237926 115.981 1.37289 121.062C5.91276 141.535 14.2358 156.629 29.3687 171.498C41.8534 183.678 52.1437 190.178 67.8063 195.633C89.749 203.329 115.778 202.507 137.493 193.541C170.71 179.867 193.485 150.95 199.235 115.084C200.37 108.06 200.219 92.6677 198.933 84.822C195.831 65.7681 188.113 49.1054 175.704 34.5348C160.647 16.9007 140.444 5.76724 116.459 1.88175C109.043 0.686218 91.4136 0.536777 83.7715 1.58287ZM122.133 7.0375C135.148 10.0263 143.471 13.5382 154.291 20.6367C161.252 25.1947 172.602 36.1039 178.125 43.576C185.237 53.3645 192.577 70.4756 194.847 82.9539C196.436 91.3974 196.209 112.469 194.544 120.165C189.323 143.702 176.158 164.026 157.015 178.298C133.332 195.857 102.082 201.536 74.0864 193.391C39.2051 183.229 13.8575 156.704 5.38311 121.435C4.02115 115.682 3.79415 112.469 3.79415 99.3926C3.79415 84.5231 3.86982 83.7759 6.21542 75.1083C10.8309 58.296 20.1377 42.4552 32.244 30.7988C39.2051 24.0739 42.9883 21.3092 51.3871 16.5271C60.3155 11.5208 68.2603 8.60664 78.0966 6.81333C89.6733 4.64643 90.2786 4.57171 102.839 4.94531C111.389 5.09475 116.156 5.6178 122.133 7.0375Z" fill="#035EA8"/>
<path d="M87.8573 48.582C82.6365 53.5136 77.8696 57.5485 77.1886 57.5485C76.5833 57.5485 75.4483 56.7266 74.7674 55.6805C72.0434 51.4961 68.6385 53.5883 60.3911 64.4975L54.6406 72.1191L98.753 72.3432C122.966 72.418 142.941 72.3432 143.092 72.1938C143.319 72.0444 140.974 68.7566 137.947 64.8712C128.262 52.6169 127.657 52.2433 123.495 55.6805C122.285 56.7266 120.923 57.5485 120.469 57.5485C120.015 57.5485 115.475 53.5136 110.405 48.582C103.444 41.7077 100.796 39.6155 99.2826 39.6155C97.7694 39.6155 94.9698 41.7824 87.8573 48.582Z" fill="#035EA8"/>
<path d="M42.8375 80.4133C41.7025 81.1605 41.1729 82.2813 41.1729 83.9252C41.1729 86.9887 42.0052 88.1842 45.1074 89.6039C47.3017 90.65 47.68 91.2478 48.2096 94.9091C48.588 97.1508 50.0256 105.37 51.4632 113.141C53.2792 123.004 53.8845 127.487 53.2792 128.085C52.9008 128.459 50.9336 129.057 48.8906 129.281L45.3344 129.654V134.511V139.368L51.9929 139.592L58.5757 139.816L59.408 137.724C61.8292 131.448 63.6452 128.832 66.8988 126.89C77.9458 120.24 91.187 124.274 94.2136 135.333C95.3486 139.293 95.4242 139.368 98.5265 139.592C101.326 139.816 101.704 139.667 101.704 138.247C101.704 136.08 104.353 131.223 106.774 128.907C116.459 119.791 130.987 122.78 136.661 135.034L138.78 139.742H144.303C151.416 139.742 152.475 138.994 152.551 133.913C152.627 131.821 152.4 129.804 152.173 129.505C151.87 129.281 150.432 129.057 148.995 129.131C146.044 129.281 144.076 127.712 144.53 125.769C144.682 125.022 146.044 117.848 147.481 109.853C148.919 101.858 150.357 94.3861 150.584 93.2653C150.811 92.0697 152.097 90.5753 153.989 89.3798C156.561 87.6612 156.939 87.0634 156.939 84.4482C156.939 78.9189 160.269 79.2177 99.0561 79.2177C50.9336 79.2177 44.3508 79.3672 42.8375 80.4133Z" fill="#035EA8"/>
<path d="M74.3141 129.281C68.1853 131.074 65.3857 134.885 65.3857 141.535C65.3857 145.869 67.126 149.232 70.9092 151.996C73.7088 154.014 79.989 154.089 83.5452 151.996C86.5718 150.352 89.5984 145.047 89.5984 141.535C89.5984 136.081 85.4368 130.85 79.9133 129.281C76.7354 128.459 77.0381 128.459 74.3141 129.281ZM79.308 138.696C80.0646 138.995 80.5186 140.041 80.5186 141.311C80.5186 144.001 77.946 145.346 75.6004 143.852C71.5902 141.311 74.6925 136.977 79.308 138.696Z" fill="#035EA8"/>
<path d="M117.972 129.281C111.843 130.551 108.136 135.856 108.665 142.506C109.271 149.306 113.962 153.49 120.696 153.416C127.581 153.341 132.727 148.036 132.727 141.012C132.727 133.839 125.085 127.786 117.972 129.281ZM123.344 140.115C124.025 142.955 123.193 144.225 120.62 144.225C118.88 144.225 118.123 143.777 117.442 142.357C116.383 139.966 117.745 138.247 120.696 138.247C122.361 138.247 122.966 138.695 123.344 140.115Z" fill="#035EA8"/>
</svg>
