<svg width="200" height="200" viewBox="0 0 200 200" fill="none" xmlns="http://www.w3.org/2000/svg">
<path d="M87.4115 0.362044C80.169 1.23694 70.0001 3.57 64.0744 5.75723C31.5196 18.0058 6.49993 48.0439 1.08631 81.5815C-0.230511 89.3827 -0.376825 105.058 0.793686 113.078C7.59728 161.999 46.8826 197.87 95.7514 199.911C125.014 201.078 151.497 190.725 171.249 170.456C185.442 155.875 193.562 141.074 198.025 121.9C199.707 114.755 199.927 112.13 200 100.975C200 82.1648 197.513 71.2286 189.392 54.6785C179.882 35.285 165.031 20.2659 145.937 10.9337C130.428 3.35127 119.893 0.653676 103.506 0.0704119C97.8729 -0.075404 90.6304 -0.00249604 87.4115 0.362044ZM121.064 6.04887C159.325 15.0165 186.612 42.6487 194.66 80.7796C196.781 90.4034 196.927 107.537 195.025 117.598C191.587 136.263 183.174 152.667 169.786 166.738C146.083 191.673 110.675 201.588 75.4138 193.204C65.8302 190.871 51.4914 184.163 43.5173 178.112C23.5455 163.02 10.6699 143.116 5.47573 119.202C3.57365 110.526 3.20787 91.7887 4.671 82.6752C7.96307 62.8442 16.5956 46.4399 31.3733 31.6396C44.8342 18.1516 61.5871 8.89228 77.9011 5.97596C81.5589 5.31979 85.1436 4.59071 85.9484 4.44489C86.7531 4.22617 93.4835 4.22617 100.946 4.29908C111.626 4.44489 115.87 4.80943 121.064 6.04887Z" fill="#035EA8"/>
<path d="M92.1666 50.7412C89.533 52.4181 86.753 54.3137 85.9483 55.0428C84.7046 56.2093 78.7789 57.6675 72.8532 58.2507C71.5364 58.3966 69.8538 60.0734 65.9765 65.2499C65.0254 66.4164 62.5381 68.2391 60.4897 69.1869L56.6855 70.8638L49.5161 86.1745C42.7857 100.61 42.4199 101.631 42.4199 106.224C42.4199 114.317 43.9562 116.358 48.5651 114.463C51.6377 113.15 55.0761 113.078 57.2708 114.171C58.1487 114.682 60.1971 116.504 61.8797 118.327C66.6349 123.649 67.147 122.847 67.4396 109.724L67.6591 98.7147L75.4869 91.0593L83.3146 83.404L100.945 83.6227L118.503 83.8414L125.453 90.7677L132.403 97.621L132.549 117.015L132.769 136.335L143.669 136.554C151.058 136.7 154.862 136.481 155.521 135.898C156.325 135.242 156.545 132.179 156.545 121.389C156.545 106.297 156.764 107.172 150.692 92.9549C148.424 87.5597 145.644 80.8522 144.474 78.1546C141.767 71.4471 140.816 70.4993 135.768 69.2598C130.501 67.8746 129.842 67.3642 127.648 63.0627C126.697 61.24 125.453 59.2714 124.868 58.7611C123.624 57.8133 98.8971 47.752 97.6534 47.752C97.2876 47.752 94.8003 49.1372 92.1666 50.7412Z" fill="#035EA8"/>
<path d="M82.7294 98.861L76.8037 105.496V116.286C76.8037 127.003 76.8037 127.003 78.9253 129.92C80.0958 131.597 82.2173 133.784 83.6073 134.805L86.0946 136.7H104.457H122.893V120.806C122.893 102.871 123.258 104.256 116.162 96.6737L111.919 92.2263H100.287H88.582L82.7294 98.861Z" fill="#035EA8"/>
<path d="M49.3699 119.494C48.3458 120.587 45.7121 122.264 43.6637 123.285C36.9333 126.639 35.397 128.899 36.6406 133.419C37.2259 135.461 38.0306 136.335 39.9327 137.137C43.5906 138.669 52.5889 139.179 54.7836 138.012C57.0514 136.773 60.6361 130.94 61.2214 127.659C61.5872 125.399 61.2945 124.743 58.4414 121.827C54.2715 117.598 51.9304 116.942 49.3699 119.494Z" fill="#035EA8"/>
<path d="M66.562 129.701C64.8062 130.649 62.1726 133.784 60.1973 137.065C58.9537 139.106 59.0268 141.877 60.4168 143.845C61.3678 145.303 62.1726 145.449 67.4399 145.449C74.4629 145.449 77.9745 144.137 78.6329 141.148C79.2181 138.45 78.2671 136.263 74.6093 132.107C71.3903 128.462 69.7809 128.024 66.562 129.701Z" fill="#035EA8"/>
</svg>
