<svg width="200" height="201" viewBox="0 0 200 201" fill="none" xmlns="http://www.w3.org/2000/svg">
<path d="M85.6397 1.42617C45.037 6.60248 11.8366 36.4209 2.38219 76.2275C-0.109677 86.7259 -0.769288 106.265 0.989674 116.471C5.60695 143.52 18.5793 165.1 39.5403 180.629C56.4703 193.168 75.2325 199.73 96.3401 200.678C118.254 201.553 137.456 196.158 155.778 183.982C164.207 178.368 168.604 174.432 175.274 166.631C188.832 150.591 196.967 132.875 199.239 114.139C201.072 99.6303 199.533 82.2787 195.282 69.3014C192.717 61.5005 187 49.6898 182.676 43.2741C169.41 23.5895 145.591 8.06059 120.233 2.59266C111.658 0.770016 95.4606 0.18677 85.6397 1.42617ZM115.542 5.87342C129.76 8.1335 146.471 14.9866 157.391 22.9334C170.216 32.3382 179.158 42.9096 186.12 56.9075C192.79 70.395 195.575 81.5496 196.161 97.3702C196.967 118.95 190.738 139.583 177.985 157.372C169.337 169.401 154.019 182.305 141.194 188.138C127.782 194.262 115.982 196.668 99.2717 196.741C78.5306 196.814 59.4019 190.471 42.1054 177.785C23.4164 164.079 11.9832 146.727 6.11998 123.325C3.7747 114.211 2.89522 95.9121 4.28773 86.3614C6.92617 67.9891 13.5223 52.9706 25.1021 38.681C38.5875 22.0585 60.4279 9.4458 82.0485 5.87342C89.8173 4.56112 107.407 4.56112 115.542 5.87342Z" fill="#035EA8"/>
<path d="M132.253 46.4821C123.385 50.4919 113.637 54.7204 110.632 55.8869C107.627 57.1263 104.403 58.8032 103.45 59.678C100.885 62.011 99.8585 66.8228 98.466 82.5704C97.8064 90.5172 96.9269 97.7348 96.6338 98.6826C96.2673 99.5575 94.4351 101.234 92.6028 102.328C86.5198 105.827 84.6875 107.796 84.6875 110.858C84.6875 112.753 85.1272 113.993 86.2999 114.868C88.4986 116.69 96.5605 118.076 101.178 117.419C105.868 116.763 113.271 113.045 118.474 108.598C127.929 100.578 130.347 92.3398 128.075 76.3734C127.122 69.2287 125.657 70.7597 141.267 61.8652C153.58 54.8662 156.072 52.6791 156.072 48.8151C156.072 43.9304 152.627 38.8999 149.476 39.1186C148.89 39.1915 141.121 42.4723 132.253 46.4821Z" fill="#035EA8"/>
<path d="M83.221 54.7932C82.2682 57.1991 82.8546 59.605 84.7601 61.3547L86.7389 63.1774L85.7862 72.8009C84.7601 83.8097 84.8334 83.7368 77.651 86.726C70.3952 89.788 64.019 94.6727 60.721 99.7761C56.9832 105.463 55.8105 109.618 54.931 119.971C53.9783 130.761 52.8789 137.541 51.8529 138.708C51.4131 139.218 50.3871 139.656 49.5076 139.656C45.4033 139.656 43.2046 143.738 44.9636 147.967L45.9896 150.446L56.5434 150.956C62.26 151.248 73.107 151.32 80.436 151.175C93.5549 150.956 93.9214 150.883 95.3139 149.206C96.9995 147.165 97.0728 143.884 95.5337 141.478C94.5077 139.874 93.8481 139.656 89.7438 139.656C86.9588 139.656 84.9067 139.291 84.4669 138.708C83.1477 137.104 78.9702 120.481 78.6037 115.451C78.0907 109.254 79.923 105.098 84.7601 101.599C91.1363 97.0057 91.2829 96.7869 92.1624 89.7151C93.7015 77.394 94.6543 64.4168 94.1412 61.8651C93.9214 60.4799 92.5289 58.074 91.063 56.4701C89.0842 54.2829 87.9116 53.6267 86.0793 53.6267C84.5402 53.6267 83.5142 54.0642 83.221 54.7932Z" fill="#035EA8"/>
</svg>
