<svg width="200" height="201" viewBox="0 0 200 201" fill="none" xmlns="http://www.w3.org/2000/svg">
<path d="M88.4604 1.01629C80.801 1.81858 69.1295 4.59014 62.6373 7.14289C47.6832 12.9777 31.8537 24.6475 21.7141 37.1924C6.1764 56.5204 -1.04534 78.9846 0.121814 104.512C0.632442 116.911 1.6537 122.381 5.30104 133.322C8.43775 142.657 10.3344 146.596 15.5136 154.473C32.802 180.949 59.8653 197.359 90.8677 200.277C101.664 201.225 117.566 200.131 126.028 197.87C143.754 192.983 157.249 185.033 170.307 171.832C182.27 159.724 190.221 147.179 195.182 132.592C199.121 121.141 200.069 114.942 199.996 101.23C199.996 82.2667 197.589 71.7639 189.565 55.2805C182.489 40.9121 172.86 29.1695 160.313 19.8337C147.985 10.7167 131.791 4.00665 116.91 1.74565C109.177 0.578676 95.8281 0.286933 88.4604 1.01629ZM116.618 5.68418C133.615 8.82041 148.86 15.6034 161.043 25.4497C174.975 36.6089 185.261 51.3419 191.17 68.4818C195.328 80.4433 196.349 87.0075 196.349 101.959C196.276 114.285 196.13 115.598 194.015 123.548C188.981 142.512 181.395 155.567 167.243 169.79C160.97 176.135 150.83 183.574 143.535 187.294C137.918 190.139 126.028 193.931 119.098 195.171C86.345 200.787 57.6769 192.4 32.8749 169.79C21.5682 159.579 11.2827 142.366 7.05176 126.612C-0.461761 98.5313 4.06094 69.7947 19.5986 46.5282C29.9571 31.0658 49.5798 15.6034 65.8469 10.0603C70.1508 8.67454 82.4059 5.5383 85.5426 5.10069C91.5972 4.2984 110.928 4.66308 116.618 5.68418Z" fill="#035EA8"/>
<path d="M88.3147 32.0869C87.5852 33.2539 84.9591 36.3901 82.406 39.2346C79.8528 42.0062 76.935 45.8718 75.9866 47.7681C72.9229 53.8947 73.9441 60.7507 78.5398 64.6162C81.6765 67.2419 83.2084 67.2419 82.2601 64.6892C80.8011 60.9695 83.2813 53.7488 87.5852 49.2268C90.4301 46.2365 91.4514 46.3094 92.0349 49.3727C92.4726 51.7066 90.9407 61.0424 89.5548 64.8351C88.5335 67.4607 89.5548 66.9502 93.348 63.0846C101.737 54.6241 101.81 45.0695 93.6398 34.6397C91.6702 32.1599 89.9924 30.1177 89.8465 30.1177C89.7006 30.1177 89.0441 30.9929 88.3147 32.0869Z" fill="#035EA8"/>
<path d="M123.986 47.841C123.11 48.7892 122.381 50.2479 122.381 51.0502C122.381 52.7277 120.703 54.1864 114.721 58.052C110.271 60.8965 109.761 63.3763 113.262 65.0538C114.502 65.6373 115.597 66.2937 115.815 66.6584C116.034 66.9502 115.597 76.6506 114.867 88.2474C113.335 111.879 113.554 111.076 107.645 111.076H104.144V100.646C104.144 93.8634 103.779 89.7061 103.196 88.5391C101.883 85.9135 99.0377 84.0901 95.9739 83.9442L93.2019 83.7254V80.0057C93.2019 74.6814 92.0348 73.8791 84.5942 73.8791H78.6855L77.956 76.5777C77.5184 78.1093 77.1536 80.2245 77.1536 81.3185C77.1536 82.9231 76.7159 83.4336 75.1841 83.7983C68.8377 85.1112 67.5246 87.1534 67.087 95.8327L66.7952 102.324H61.9807C58.2604 102.324 56.5826 102.689 54.1754 104.147C48.7773 107.284 48.7773 107.357 48.5585 127.268L48.3396 144.991L45.5676 145.21C43.3792 145.429 42.6498 145.867 41.7744 147.617C40.8261 149.44 40.7532 150.097 41.5556 151.774L42.5039 153.744H96.4845H150.465L151.486 151.629C152.362 149.732 152.362 149.222 151.486 147.617C150.684 146.158 149.663 145.648 147.183 145.356L143.9 144.991L143.389 141.345C142.879 137.479 139.523 91.8942 138.794 77.5258C138.502 72.9309 138.137 68.5548 137.991 67.8983C137.7 67.0231 138.21 66.3667 139.45 65.8561C140.471 65.4915 141.639 64.5433 142.003 63.741C144.046 59.9483 141.712 57.1038 136.532 57.1038C133.177 57.1038 132.593 56.4474 132.593 52.2901C132.593 49.2268 129.894 46.1635 127.268 46.1635C126.32 46.1635 124.861 46.8929 123.986 47.841ZM128.216 66.2208C128.727 66.8772 129.238 69.357 129.238 71.691L129.311 76.0671L126.101 77.9635L122.891 79.9327L123.256 74.1708C123.694 66.2208 125.663 63.1575 128.216 66.2208ZM131.061 89.2685C131.134 92.4777 130.988 92.6965 126.976 95.9786C124.642 97.8749 122.6 99.4066 122.381 99.4066C122.162 99.4066 122.162 96.9267 122.381 93.9364L122.745 88.4662L126.393 85.9135C130.551 82.9231 130.988 83.2878 131.061 89.2685ZM132.447 105.752L132.52 110.712L127.195 115.234C124.277 117.786 121.651 119.829 121.359 119.829C120.776 119.829 120.922 112.9 121.578 110.128C121.87 108.742 123.621 106.7 126.757 104.147C129.384 102.032 131.718 100.428 131.937 100.574C132.156 100.719 132.447 103.053 132.447 105.752ZM66.9411 127.851V145.356H61.4701H55.999V129.237C55.999 119.537 56.2908 112.608 56.7285 111.733C57.385 110.566 58.3333 110.347 62.1995 110.347H66.9411V127.851ZM112.387 123.621C112.241 126.539 111.876 132.519 111.585 136.968L111.074 144.991L107.645 145.21L104.144 145.429V132.373C104.144 125.226 104.29 119.172 104.436 119.026C104.582 118.88 106.551 118.662 108.74 118.516L112.679 118.297L112.387 123.621ZM133.979 126.539C134.052 128.07 132.885 129.456 128.143 133.468C118.369 141.636 119.171 141.49 119.682 135.145C120.265 129.091 119.973 129.456 128.946 122.308L132.958 119.099L133.469 121.798C133.76 123.329 133.979 125.445 133.979 126.539ZM135.365 145.064C135.146 145.283 132.447 145.356 129.384 145.21L123.767 144.991L127.414 142.147C129.457 140.615 131.864 138.573 132.739 137.625L134.417 135.947L135.073 140.323C135.438 142.73 135.584 144.845 135.365 145.064Z" fill="#035EA8"/>
</svg>
