<svg width="200" height="201" viewBox="0 0 200 201" fill="none" xmlns="http://www.w3.org/2000/svg">
<path d="M82.4651 2.01569C65.3111 4.70505 52.9513 10.0091 38.7187 20.6918C21.0403 33.9892 8.30589 53.0388 2.68777 74.479C-2.03146 92.4828 -0.383474 119.974 6.43318 137.455C12.6506 153.442 23.5123 168.457 36.3216 178.617C56.8465 194.903 79.0194 202.149 104.563 200.804C115.874 200.207 122.167 199.086 132.729 195.5C161.793 185.863 185.164 162.556 195.052 133.496C199.023 121.767 200.071 115.417 199.996 101.746C199.921 87.1041 198.648 79.036 194.453 67.3074C189.06 52.2918 181.419 40.2644 170.108 28.9093C160.969 19.7954 151.905 13.5202 140.744 8.8885C126.287 2.76273 116.099 0.820418 99.0948 0.969827C93.2519 1.04453 85.7611 1.49276 82.4651 2.01569ZM121.417 6.79678C139.171 10.6067 154.452 18.7495 166.812 30.9263C175.127 39.0691 179.996 45.7178 185.389 56.1764C193.479 71.7897 196.326 83.9665 196.251 102.493C196.251 113.176 195.951 115.865 194.228 122.663C188.086 147.391 174.078 167.411 153.029 181.605C146.961 185.714 134.601 191.167 126.137 193.558C107.41 198.787 88.7574 198.488 70.8543 192.736C56.0225 188.03 44.6364 181.306 33.6249 170.997C11.5269 150.08 0.964875 120.87 4.03612 89.0464C5.75901 70.8932 13.8491 52.2918 26.3588 37.5003C41.4154 19.7206 62.6144 8.44027 86.66 5.37739C95.1246 4.33153 113.552 5.07857 121.417 6.79678Z" fill="#035EA8"/>
<path d="M84.7122 39.667C65.7604 44.2986 48.3817 59.6878 41.8647 77.6915C38.1942 87.7019 37.8945 91.0636 37.8945 119.75V146.644L39.7672 148.437C42.1643 150.902 48.3068 151.126 50.6289 148.81C52.0522 147.391 52.1271 146.345 52.1271 123.112C52.1271 92.1842 53.026 86.3573 59.3183 75.5998C64.6368 66.4859 73.5509 58.9407 83.0643 55.579C89.5813 53.2632 102.615 52.4414 110.031 53.9355C126.361 57.1478 140.594 70.9681 145.388 88.2996C146.512 92.4083 146.811 97.4135 147.186 120.647C147.635 146.793 147.71 148.213 149.058 149.258C151.231 150.753 157.973 150.603 159.995 148.96C161.643 147.615 161.643 147.615 161.568 119.974C161.493 90.3913 161.194 87.0296 157.523 76.8698C152.13 62.153 139.32 48.7062 124.713 42.5804C121.942 41.4599 117.297 39.9658 114.376 39.3682C106.96 37.7994 91.5289 37.9488 84.7122 39.667Z" fill="#035EA8"/>
<path d="M87.7091 62.4519C77.6714 65.5895 69.5813 72.7611 64.8621 82.398C60.817 90.8396 60.2927 95.0977 60.5174 119.302L60.7421 140.219L68.0082 129.312C71.9784 123.336 75.6489 117.509 76.0983 116.389C76.4729 115.268 76.8474 110.562 76.8474 105.93C76.8474 100.178 77.222 96.4424 78.046 94.0519C79.7688 88.972 84.8626 83.7427 90.4058 81.2027C94.5258 79.4098 95.6494 79.1857 101.118 79.4845C105.387 79.7086 108.084 80.3063 110.182 81.4268C119.246 86.2826 122.542 93.2301 122.542 107.648C122.542 116.613 122.317 116.09 132.579 131.255L138.647 140.219L138.872 119.302C139.096 94.8736 138.572 90.6155 134.452 82.3233C129.433 72.3129 120.819 65.2907 110.182 62.5266C104.788 61.1819 91.9789 61.1072 87.7091 62.4519Z" fill="#035EA8"/>
<path d="M82.0162 124.68C80.593 126.324 78.3457 129.91 78.3457 130.507C78.3457 130.731 87.934 130.881 99.6946 130.881C111.455 130.881 121.043 130.657 121.043 130.283C120.969 129.984 120.07 128.416 118.946 126.772L116.849 123.784L99.9942 123.56C84.638 123.41 82.99 123.485 82.0162 124.68Z" fill="#035EA8"/>
<path d="M74.0755 138.276C72.2028 139.845 71.229 142.833 71.9781 145C72.4275 146.569 72.6523 146.569 100.293 146.419L128.159 146.195L128.384 143.132C128.534 140.816 128.234 139.771 126.961 138.65C125.463 137.305 123.964 137.231 100.518 137.081C77.2217 136.857 75.6486 136.932 74.0755 138.276Z" fill="#035EA8"/>
</svg>
