<svg width="200" height="201" viewBox="0 0 200 201" fill="none" xmlns="http://www.w3.org/2000/svg">
<path d="M87.9587 1.24565C63.4647 3.87004 42.9071 14.1489 26.0675 32.228C7.40534 52.2025 -2.14442 80.3418 0.407042 107.752C2.95851 134.652 14.5494 158.199 33.8677 175.549C48.2288 188.525 64.0478 196.325 82.3455 199.533C97.5814 202.157 118.212 200.626 132.719 195.669C175.729 181.089 203.868 137.058 199.567 91.3496C197.234 66.9282 188.049 46.735 171.793 30.3326C157.65 16.0443 137.676 5.69253 117.993 2.33915C109.318 0.808252 95.9047 0.370854 87.9587 1.24565ZM121.128 6.85892C141.321 11.7432 156.921 20.4912 170.335 34.415C180.176 44.6209 186.883 55.7746 191.402 69.3339C196.287 84.0597 197.599 105.201 194.464 119.78C189.361 143.983 175.365 165.634 155.973 179.485C146.205 186.484 132.208 192.607 121.128 194.721C112.088 196.471 108.954 196.763 98.1646 196.763C76.8052 196.835 58.7991 190.566 41.6679 177.225C23.6618 163.229 12.3625 145.587 6.53056 122.624C4.05199 112.636 3.3959 93.974 5.14548 82.8204C10.6129 48.2659 36.8565 18.45 70.0985 8.82721C82.1268 5.32803 86.5007 4.81773 101.445 5.10933C111.942 5.32803 116.681 5.76543 121.128 6.85892Z" fill="#035EA8"/>
<path d="M81.3976 38.4976C79.8667 39.0807 78.4816 41.2677 78.4816 43.0902C78.4816 43.7463 79.4293 44.8398 80.6686 45.4959L82.8556 46.7352V61.7525V76.697L80.0125 82.6018C78.4816 85.8094 71.5562 98.1295 64.7766 109.866C57.8512 121.822 52.0922 132.538 51.8735 133.996C50.6342 140.703 54.7166 147.993 61.2775 151.055L64.9953 152.804H100.351C133.01 152.804 135.926 152.658 138.623 151.419C142.414 149.742 145.986 145.587 147.08 141.723C148.538 136.11 147.663 133.267 140.446 120.583C132.281 106.294 125.21 93.6097 120.107 84.3514L116.389 77.426V62.3357V47.1726L118.576 45.6417C120.982 43.8921 121.565 40.6845 119.742 39.1536C118.576 38.206 83.8033 37.6228 81.3976 38.4976ZM109.828 63.1376L110.193 80.2691L114.348 88.2151C116.608 92.662 118.357 96.5257 118.139 96.8173C117.92 97.1089 109.391 97.4005 99.112 97.4005C82.7098 97.4005 80.5957 97.2547 80.9602 96.307C81.1789 95.6509 82.9285 92.4433 84.8967 89.1628C86.865 85.8823 88.8333 82.0915 89.2707 80.7064C89.8539 79.1027 90.1455 72.6146 90.1455 62.4086C90.1455 53.7336 90.3642 46.3707 90.6558 46.0791C90.9474 45.8604 95.2484 45.7146 100.278 45.7875L109.464 46.0062L109.828 63.1376ZM111.578 109.866C115.369 112.855 112.744 119.27 107.641 119.27C104.871 119.27 101.809 116.427 101.809 113.803C101.809 111.251 104.871 108.335 107.495 108.335C108.662 108.335 110.484 108.992 111.578 109.866ZM92.7698 124.228C97.2896 127.873 97.0709 133.996 92.3324 136.402C89.1978 138.006 86.2089 137.787 83.6575 135.6C81.835 134.069 81.3976 133.194 81.3976 130.789C81.3976 127.216 82.3453 125.467 84.8967 124.082C87.5211 122.624 90.8745 122.697 92.7698 124.228Z" fill="#035EA8"/>
</svg>
