<svg width="200" height="201" viewBox="0 0 200 201" fill="none" xmlns="http://www.w3.org/2000/svg">
<path d="M83.3597 1.48064C63.8473 4.02148 42.1584 15.0069 28.4996 29.2058C4.25911 54.4648 -5.19695 89.0651 2.75815 123.292C8.1616 146.608 22.0455 167.831 40.9576 181.731C57.6183 193.987 74.2789 199.741 95.7427 200.713C131.541 202.432 163.511 186.14 183.324 156.173C203.136 126.356 205.463 88.2431 189.403 55.511C175.444 26.8891 147.826 6.4876 116.756 1.77956C109.176 0.658599 91.0146 0.509137 83.3597 1.48064ZM112.854 5.21718C127.338 7.08545 142.348 12.6903 154.73 20.9106C161.71 25.6187 173.567 37.1272 178.521 44.2266C192.555 64.105 199.009 91.7554 195.181 115.819C191.954 136.22 182.798 154.006 167.864 168.952C142.498 194.361 107.3 203.254 72.1025 193.165C43.9595 185.094 18.9685 160.881 9.21228 132.26C3.95891 117.014 2.30786 96.4635 5.15968 82.0404C13.2649 41.1627 45.2353 10.3736 84.8607 5.29191C92.3655 4.39514 105.574 4.32041 112.854 5.21718Z" fill="#035EA8"/>
<path d="M50.4141 42.7323C47.9375 46.2446 49.8137 51.5505 53.5661 51.5505C54.6919 51.5505 56.3429 51.7747 57.3185 51.9989L58.9696 52.4473V77.781V103.115H56.0427C50.264 103.115 47.2621 108.047 50.6393 112.157C52.4404 114.399 56.9433 114.922 76.3807 114.997C86.5873 115.072 92.5911 114.773 93.7919 114.25C96.5687 112.979 97.6944 109.093 96.1184 106.179C94.9927 103.937 93.7919 103.339 89.364 102.965C88.1633 102.816 87.1877 102.517 87.3378 102.143C87.4128 101.844 87.4878 99.2288 87.4878 96.389V91.1578H99.2704C123.586 91.1578 126.513 93.1756 126.513 110.513C126.513 115.445 126.288 119.929 126.063 120.602C125.837 121.2 124.411 121.947 122.911 122.246C119.458 122.844 118.258 123.815 118.258 125.833C118.258 128.822 120.284 130.765 123.586 130.765H126.513V137.865V144.964H122.685C115.706 144.964 111.954 148.925 115.03 153.035L116.531 155.053L136.269 155.277C158.633 155.501 158.783 155.426 158.783 150.12C158.783 146.683 158.108 146.16 152.404 145.711L147.902 145.338L147.676 138.014L147.451 130.765H150.378C153.38 130.765 155.181 129.42 156.082 126.655C156.757 124.264 155.406 122.993 151.504 122.619L147.902 122.171L147.451 106.851C147.226 96.6879 146.701 90.6347 146.025 88.9159C143.324 81.9659 138.07 76.5853 130.34 72.9235L125.387 70.6069L106.25 70.3827L87.1126 70.0837L87.3378 61.2655L87.5629 52.3725L90.3397 51.9242C94.0921 51.3263 95.2178 50.6537 96.4186 48.2623C97.2441 46.3941 97.2441 45.871 96.0433 43.629L94.6174 41.0882H73.0786C51.6899 41.0882 51.5398 41.0882 50.4141 42.7323Z" fill="#035EA8"/>
<path d="M71.2024 127.402C67.6001 131.811 61.8964 141.676 61.5212 144.366C60.5456 150.344 65.7989 156.248 72.7034 156.697C82.5347 157.444 88.1633 148.476 83.6604 139.508C81.484 135.249 74.5796 124.787 73.9041 124.787C73.6039 124.787 72.4032 125.982 71.2024 127.402Z" fill="#035EA8"/>
</svg>
