<svg width="200" height="201" viewBox="0 0 200 201" fill="none" xmlns="http://www.w3.org/2000/svg">
<path d="M83.0837 1.13937C59.103 5.47945 43.3915 13.4113 28.5821 28.6016C14.5244 43.0436 5.95447 58.7577 1.74469 77.914C-0.435375 87.5669 -0.585724 109.492 1.36882 119.22C9.26216 158.131 39.1065 189.11 77.0697 197.94C92.255 201.532 112.477 201.083 127.437 196.967C138.036 194.049 150.891 187.538 160.213 180.43C165.024 176.688 176 165.614 179.683 160.75C187.05 151.097 193.365 138.077 196.597 125.805C203.138 100.961 200.206 76.1929 188.178 53.1455C174.346 26.6561 150.365 8.39778 121.047 1.88766C113.68 0.316248 90.4508 -0.207555 83.0837 1.13937ZM114.432 5.03048C141.57 8.99642 164.197 23.2139 179.533 45.962C193.29 66.2406 199.078 91.7573 195.169 114.431C191.335 136.73 181.788 154.988 166.001 169.954C152.019 183.273 137.285 191.055 118.19 195.096C110.898 196.668 93.0819 196.892 84.8879 195.545C58.4264 191.13 33.9946 175.341 18.659 152.743C3.77441 130.743 -0.736074 96.7709 7.68349 70.0569C15.0506 46.9347 31.2883 26.8057 51.7359 15.5065C69.026 5.92843 93.2323 1.88766 114.432 5.03048Z" fill="#035EA8"/>
<path d="M83.0087 46.0368C39.7081 77.5398 39.1067 78.0636 38.8811 81.2065C38.5053 85.1724 40.2343 86.8935 44.4441 86.8935H47.6766L47.9021 119.07L48.1276 151.246L50.2325 153.267L52.2622 155.362L98.7202 155.587C134.579 155.736 145.479 155.587 146.832 154.838C150.666 152.818 150.741 152.144 150.741 118.322V86.8935H153.748C155.778 86.8935 157.131 86.4445 158.259 85.2472C159.762 83.601 160.213 80.533 159.161 78.8868C158.634 78.1385 141.419 65.193 128.94 56.2136C126.309 54.3428 119.093 49.03 112.853 44.3906C104.058 37.8805 100.975 36.0097 99.1712 36.0097C97.2919 36.0097 93.7587 38.1798 83.0087 46.0368ZM120.446 92.2812L132.699 104.478V111.961V119.444L120.521 131.566L108.267 143.764H99.1712H89.9999L77.8968 131.941L65.7937 120.192V112.335V104.553L77.972 92.356L90.1503 80.1589H99.1712H108.267L120.446 92.2812Z" fill="#035EA8"/>
<path d="M114.507 98.6417C113.83 99.39 112.627 101.41 111.725 103.131C110.823 104.927 109.846 106.349 109.545 106.349C109.244 106.349 107.966 104.478 106.764 102.234C104.734 98.5669 104.283 98.1179 102.103 98.1179H99.6219L103.155 105.152L106.613 112.111L102.779 119.22C100.674 123.186 99.1709 126.553 99.3964 126.852C99.6971 127.077 100.825 127.301 102.028 127.301C104.057 127.301 104.508 126.852 106.613 122.063C109.019 116.601 109.771 115.927 110.447 118.172C110.748 118.92 111.951 121.09 113.153 123.036C115.033 125.954 115.784 126.553 117.664 126.553C118.867 126.553 119.919 126.328 119.919 126.104C119.919 125.505 115.484 116.75 113.755 113.982L112.251 111.512L115.033 106.125C116.611 103.131 118.34 100.213 118.867 99.5397C120.37 97.8186 120.145 97.3697 117.814 97.3697C116.611 97.3697 115.108 97.9683 114.507 98.6417Z" fill="#035EA8"/>
<path d="M79.0247 102.757C78.7992 105.376 78.8743 111.812 79.175 117.199L79.7013 126.927H87.9705H96.2397L96.4652 124.832L96.6907 122.812H90.6768H84.5876V118.696V114.58H89.474H94.3603V112.336V110.091H89.474H84.5876V105.975V101.86H90.6016C96.5404 101.86 96.6156 101.86 96.6156 99.9888V98.1181H88.0456H79.4757L79.0247 102.757Z" fill="#035EA8"/>
</svg>
