<svg width="60" height="60" viewBox="0 0 60 60" fill="none" xmlns="http://www.w3.org/2000/svg">
<path d="M21.0014 0.363198C20.1685 0.883715 18.659 3.25207 14.2347 10.8256C12.517 13.7405 9.68014 18.4251 7.93641 21.2359C6.16665 24.0467 4.55305 26.8315 4.29279 27.4561C3.9024 28.4971 3.9024 28.6533 4.29279 29.4601C5.17767 31.3079 4.86536 31.2819 16.8633 31.36C26.7271 31.438 27.664 31.386 28.1064 30.9956C28.6269 30.5271 28.5489 29.6423 27.9763 29.2779C27.8201 29.1738 23.1355 29.0697 17.592 29.0697C7.65012 29.0697 6.47896 28.9916 6.47896 28.2108C6.47896 28.0287 6.97345 27.1438 7.54602 26.2068C9.78424 22.7194 13.4799 16.6293 14.6511 14.5733C18.3207 8.04082 22.0684 2.26308 22.5889 2.26308C23.0054 2.26308 25.3737 6.03683 31.5418 16.6033C34.0924 20.9496 34.3266 21.2099 35.2635 20.7935C35.6019 20.6113 35.9662 20.325 36.0443 20.1428C36.0964 19.9606 35.1855 18.1649 33.9883 16.1609C32.7911 14.1829 30.2405 9.9407 28.3667 6.73953C26.4668 3.56438 24.619 0.753585 24.2806 0.545379C23.3177 -0.105267 21.8082 -0.183345 21.0014 0.363198Z" fill="#344045"/>
<path d="M42.5507 3.77254C42.4987 3.87664 42.5507 6.14089 42.6809 8.79552L42.9411 13.6103L42.0823 15.0417C41.6138 15.8485 40.5207 17.9046 39.6879 19.6483L38.1264 22.7974L36.9552 22.6413C35.4717 22.4851 35.2635 22.6933 33.0513 26.415C26.2586 37.9445 18.1385 45.8563 7.80626 51.0615C5.35984 52.2587 4.89137 52.7532 5.35984 53.5079C5.8283 54.2626 6.68715 54.1065 9.52397 52.649C14.9894 49.8383 19.4658 46.559 24.0724 41.9524L27.4818 38.543L29.9282 40.5991C31.2816 41.7442 32.4007 42.7592 32.4527 42.8633C32.5829 43.1756 25.7641 49.8383 23.0834 51.9984C21.6 53.1956 18.9193 55.1215 17.0975 56.3187C13.7922 58.4788 13.3498 58.9993 14.0785 59.7281C14.6771 60.3267 15.5359 60.0144 18.607 58.0104C29.2255 51.0354 38.1524 41.1717 43.5137 30.475C45.1013 27.2739 45.1273 27.1958 44.3726 26.2849L43.7219 25.5041L45.7779 21.1057C46.9231 18.6853 47.86 16.4731 47.86 16.1608C47.86 15.7704 49.0052 14.8075 52.1543 12.5693C54.5226 10.9036 56.4485 9.4722 56.4485 9.39412C56.4485 9.31604 56.1883 8.8736 55.8499 8.37911L55.2513 7.49423L52.3885 9.49822C50.827 10.6173 48.9791 11.9186 48.3025 12.3871L47.0532 13.2459L49.2914 8.92565L51.5297 4.63139L50.4886 4.11087L49.4476 3.56433L47.4176 7.46821C46.2985 9.60232 45.3095 11.3721 45.2054 11.3721C45.0753 11.3721 44.9972 9.99271 44.9972 8.27501C44.9972 6.58333 44.9191 4.81357 44.841 4.37113C44.6849 3.64241 44.5808 3.56433 43.6699 3.56433C43.1233 3.56433 42.6288 3.64241 42.5507 3.77254ZM45.2314 16.2649C45.4136 16.6033 45.0232 17.6703 43.5397 20.7414C42.4727 22.9275 41.5618 24.7754 41.5097 24.8535C41.4577 24.9055 41.0673 24.7754 40.6509 24.5412L39.8701 24.1508L41.9522 19.9866C44.0863 15.7184 44.6068 15.1198 45.2314 16.2649ZM41.9522 27.5862C42.3946 27.7423 42.3425 27.9766 41.2495 30.0066C39.4797 33.2598 36.5908 37.8143 35.2115 39.5581L34.0143 41.0936L33.3376 40.469C32.9472 40.1046 31.7761 39.0896 30.735 38.1787L28.8612 36.5391L29.72 35.472C31.0734 33.8324 32.765 31.3079 34.6909 28.1067L36.4347 25.2178L38.9592 26.3109C40.3385 26.9355 41.6919 27.5081 41.9522 27.5862Z" fill="#344045"/>
<path d="M21.7822 9.31599C21.3658 9.55022 21.3137 10.0968 21.3137 14.7033C21.3137 18.373 21.3918 19.9345 21.626 20.1688C22.0945 20.6372 23.0835 20.5331 23.3958 19.9866C23.5519 19.6743 23.656 17.436 23.656 14.5212C23.656 9.88855 23.63 9.55022 23.1616 9.28996C22.5369 8.97765 22.3548 8.97765 21.7822 9.31599Z" fill="#344045"/>
<path d="M21.3397 23.3179C20.5329 24.1247 21.1315 25.3739 22.5369 25.7903C22.9273 25.9204 23.2656 25.8163 23.63 25.452C24.3327 24.7493 24.3066 24.2288 23.5259 23.474C22.7711 22.6932 22.0164 22.6412 21.3397 23.3179Z" fill="#344045"/>
</svg>
