<svg width="60" height="60" viewBox="0 0 60 60" fill="none" xmlns="http://www.w3.org/2000/svg">
<path d="M13.3256 7.52103C6.97914 9.10095 2.05194 13.9478 0.391696 20.2407C-0.11709 22.2758 -0.143869 26.7478 0.391696 28.8097C1.65027 33.7637 5.23855 38.2356 9.73729 40.4582C12.6293 41.8775 14.5306 42.0917 14.6645 41.0474C14.7984 40.2172 14.3431 39.7352 13.2452 39.5478C11.8795 39.28 8.85361 37.6733 7.40759 36.4147C4.64943 34.0315 2.69462 30.3361 2.1055 26.4265C1.70383 23.7754 2.26617 20.5888 3.60508 17.7771C5.45278 13.921 9.46951 10.6273 13.6469 9.5294C16.0302 8.88672 19.672 9.02061 22.1624 9.79718C25.5632 10.8683 28.2143 12.9035 30.2762 16.0633C31.749 18.2859 32.3113 19.8658 32.6594 22.8649C32.7933 24.0164 32.9808 25.0608 33.0611 25.1947C33.1415 25.3553 33.5699 25.4624 34.0251 25.4624H34.8017V23.6951C34.8017 21.3921 34.2126 19.1696 32.8737 16.3846C32.0435 14.6173 31.3473 13.68 29.7406 12.1001C25.3758 7.73526 19.3239 6.04823 13.3256 7.52103Z" fill="#344045"/>
<path d="M16.7799 13.3319C16.6728 13.4122 16.5925 15.7151 16.5925 18.393V23.2934L13.995 23.3737L11.3707 23.454L11.2904 24.2306C11.2368 24.6591 11.3439 25.0875 11.5582 25.2214C11.7456 25.3553 13.3255 25.4624 15.0393 25.4624C17.8243 25.4624 18.1992 25.4088 18.4402 24.9536C18.7615 24.3913 18.7079 13.9745 18.3866 13.4658C18.1456 13.1176 17.0745 13.0105 16.7799 13.3319Z" fill="#344045"/>
<path d="M18.4669 28.3812C17.9581 28.649 17.2887 29.1846 16.9941 29.5862C16.4853 30.2825 16.4586 30.7377 16.3782 40.2708C16.3247 49.8306 16.3247 50.259 16.8602 51.1159C17.1548 51.5979 17.7707 52.2138 18.2527 52.5084C19.1096 53.0172 19.6452 53.044 38.0954 53.044C58.6343 53.044 57.7506 53.0975 59.1698 51.5712L59.8393 50.8481L59.9196 40.7528L59.9999 30.6574L59.384 29.7201C58.0719 27.7921 59.0627 27.8724 38.1489 27.8724C20.395 27.8724 19.3506 27.8992 18.4669 28.3812ZM57.3221 30.5235L58.0987 31.3V40.5385V49.777L57.2686 50.4733L56.4384 51.1695H38.256C25.7238 51.1695 19.8594 51.0891 19.4845 50.8749C18.3063 50.2322 18.1992 49.3218 18.1992 40.1636V31.5678L19.1096 30.6574L20.0201 29.7469H38.2828H56.5456L57.3221 30.5235Z" fill="#344045"/>
<path d="M21.7875 35.1828C21.734 35.3703 21.7072 36.7895 21.734 38.3426C21.8143 41.0472 21.8411 41.1276 22.457 41.2079C22.8051 41.2615 23.2068 41.1811 23.3674 41.0205C23.8227 40.5652 24.5725 40.6723 24.8938 41.2347C25.2687 41.9577 25.2419 43.4841 24.8402 43.8857C24.385 44.341 23.0997 44.2874 22.9122 43.8054C22.8319 43.5644 22.5373 43.4573 22.1624 43.5108C21.8143 43.5912 21.4662 43.6447 21.3591 43.6447C20.8771 43.6983 21.1984 44.5552 21.9214 45.305C22.4838 45.8673 22.9658 46.0815 23.662 46.0815C25.9381 46.0815 26.7683 45.0372 26.7683 42.1184C26.7683 39.9493 26.2327 39.1995 24.5189 39.0657L23.4746 38.9853V37.7803V36.5753L25.1348 36.4949C26.7683 36.4146 26.7951 36.4146 26.7147 35.6916C26.6344 34.9686 26.6076 34.9686 24.2779 34.8882C22.5105 34.8347 21.8946 34.8882 21.7875 35.1828Z" fill="#344045"/>
<path d="M29.2586 35.2633C27.8126 35.9863 27.518 37.0307 27.6251 41.0474L27.7055 44.5286L28.6159 45.3319C29.4193 46.0549 29.6603 46.1353 30.7582 46.0014C31.6419 45.8943 32.1507 45.68 32.5791 45.1445C33.1682 44.475 33.195 44.2072 33.195 40.5922C33.195 36.7361 33.195 36.7093 32.472 35.9328C31.5348 34.942 30.3833 34.701 29.2586 35.2633ZM31.3205 37.2181C31.4544 37.5127 31.5883 39.0658 31.5883 40.6725C31.5883 43.8323 31.4009 44.3411 30.1958 44.1537C29.6067 44.0733 29.5799 43.993 29.4996 40.7528C29.4193 37.3252 29.5799 36.7093 30.544 36.7093C30.8117 36.7093 31.1599 36.9503 31.3205 37.2181Z" fill="#344045"/>
<path d="M37.5331 35.2364C36.2209 35.7987 35.8728 36.9234 35.8728 40.5653C35.8728 43.8858 36.0335 44.6623 36.9707 45.5192C38.0954 46.5636 40.5322 46.0548 41.1749 44.6088C41.6033 43.6983 41.6033 37.2448 41.2017 36.3343C40.9071 35.6916 39.5146 34.8347 38.7648 34.8347C38.5774 34.8615 38.0151 35.0222 37.5331 35.2364ZM39.6485 37.4322C39.7824 37.7803 39.8895 39.2531 39.8895 40.6991C39.8895 43.5912 39.6218 44.3142 38.5238 44.1535C37.8812 44.0732 37.8812 44.0464 37.8008 40.6991C37.7473 37.9142 37.8008 37.218 38.149 36.8699C38.6845 36.3611 39.3272 36.6021 39.6485 37.4322Z" fill="#344045"/>
<path d="M44.5757 35.0757C44.2811 35.2096 43.7991 35.5844 43.5046 35.9058C43.0226 36.4146 42.969 36.9501 42.8887 40.11C42.7816 44.1535 42.9958 45.0639 44.2008 45.6798C45.4862 46.3493 46.5305 46.1886 47.5481 45.171L48.4585 44.2606V40.4849C48.4585 36.7627 48.4585 36.7091 47.7355 35.9058C46.9322 35.0221 45.5397 34.674 44.5757 35.0757ZM46.5841 37.2715C46.9322 37.8874 46.9322 42.6271 46.5841 43.5376C46.3698 44.0999 46.1556 44.2338 45.5665 44.1535L44.8435 44.0731L44.7631 40.592C44.7096 37.6196 44.7631 37.0572 45.138 36.7895C45.6468 36.4146 46.2359 36.602 46.5841 37.2715Z" fill="#344045"/>
<path d="M51.2703 35.0757C50.9758 35.2096 50.4938 35.5845 50.1992 35.9058C49.744 36.4146 49.6637 36.9502 49.5833 40.0029C49.4494 44.8765 50.0653 46.0815 52.636 46.0815C53.3323 46.0815 53.8143 45.8673 54.3766 45.305L55.1532 44.5284V40.7527C55.1532 36.5485 54.9657 35.8523 53.6804 35.2364C52.7164 34.8079 52.1005 34.7544 51.2703 35.0757ZM53.2787 37.218C53.6536 37.9677 53.6268 43.4841 53.2252 43.8857C52.7699 44.341 51.7524 44.2874 51.5649 43.7786C51.2436 42.9753 51.3775 37.3786 51.7256 37.0305C52.2076 36.5485 52.9574 36.6556 53.2787 37.218Z" fill="#344045"/>
</svg>
