<svg width="60" height="60" viewBox="0 0 60 60" fill="none" xmlns="http://www.w3.org/2000/svg">
<path d="M45.7602 4.50402C43.2012 5.34697 40.853 7.03287 37.1199 10.6756L33.6879 14.0173L32.2429 13.4754C29.714 12.5723 28.9012 12.9034 25.439 16.4257C18.0933 23.8016 11.6508 30.6054 11.1089 31.4784C10.4767 32.5321 10.3562 34.2782 10.868 35.3921C11.1992 36.1147 10.9885 36.4157 5.5996 41.8949C2.52885 45.0559 0 47.8256 0 48.0665C0 48.5783 0.873056 49.4814 1.26443 49.361C1.44506 49.3008 4.12444 46.6816 7.25539 43.5507L12.9152 37.8307L13.6678 38.5532C14.0893 38.9747 14.4506 39.4262 14.4506 39.5768C14.4506 39.7574 11.9217 42.4368 8.82087 45.5677C5.72002 48.6987 3.04064 51.4684 2.92022 51.7092C2.52885 52.4017 3.64275 53.4855 4.39538 53.1844C4.72654 53.0941 7.46613 50.3846 10.5369 47.1633C13.6076 43.9722 16.2268 41.353 16.3773 41.3229C16.5278 41.3229 16.8891 41.5035 17.1902 41.7745C17.4912 42.0454 18.3342 42.3465 19.0868 42.4067C21.0135 42.6475 22.4285 41.7143 26.5529 37.4694C28.4496 35.5125 32.1224 31.7193 34.7115 29.0399L39.438 24.1929V22.5371C39.438 21.634 39.2875 20.49 39.1069 19.9481C38.6854 18.774 38.6854 18.8041 42.9002 15.0409C46.1816 12.0906 47.6568 11.1874 49.0718 11.1874C51.0286 11.1874 52.9854 13.0238 52.9854 14.8603C52.9854 17.359 50.6974 21.1824 46.9343 25.0359C35.5243 36.6566 35.3136 36.8974 33.8083 39.9982C32.4837 42.7378 32.3633 43.1292 32.273 45.6882C32.1525 48.1869 32.2127 48.6084 32.9654 50.2642C33.9589 52.5221 36.277 54.8101 38.294 55.5928C40.4917 56.4057 43.5926 56.1347 45.9709 54.8703C48.3793 53.5758 51.149 51.2878 53.5575 48.5482L55.4842 46.3806L53.1962 44.1528C51.9619 42.9185 50.6974 41.8949 50.3663 41.8949C50.0652 41.8949 48.6804 43.069 47.2654 44.4839C42.7496 49.06 41.2143 49.7825 40.0401 47.8557C39.2875 46.5913 39.2875 45.5376 40.0401 43.9119C40.853 42.1658 42.1776 40.6305 48.861 33.6159C52.0221 30.3043 55.2132 26.782 55.9358 25.7885C58.7055 22.0554 60 18.4729 60 14.7398C60 12.8131 59.8495 12.1207 59.0968 10.5251C56.7185 5.4975 50.8179 2.81812 45.7602 4.50402ZM51.7511 6.85224C52.9553 7.1834 53.7983 7.7554 55.0928 9.01982C58.3442 12.1809 58.6152 15.7634 56.0562 21.2125C54.8219 23.8317 52.5038 26.6315 45.3989 33.9772C38.4446 41.1724 37.6317 42.3766 37.3909 45.5376C37.2102 47.9762 37.6016 49.06 39.0467 50.3244C39.8595 51.0469 40.3412 51.2275 41.4852 51.2275C43.2915 51.2275 44.4656 50.4749 47.8073 47.1934L50.276 44.7549L51.2393 45.7484L52.2027 46.7117L49.7642 49.0299C46.5429 52.1006 44.4054 53.3951 42.298 53.5758C39.8595 53.7865 38.7456 53.4553 37.1801 52.0705C35.3136 50.4147 34.6212 48.9094 34.6212 46.3806C34.6212 42.226 36.5178 38.9145 42.2077 33.1643C50.6071 24.7047 52.293 22.7479 53.6478 20.0083C54.7316 17.8106 54.9423 17.0881 55.0326 15.2817C55.1229 12.6927 54.4606 11.2777 52.4436 9.83267C51.2995 9.04993 50.8781 8.92951 49.1019 8.92951C47.3256 8.92951 46.9042 9.04993 45.4591 9.9832C44.5559 10.5552 42.3583 12.4217 40.5519 14.1076C38.7757 15.8236 37.2102 17.2085 37.0898 17.2085C36.6081 17.2085 35.4641 15.7333 35.6147 15.3118C35.8254 14.7398 41.3648 9.74235 43.141 8.53814C46.3021 6.34045 48.5901 5.88887 51.7511 6.85224ZM31.701 16.0344C34.4706 17.4493 37.3307 20.4599 37.3307 21.935C37.3307 22.3866 36.8189 23.1995 36.0662 24.0123L34.7717 25.367L30.8881 21.6641L27.0045 17.931L28.4496 16.6666C29.2323 15.9742 30.0151 15.4022 30.1656 15.4022C30.3161 15.4022 31.0085 15.7032 31.701 16.0344ZM29.4431 23.6209L33.1159 27.2938L28.8108 31.5687L24.5359 35.8738L20.8329 32.201L17.13 28.5281L19.0266 26.5713C23.8133 21.5738 25.439 19.918 25.5896 19.918C25.6799 19.918 27.3959 21.5738 29.4431 23.6209ZM19.2373 34.1879L22.9403 37.8909L21.5253 39.0048C20.7426 39.6069 19.8394 40.0886 19.5685 40.0886C18.003 40.0886 12.9453 35.1212 12.9453 33.6159C12.9453 32.9536 14.8118 30.4548 15.3236 30.4548C15.4139 30.4548 17.1902 32.1407 19.2373 34.1879Z" fill="#344045"/>
</svg>
