<svg width="60" height="60" viewBox="0 0 60 60" fill="none" xmlns="http://www.w3.org/2000/svg">
<path d="M16.6639 4.11135C12.8248 4.72338 9.34736 6.58729 6.25939 9.70307C3.47744 12.5128 2.36466 14.2933 1.0015 18.1324L0 20.97V25.9775C0 30.9294 0.0278195 31.0128 0.945864 33.6835C2.58722 38.4963 5.20225 42.1406 9.15263 45.2564C12.6022 47.9827 17.2759 50.2918 21.6992 51.3767C23.4797 51.8497 31.1579 53.1015 32.1316 53.1015C32.2428 53.1015 32.4098 53.5745 32.521 54.1865C32.6045 54.7707 32.8549 55.4106 33.0774 55.5775C33.2722 55.7444 34.4406 56.1061 35.6368 56.3564C37.4173 56.7181 39.7541 56.8015 48.0443 56.8294L58.2541 56.8572L59.033 56.0782C59.7564 55.3827 59.812 55.1324 59.8955 52.7121C60.0067 50.1805 59.9789 50.097 59.2556 49.5128C58.5045 48.9286 58.2819 48.9286 48.9902 48.9286C38.9752 48.9286 34.8579 49.2624 33.2443 50.2361C32.4932 50.6812 32.215 50.6534 27.7639 49.9579C22.1722 49.0955 19.3346 48.2609 15.4398 46.2579C10.0707 43.5038 6.87142 40.4715 4.59022 35.9925C2.89323 32.6542 2.30902 30.0113 2.30902 25.8384C2.2812 21.6655 2.86541 19.1617 4.61804 15.7955C6.62105 11.9286 10.5714 8.50683 14.4383 7.19931C17.4985 6.19781 20.503 6.14217 18.3053 7.14368C15.5233 8.39555 11.4338 12.5963 9.65338 16.0459C5.03534 24.976 6.48195 34.9632 13.3534 41.3617C21.7827 49.2624 35.0804 49.0955 43.1481 41.0279C45.5684 38.5797 47.1819 36.1316 48.3225 33.1549C49.0458 31.2632 49.4631 30.5955 50.9376 29.1489L52.718 27.3963V34.2677V41.1391L53.4135 41.473C53.9977 41.7234 54.2203 41.7234 54.5819 41.3617C54.9714 40.9722 55.027 40.0264 54.9714 34.1564C54.9158 27.0346 54.721 25.9219 53.6082 25.3098C52.5789 24.7534 51.8278 24.976 50.7428 26.1166C50.1586 26.7286 49.63 27.2294 49.6022 27.2294C49.5466 27.2294 49.5744 26.4782 49.6022 25.5602C49.6857 24.1136 49.8248 23.8076 50.5481 23.1955C52.1338 21.8602 54.5819 22.4444 56.1955 24.5587C57.5864 26.3948 57.7255 27.4519 57.7255 36.1594C57.7255 43.8098 57.7534 44.1993 58.2541 44.4775C58.9496 44.8391 59.0052 44.8391 59.506 44.3106C60.1458 43.6985 60.1736 28.982 59.5338 26.5895C58.8383 23.9467 57.2804 21.888 55.1661 20.8031C53.8864 20.1632 51.3549 20.1076 50.2143 20.6918C49.4075 21.1091 49.3797 21.1091 49.2128 20.358C48.1556 15.5174 45.4571 10.955 42.091 8.28428C40.1436 6.72638 36.6105 5.05721 34.218 4.55646C32.8549 4.27826 30.6571 4.13917 26.9849 4.16699C24.0917 4.16699 20.8925 4.11135 19.891 4.02789C18.8895 3.97225 17.4428 4.00007 16.6639 4.11135ZM34.6353 7.06022C39.5872 8.39555 43.8992 12.3459 45.9857 17.4925C47.4601 21.0534 47.7661 26.4782 46.7368 30.4286C45.1511 36.5211 40.3383 41.7512 34.3571 43.782C31.3248 44.8113 26.6789 45.0617 23.6466 44.3384C20.503 43.6151 17.4985 42.0015 15.0504 39.7203C11.5451 36.4376 9.70902 32.682 9.403 28.0083C8.90225 20.7196 12.2962 13.876 18.3609 9.84217C20.3917 8.50683 24.1752 7.0324 26.5955 6.67074C28.821 6.33691 32.6045 6.50383 34.6353 7.06022ZM48.7676 52.7955L48.8511 54.4925H44.7894H40.7556V52.8512C40.7556 50.876 40.5609 50.9594 45.3458 51.0429L48.6842 51.0985L48.7676 52.7955ZM57.7255 52.4617C57.7255 54.576 57.6143 54.6316 54.1925 54.6316H51.1879L51.1045 52.879L51.021 51.1542H54.3872H57.7255V52.4617ZM38.5301 52.8512V54.2978L37.2504 54.103C36.527 54.0196 35.7203 53.9361 35.4421 53.9361C35.0248 53.9361 34.9135 53.7136 34.9135 52.8512V51.7384L36.2489 51.6271C36.9722 51.5715 37.7789 51.5158 38.0571 51.488C38.4466 51.4324 38.5301 51.6549 38.5301 52.8512Z" fill="#344045"/>
<path d="M27.2631 9.06325C21.4488 9.87002 16.33 13.5144 13.7984 18.6332C11.3225 23.6407 11.239 29.3437 13.5481 33.6835C14.6887 35.8535 17.415 38.7745 19.3902 39.9429C21.5879 41.2783 25.3157 42.252 28.0977 42.252C32.6601 42.252 36.5548 40.5828 40.0879 37.0775C45.1789 32.07 46.3751 24.1414 43.1202 17.27C40.4496 11.5948 33.7729 8.17303 27.2631 9.06325ZM32.3541 11.5114C39.0029 13.0971 43.1759 19.1061 42.6195 26.3948C42.23 31.2632 39.309 35.7978 35.0247 38.1903C32.5488 39.5813 32.2428 39.4144 33.8841 37.6896C37.5007 33.9339 39.0864 27.6467 37.8067 22.2219C36.8608 18.1324 33.912 13.9039 30.824 12.1512C30.0172 11.7061 29.3496 11.261 29.3496 11.2054C29.3496 10.9828 30.6571 11.1219 32.3541 11.5114ZM27.1796 13.0414C30.6014 14.3211 33.4112 17.0753 34.8022 20.5249C35.3864 21.9715 35.5811 22.973 35.6924 25.2542C35.8315 28.4813 35.4977 30.4565 34.4405 32.7377C32.827 36.1873 28.3202 39.5535 25.3157 39.5813C23.6187 39.6091 21.0315 38.4685 18.8338 36.7159C13.7428 32.6542 12.7135 24.058 16.6082 18.1602C17.9157 16.2407 20.1413 14.1264 22.033 13.0971C23.8691 12.0678 24.6202 12.0678 27.1796 13.0414Z" fill="#344045"/>
</svg>
