<svg width="60" height="60" viewBox="0 0 60 60" fill="none" xmlns="http://www.w3.org/2000/svg">
<g clip-path="url(#clip0_2134_286)">
<path d="M50.3463 0.430008C48.9857 1.07628 41.8087 8.38932 41.3665 9.57981C41.1625 10.124 40.9924 10.8383 40.9924 11.2465C40.9924 11.6547 39.0876 13.9676 36.1964 17.0629C33.5433 19.9201 31.3324 22.4372 31.2303 22.6753C30.9922 23.2535 31.7405 24.1039 32.4888 24.1039C32.829 24.1039 35.0399 22.063 37.4209 19.5119C39.8359 16.9609 41.8767 14.954 42.0128 14.9881C42.1489 15.0561 42.9312 15.6683 43.7135 16.3826L45.1421 17.7092L40.5162 22.3691C37.9651 24.9542 35.8903 27.3012 35.8903 27.6073C35.8903 28.3896 37.0808 28.9679 37.8631 28.5597C38.1692 28.3896 40.5162 26.1447 43.0332 23.6277C45.8904 20.7365 47.8632 19.0017 48.3054 19.0017C50.4143 19.0017 51.7749 18.1854 55.0402 14.954C59.326 10.7703 60.1764 9.40974 59.9723 6.92671C59.7682 4.71579 58.6457 2.91304 56.4008 1.31438C54.564 -0.0121756 52.047 -0.386331 50.3463 0.430008ZM54.6321 3.18515C55.8566 3.83142 57.6593 6.24643 57.6593 7.23284C57.6593 8.25326 56.6389 9.74988 54.3599 12.1989L52.3871 14.3078L49.3258 11.2125C47.6251 9.47777 46.2306 7.94713 46.1625 7.81108C46.1285 7.67502 47.217 6.45051 48.6456 5.12396C51.4347 2.43684 52.5232 2.0967 54.6321 3.18515ZM49.4959 16.0765C48.4075 16.5867 47.0129 15.9405 45.1761 14.1037C43.3394 12.2669 43.0332 11.4166 43.7815 10.056C44.1217 9.37573 44.3258 9.51179 47.1489 12.539C49.802 15.3962 50.0742 15.8044 49.4959 16.0765Z" fill="#344045"/>
<path d="M9.25714 0.70206C8.71292 0.906145 8.23672 1.38234 8.13468 1.85854C7.96461 2.53882 8.27073 3.04904 9.83538 4.71573C10.8898 5.80418 11.9102 7.13073 12.0803 7.64095C12.9647 9.91989 11.1279 12.1988 8.47482 12.1988C7.08024 12.1988 6.77411 12.0288 4.76728 10.158C3.57678 9.03553 2.25023 8.11714 1.87607 8.11714C-0.0967465 8.11714 -0.674987 12.9812 0.923678 16.1105C1.9441 18.0833 3.84889 19.9881 5.7877 21.0085C6.84214 21.5527 7.76052 21.7228 9.8694 21.7228C14.9035 21.7228 13.3388 20.4983 33.1691 40.2605C42.9992 50.0226 51.3667 58.22 51.7748 58.4241C52.9313 59.0023 55.0062 58.8663 56.2307 58.1179C58.3055 56.8594 59.1899 54.3764 58.3396 52.1655C58.1355 51.6553 49.836 43.1177 39.8699 33.1856L21.7403 15.09V11.6206C21.7403 8.35524 21.6723 8.04912 20.5839 5.87221C19.2913 3.32115 17.1144 1.34833 14.8014 0.668046C13.2708 0.225862 10.5497 0.225862 9.25714 0.70206ZM14.4953 3.49122C15.9919 4.13749 17.6927 5.90622 18.4069 7.60693C18.7811 8.4913 19.0532 10.26 19.1553 12.607L19.3253 16.2805L37.3188 34.206C47.2169 44.1041 55.5504 52.6077 55.8225 53.1179C56.2987 53.9682 56.2987 54.1723 55.8225 54.9206C55.2103 55.839 53.9857 56.2472 52.7612 55.941C52.285 55.839 44.7339 48.4239 34.8018 38.3557C21.7743 25.1242 17.2845 20.7704 15.9919 20.1241C14.6314 19.4098 13.645 19.2058 11.0599 19.0697C6.33193 18.8316 4.39312 17.6411 3.06657 14.0696C2.31826 12.1988 2.59037 11.7907 3.84889 12.9472C5.61763 14.5798 6.39996 14.92 8.30475 14.92C11.8422 14.92 14.6314 12.7091 15.0395 9.54574C15.2776 7.74299 14.6994 6.14432 13.2708 4.54566C12.6245 3.86538 12.0803 3.21911 12.0803 3.15108C12.0803 2.84495 13.4409 3.04904 14.4953 3.49122Z" fill="#344045"/>
<path d="M18.1009 35.2604C15.0396 38.2536 14.9376 38.3217 13.1008 38.4577C7.65853 38.8999 1.05979 45.3626 0.311476 51.0089C0.00534833 53.1518 1.12782 55.6689 3.23669 57.5397C5.03944 59.1723 6.74015 59.8186 9.15515 59.8186C13.9511 59.8186 20.856 53.0158 21.7744 47.3694C22.0465 45.6007 23.4751 43.1177 25.4819 40.8727C27.1146 39.07 27.4208 38.0836 26.5364 37.3693C25.7541 36.723 24.9377 37.2332 23.169 39.4781C22.2166 40.6686 21.3662 41.7231 21.2642 41.8931C21.1621 42.0292 20.3458 41.451 19.4955 40.6346L17.9308 39.138L20.2778 36.825C22.7608 34.342 23.203 33.2876 21.9105 32.6073C21.2982 32.2671 20.856 32.5733 18.1009 35.2604ZM16.7743 41.7911C19.4614 43.4578 19.9036 46.1449 18.0328 49.8865C15.958 54.0022 10.9239 57.8118 8.23677 57.3016C5.85578 56.8594 3.37275 54.4784 3.03261 52.2675C2.72648 50.4647 3.985 47.6415 6.12789 45.2605C9.4953 41.553 13.9852 40.0904 16.7743 41.7911Z" fill="#344045"/>
<path d="M11.4681 43.1857C9.63129 44.1041 6.19586 47.4715 5.27748 49.2402C4.05297 51.7233 4.52917 53.7981 6.63805 54.8866C7.79453 55.4648 9.29115 55.5329 10.5837 55.0567C11.8082 54.5805 16.3321 50.1586 16.9783 48.764C18.1008 46.4171 17.3865 44.1381 15.1416 42.9816C13.815 42.3014 13.2028 42.3354 11.4681 43.1857ZM14.5974 45.7368C14.9035 46.0089 15.1416 46.349 15.1416 46.4171C15.1416 47.4035 11.1279 51.7913 9.42721 52.6757C8.78094 52.9818 8.47481 52.9478 7.79453 52.5056C7.35234 52.2335 6.97819 51.8933 6.97819 51.7913C6.97819 50.6008 12.2504 45.1926 13.4069 45.1926C13.781 45.1926 14.3252 45.4307 14.5974 45.7368Z" fill="#344045"/>
</g>
<defs>
<clipPath id="clip0_2134_286">
<rect width="60" height="60" fill="white"/>
</clipPath>
</defs>
</svg>
