<svg width="60" height="60" viewBox="0 0 60 60" fill="none" xmlns="http://www.w3.org/2000/svg">
<g clip-path="url(#clip0_2134_286)">
<path d="M17.7488 1.33956C14.9355 2.89358 10.3806 4.8495 6.22766 6.29634C4.62006 6.859 3.06604 7.50204 2.8249 7.74318C2.3962 8.11829 2.34262 9.19003 2.18186 17.9515C1.9943 28.7224 2.15506 31.4018 3.30718 34.8313C4.64685 38.7432 7.2726 42.0923 11.8275 45.5219C14.1049 47.2635 18.0703 49.5677 20.8033 50.7734L21.9822 51.2825L24.9563 49.7552C33.8249 45.1736 39.2907 39.3594 41.1663 32.5003C41.7557 30.3568 41.7021 30.2764 40.0141 30.2764C39.1836 30.2764 39.1568 30.3032 38.4601 32.6075C37.442 35.8763 36.1023 38.0465 33.289 40.8866C30.8508 43.3516 26.671 46.3793 23.429 47.9869L21.8214 48.8175L20.2674 48.0137C13.0868 44.3162 8.23717 40.0828 6.17407 35.7691C4.59326 32.4199 4.4593 31.241 4.53968 19.6663L4.62006 9.32399L9.04097 7.79677C11.4792 6.93938 15.1767 5.41216 17.2933 4.34042L21.1248 2.43809L22.3841 3.16151C23.563 3.85814 29.2968 6.61786 31.1991 7.39487C31.9493 7.71639 32.1101 7.6896 32.6192 7.2877C33.8249 6.32313 33.2622 5.84085 27.1265 2.83999C23.9917 1.25918 21.1248 -0.000110824 20.7765 -0.000110824C20.455 0.0266826 19.0885 0.616138 17.7488 1.33956Z" fill="#344045"/>
<path d="M40.5233 3.72434C38.3531 4.28701 35.1111 5.49271 34.5752 5.9214C34.1465 6.29651 34.0661 17.6033 34.4948 19.854C35.3254 24.1409 38.889 28.1867 44.5156 31.1608L45.8552 31.8574L46.793 31.2948C49.0437 29.9551 52.0713 27.6241 53.277 26.3112C53.9736 25.5342 54.965 24.0873 55.4473 23.096L56.3315 21.3008L56.4922 13.9326C56.5994 9.88683 56.5726 6.37689 56.4386 6.13575C56.3315 5.89461 54.6435 5.25157 52.3928 4.55494C48.9633 3.51 48.2399 3.37603 45.4801 3.29565C43.1491 3.24206 41.9434 3.34924 40.5233 3.72434ZM50.6245 6.59124C52.4196 7.10031 54.0272 7.63618 54.1344 7.74336C54.2684 7.87732 54.2416 10.8514 54.1344 14.3613C53.8397 21.7563 53.7057 22.2922 51.3211 24.8108C49.7403 26.4987 46.4447 28.9369 45.7481 28.9369C44.9711 28.9369 41.3004 26.3112 39.7195 24.5964C38.8622 23.6854 37.844 22.2654 37.4689 21.4348C36.7723 19.9879 36.7723 19.8808 36.7723 13.6915V7.42183L37.844 7.04673C42.6936 5.30516 45.8284 5.19798 50.6245 6.59124Z" fill="#344045"/>
<path d="M43.0687 13.6916C40.7376 16.9604 40.2822 17.9517 40.4429 19.5593C40.6037 21.2741 41.3539 22.6406 42.6132 23.5783C44.6763 25.0788 46.7662 24.8912 48.8293 23.0157C50.1689 21.7832 50.7316 20.2024 50.4637 18.3268C50.2761 16.9604 49.8474 16.1298 47.6771 13.0217C45.7212 10.2084 45.5337 10.2352 43.0687 13.6916ZM47.6236 17.3087C47.9183 17.8981 48.1594 18.6751 48.1594 19.0502C48.1594 20.5239 46.1231 22.4798 44.971 22.1047C44.7299 22.0243 44.1404 21.5956 43.7117 21.1401C42.4792 19.8272 42.6132 18.5412 44.2476 16.2369L45.5605 14.3882L46.3107 15.2992C46.7394 15.8082 47.3288 16.6924 47.6236 17.3087Z" fill="#344045"/>
<path d="M30.0739 12.325C29.5916 12.8341 29.5916 12.9144 30.0203 13.8254C30.6098 15.0311 30.583 15.7278 29.9935 16.0493C29.3773 16.3708 27.1266 15.3794 24.4205 13.5575C23.4023 12.8877 22.4378 12.325 22.277 12.325C22.1162 12.325 21.5 12.6733 20.9105 13.102C19.1422 14.3881 17.3202 15.1919 14.2122 16.1029C12.6314 16.5584 11.1042 17.0674 10.863 17.2014C10.4343 17.4157 10.3807 18.0052 10.3807 23.7926C10.3807 31.8306 10.7023 33.1703 13.1137 35.796C14.5873 37.3768 20.9105 42.0657 21.6072 42.0657C22.277 42.0657 27.1266 38.7969 29.1629 37.0017C31.869 34.5903 33.3159 31.7234 33.4767 28.5886C33.5302 27.0614 33.0212 26.3647 32.003 26.6327C31.4136 26.7666 31.3064 26.981 31.1724 28.3207C30.8509 31.1072 30.2882 32.3397 28.4395 34.2688C27.5017 35.2869 25.5994 36.8945 24.2061 37.8591L21.6608 39.6275L18.6867 37.3768C15.4447 34.885 14.7481 34.2152 13.6495 32.42L12.9261 31.2143L12.8457 25.1322L12.7654 19.0501L14.3194 18.6214C17.6418 17.6837 19.2226 17.0942 20.723 16.1832L22.277 15.2455L23.5095 15.9421C26.3764 17.6033 28.6538 18.5679 29.6988 18.5679C31.9226 18.5679 33.2891 16.478 32.6461 14.1202C32.271 12.8341 31.4939 11.7891 30.9045 11.7891C30.7169 11.7891 30.3418 12.0303 30.0739 12.325Z" fill="#344045"/>
<path d="M26.805 20.8185C26.5103 21.0865 25.2242 22.6673 23.9381 24.3017C22.652 25.9629 21.5267 27.3293 21.4463 27.3293C21.366 27.3293 20.6425 26.7131 19.8655 25.9897C18.4455 24.65 17.722 24.3821 17.1326 24.9715C16.436 25.6681 16.8111 26.4452 18.7938 28.3475C20.1602 29.6872 20.9908 30.2766 21.4195 30.2766C21.9554 30.2766 22.7324 29.446 25.3582 26.0968C27.1533 23.8194 28.6002 21.7563 28.5466 21.5152C28.493 21.274 28.2251 20.9257 27.9035 20.7114C27.3945 20.3898 27.2605 20.4166 26.805 20.8185Z" fill="#344045"/>
<path d="M41.9969 34.3225C41.7557 34.7512 41.7557 35.0727 41.9701 35.555C42.2648 36.2248 42.2916 36.2248 45.0513 36.0372C48.7756 35.7693 49.9009 35.9837 50.3028 37.0018C50.7315 37.9932 50.4636 39.0113 49.6866 39.44C49.3115 39.6543 47.5163 39.7883 44.6762 39.8419C39.4247 39.9491 39.1836 40.0027 38.6209 40.8601C38.2458 41.4227 38.2458 41.6103 38.5405 41.9586C38.8353 42.3337 39.6391 42.3605 45.2121 42.1729C51.2942 42.0122 51.5621 42.0122 52.6339 42.548C54.8041 43.6734 56.4653 46.4063 56.4653 48.8981C56.4653 51.8186 54.7237 54.5783 52.1248 55.7572L50.7047 56.4002L36.7722 56.4806C20.1335 56.561 16.8915 56.3198 11.5864 54.5783C8.47833 53.5869 8.96061 53.3458 14.1317 53.3458C16.6771 53.319 18.8474 53.2654 18.9813 53.1582C19.3297 52.9439 19.2761 51.8721 18.901 51.497C18.6866 51.2827 17.1058 51.1755 13.5959 51.1755C8.66588 51.1755 8.5855 51.1755 7.99604 51.8186C6.87072 53.0243 7.40659 55.2749 9.01419 56.1055C10.0591 56.6414 13.3815 57.5256 16.4092 58.0614C18.767 58.4901 20.9641 58.5437 35.1646 58.5437H51.2406L52.8482 57.9007C54.7505 57.1237 56.8672 55.1409 57.805 53.185C58.3677 52.0329 58.4748 51.4702 58.4748 49.166C58.4748 46.835 58.3944 46.2991 57.7782 45.013C56.9476 43.2715 54.9649 41.2084 53.3573 40.4582C52.232 39.8955 52.232 39.8955 52.4999 38.9577C52.9018 37.5109 52.5267 35.9837 51.5085 34.8583L50.6244 33.8938L46.4714 33.8134C42.3988 33.733 42.2916 33.733 41.9969 34.3225Z" fill="#344045"/>
<path d="M6.14734 45.9775C4.43256 46.8349 3.0393 48.4157 2.42305 50.2108C1.88719 51.8184 1.86039 54.6318 2.34267 56.1322C3.30724 59.1866 6.46886 61.089 7.62097 59.3206C8.04967 58.624 8.04967 58.5972 7.46021 58.1149C7.1119 57.8202 6.62962 57.6058 6.38848 57.6058C5.74544 57.6058 4.78087 56.5341 4.48615 55.4356C4.05745 53.9887 4.19142 51.6845 4.72729 50.5056C5.53109 48.7104 6.81717 47.8262 8.90706 47.6387C10.4879 47.4779 9.84483 45.2809 8.23722 45.2809C7.86212 45.2809 6.92435 45.6024 6.14734 45.9775Z" fill="#344045"/>
<path d="M33.8249 45.8971C33.4766 46.4329 33.4498 46.7009 33.6909 47.1296C33.9588 47.6922 34.1732 47.6922 41.9969 47.6922C49.6866 47.6922 50.0617 47.719 50.5708 48.2281C51.2406 48.8979 51.2674 49.8893 50.6243 50.452C50.1689 50.8539 48.9096 50.9074 37.8975 50.9074C26.0548 50.9074 25.6261 50.9342 25.117 51.4433C24.5812 51.9792 24.6347 52.7026 25.2242 53.1045C25.385 53.2117 31.0652 53.3188 37.8439 53.3188C49.0435 53.3188 50.2492 53.2653 51.1066 52.8366C53.8128 51.4969 53.9735 47.6119 51.4014 46.031C50.4636 45.4416 50.1956 45.4148 42.3452 45.3344L34.2804 45.2272L33.8249 45.8971Z" fill="#344045"/>
</g>
<defs>
<clipPath id="clip0_2134_286">
<rect width="60" height="60" fill="white"/>
</clipPath>
</defs>
</svg>
