<svg width="60" height="60" viewBox="0 0 60 60" fill="none" xmlns="http://www.w3.org/2000/svg">
<g clip-path="url(#clip0_2134_286)">
<path d="M14.0705 5.53096C13.628 6.00293 13.569 6.97636 13.569 12.9054V19.749H10.9732C8.31839 19.749 7.66943 19.9849 7.66943 20.9584C7.66943 21.2239 10.0883 24.9406 13.0676 29.2178C19.6161 38.6866 19.1441 38.4212 22.1234 34.2029C23.1853 32.6691 25.6927 29.0998 27.669 26.2975C29.6454 23.4952 31.2678 21.0174 31.2678 20.8109C31.2678 19.9554 30.5303 19.749 27.5215 19.749H24.4833V12.8759C24.4833 6.56339 24.4243 5.94393 23.9523 5.50146C23.4803 5.08849 22.6839 5 18.9671 5C15.0439 5 14.4835 5.05899 14.0705 5.53096ZM21.8284 14.4688C21.7989 22.8757 21.6515 22.5218 25.1322 22.3448C26.4006 22.2858 27.4035 22.3153 27.3741 22.4333C27.2266 22.7283 20.678 31.9611 19.9701 32.846L19.2621 33.7015L17.1088 30.6337C15.9289 28.9523 14.1 26.4155 13.0676 24.9701C12.0646 23.5542 11.2092 22.3448 11.2092 22.2563C11.2092 22.1973 12.1531 22.1678 13.3035 22.1973C14.7784 22.2563 15.5454 22.1678 15.8109 21.8728C16.1353 21.5483 16.2238 20.0144 16.2238 14.4098V7.33033L19.0556 7.41883L21.8579 7.50732L21.8284 14.4688Z" fill="#344045"/>
<path d="M35.6925 6.4453C31.4743 7.06476 26.2532 9.27711 26.2532 10.4865C26.2532 10.7225 26.5187 11.165 26.8431 11.4895C27.4036 12.0499 27.4331 12.0499 29.8519 10.8995C41.0316 5.53087 53.9517 11.283 57.108 23.0231C57.7865 25.5895 57.816 30.4861 57.1375 33.0229C56.1346 36.8282 54.0697 40.0729 51.0904 42.5508C49.2026 44.1437 44.1289 46.7395 42.3295 47.064C40.4417 47.3884 40.0582 47.6834 40.1762 48.7453C40.2647 49.6893 40.2942 49.6893 41.7691 49.6598C43.421 49.6008 46.8132 48.3029 49.7925 46.533C52.3293 45.0581 56.2821 40.9579 57.58 38.4801C59.5268 34.7338 60.0283 32.5215 59.9988 28.0083C59.9988 24.675 59.8808 23.6426 59.2614 21.6662C58.1404 18.038 56.6065 15.5307 53.6862 12.6399C51.5919 10.5455 50.648 9.86706 48.3471 8.71665C46.8427 7.9792 44.8074 7.18275 43.8634 6.94677C41.7101 6.38631 37.7869 6.15033 35.6925 6.4453Z" fill="#344045"/>
<path d="M34.955 15.9436L34.1881 16.8875L34.2471 22.2267L34.3061 27.5658L33.0672 27.6543C32.0937 27.7428 31.7693 27.8903 31.5038 28.4507C31.0613 29.4537 31.5923 30.0141 33.1262 30.1321C34.3651 30.2206 34.3651 30.2206 34.3651 31.4005V32.5804L33.0377 32.7279C31.7987 32.8754 31.7103 32.9344 31.6218 33.8194C31.5038 34.9108 32.3297 35.5302 33.5096 35.2943C34.0111 35.2058 34.3356 35.3238 34.5421 35.7072C34.955 36.5037 36.4594 36.4447 36.8724 35.6482C37.1969 35.0878 37.4329 35.0583 40.8841 35.1173C44.7188 35.2058 45.1318 35.0878 45.1318 33.9079C45.1318 32.8754 44.6893 32.7574 40.8546 32.6689L37.0199 32.5804V31.4005V30.2206L40.2647 30.0436C44.0699 29.8666 45.2793 29.3652 47.1082 27.3003C49.173 24.97 49.527 22.0792 48.1406 19.4244C46.5182 16.2976 43.8044 15.0292 38.7603 15.0292H35.7515L34.955 15.9436ZM42.9785 18.0085C43.9814 18.3919 45.3383 19.6309 45.8988 20.6928C46.5477 21.9317 46.4297 23.9376 45.6628 25.0585C44.2764 27.0938 42.89 27.6248 39.0847 27.5953L37.0199 27.5658L36.9314 22.6101L36.8724 17.684H39.4977C40.9431 17.684 42.5065 17.8315 42.9785 18.0085Z" fill="#344045"/>
<path d="M11.2682 35.2353C6.90252 36.0613 3.42176 37.4182 1.68138 39.0406C0.353975 40.2795 0 41.5184 0 45.0581C0 47.7719 0.0884938 48.4209 0.678452 49.5418C2.53682 53.2291 9.55733 55.4414 19.4096 55.4414C28.259 55.4414 35.1615 53.406 37.4034 50.1318C37.9933 49.2468 38.0523 48.8339 38.0523 45.1171C38.0523 41.3709 37.9933 41.0464 37.3739 40.1615C36.5184 39.0111 35.6335 38.3031 34.0111 37.4772C32.2707 36.6217 27.9935 35.4418 25.4272 35.1468C23.6278 34.9403 23.2444 34.9698 22.8609 35.3828C22.3594 35.9433 22.2709 36.7397 22.7134 37.0052C22.8904 37.1232 24.2473 37.3887 25.7517 37.6247C27.2561 37.8311 29.3504 38.2736 30.4124 38.5981C32.4772 39.247 35.014 40.7219 35.309 41.4299C35.899 43.0228 30.5894 45.2646 24.2768 46.0316C20.796 46.474 13.8345 46.1791 10.4128 45.4416C6.16507 44.5567 2.94979 42.8458 2.94979 41.5184C2.94979 40.132 6.90252 38.3916 11.7402 37.6247C14.8375 37.1232 15.0439 37.0347 15.0439 36.2678C15.0439 35.7663 13.982 34.7339 13.569 34.8224C13.4806 34.8519 12.4481 35.0288 11.2682 35.2353ZM4.3362 46.1791L5.60461 46.7395V48.5684C5.60461 49.6008 5.48662 50.4268 5.36862 50.4268C5.22113 50.4268 4.54268 50.0138 3.89373 49.5418C2.68431 48.6864 2.65481 48.5979 2.65481 47.005C2.65481 46.0906 2.74331 45.4121 2.8908 45.4711C3.00879 45.5301 3.65774 45.8546 4.3362 46.1791ZM35.6925 46.9755C35.6925 48.2439 35.5745 48.6569 35.0435 49.1288C34.3061 49.7778 32.8607 50.7217 32.5952 50.7217C32.5067 50.7217 32.4477 49.8368 32.4477 48.7159V46.7395L33.8636 46.0906C34.6306 45.7661 35.3385 45.4416 35.486 45.4416C35.604 45.4121 35.6925 46.1201 35.6925 46.9755ZM11.0617 48.0964L12.9791 48.4209V50.4858V52.5506L11.7402 52.3441C9.9113 52.0196 8.20042 51.4887 8.22992 51.2232C8.25942 51.1052 8.25942 50.2203 8.25942 49.2173C8.25942 47.7424 8.34791 47.4475 8.70189 47.595C8.93787 47.6835 9.9998 47.9194 11.0617 48.0964ZM30.0879 49.5123V51.5477L28.0525 52.0196C26.9021 52.2851 25.8402 52.4916 25.6927 52.4916C25.4862 52.4916 25.3682 51.6952 25.3682 50.4563V48.4209L27.5216 47.9784C28.672 47.7424 29.7339 47.536 29.8814 47.5065C29.9994 47.5065 30.0879 48.3914 30.0879 49.5123ZM23.0084 50.6922V52.7276L21.032 52.8456C19.9111 52.9046 18.2002 52.9046 17.1973 52.8456L15.3389 52.7571V50.7217V48.6569H19.1737H23.0084V50.6922Z" fill="#344045"/>
<path d="M12.6841 40.722C12.4186 41.2234 12.4481 41.4299 12.8611 41.9019C13.333 42.4329 13.746 42.4624 19.2621 42.4034C24.5127 42.3149 25.1912 42.2559 25.4862 41.7839C25.7221 41.4299 25.7221 41.1349 25.4862 40.7515C25.1912 40.309 24.4832 40.25 19.0851 40.1615C13.156 40.1025 13.0085 40.1025 12.6841 40.722Z" fill="#344045"/>
</g>
<defs>
<clipPath id="clip0_2134_286">
<rect width="60" height="60" fill="white"/>
</clipPath>
</defs>
</svg>
