<svg width="60" height="60" viewBox="0 0 60 60" fill="none" xmlns="http://www.w3.org/2000/svg">
<path d="M21.7584 0.116077C19.8327 0.353806 18.8818 0.662853 16.9325 1.68509C13.8182 3.27787 11.5122 5.91666 10.3711 9.14978C9.80059 10.7188 9.72927 11.3369 9.63418 15.093L9.53908 19.3008L8.37421 19.3959C6.87652 19.5385 5.52147 20.4657 4.66564 21.892L4 23.0331L4.07132 35.8705C4.16641 47.9947 4.19018 48.7792 4.64187 49.8014C5.56901 51.9885 5.9256 52.2263 15.7676 56.9095C21.7821 59.786 22.3527 60 23.8741 60C24.8488 60 25.5858 59.7147 28.8427 58.0268C30.9347 56.9333 32.9316 55.8397 33.2882 55.5782C33.9301 55.1028 33.9301 55.079 33.5259 54.4609C33.2882 54.1043 32.9554 53.819 32.7652 53.819C32.575 53.819 30.6494 54.7462 28.4623 55.8635C25.5858 57.3612 24.2783 57.9318 23.6364 57.9318C22.8044 57.9318 18.3351 55.9111 10.4187 51.9885C7.37575 50.4908 7.30443 50.4195 6.75766 49.326C6.35352 48.5415 6.30597 47.3528 6.18711 36.0607L6.06824 23.6512L6.59125 22.8667C6.87652 22.4388 7.37575 21.9634 7.6848 21.797C8.13648 21.5592 11.8451 21.4879 23.779 21.4879H39.2552L39.9922 22.106C40.8242 22.7954 41.2759 24.0554 41.157 25.2916L41.0857 26.1236L35.0949 28.1443C31.7905 29.2616 28.9853 30.2839 28.8427 30.4265C28.391 30.8782 28.0106 39.1274 28.3434 41.6949C28.4861 42.9311 28.6763 44.191 28.7476 44.5001C28.8902 44.9993 28.8189 44.9755 27.4163 44.1673C26.3703 43.5254 25.8473 43.3352 25.5858 43.5016C25.3956 43.6205 24.8013 44.7616 24.2783 46.0453C23.7315 47.329 23.2323 48.28 23.1372 48.1849C23.0183 48.0898 22.7093 46.9487 22.424 45.6887C22.1387 44.405 21.7346 43.2401 21.5682 43.0975C21.3067 42.8835 20.7123 43.0499 18.9294 43.8344C17.6456 44.405 16.457 44.9518 16.3144 45.0944C15.7914 45.4748 15.9815 44.9993 17.194 42.6696C17.8121 41.4334 18.2875 40.2923 18.2162 40.1021C18.1449 39.9119 17.0275 39.27 15.7438 38.6757C14.4363 38.0814 13.3903 37.5108 13.3903 37.4395C13.3903 37.3682 14.4363 37.0354 15.72 36.7263C16.98 36.4173 18.1686 36.0607 18.3351 35.9181C18.8105 35.5377 18.6679 34.8007 17.6694 32.4472C17.1226 31.2348 16.7423 30.1888 16.7898 30.1175C16.8611 30.0699 17.9785 30.7118 19.3097 31.5676C20.641 32.4234 21.8297 33.1366 21.9485 33.1366C22.2814 33.1366 23.2323 31.7816 24.1119 30.0462L24.8964 28.5009L25.3481 30.0462C25.9899 32.3046 26.2277 32.8514 26.6318 32.994C27.0359 33.1604 27.7967 32.8038 27.9631 32.3521C28.177 31.7816 26.4416 25.2203 25.9662 24.6973C25.2767 23.9841 24.8964 24.3882 23.0659 27.5738C22.1863 29.119 21.378 30.379 21.2829 30.3552C21.1878 30.3314 19.7377 29.4518 18.026 28.382C15.6487 26.9081 14.7691 26.4802 14.2223 26.5278C13.5805 26.5991 13.5092 26.6704 13.5329 27.4311C13.5567 27.8828 14.1748 29.642 14.9118 31.3299C15.6487 32.994 16.243 34.3966 16.1955 34.4441C16.1479 34.4679 14.6978 34.8483 12.9386 35.3C9.30136 36.2033 8.63571 36.5837 9.03985 37.4633C9.23004 37.8912 10.0621 38.3904 12.2254 39.3651C13.842 40.1021 15.2684 40.839 15.3634 41.0292C15.5061 41.2432 15.0544 42.2416 14.0084 44.1197C12.3918 46.9725 12.2016 47.6143 12.796 48.1136C13.2952 48.5177 14.3174 48.2324 17.4079 46.7823C18.9056 46.0691 20.1656 45.5461 20.2131 45.5936C20.2844 45.6412 20.641 47.02 21.0214 48.6366C21.8772 52.2976 22.0199 52.6304 22.7568 52.6304C23.5175 52.6304 23.684 52.3927 25.1579 49.1833C25.8473 47.6619 26.4892 46.3544 26.5605 46.283C26.6318 46.2117 27.2499 46.4257 27.9155 46.7823C28.6049 47.1151 29.2944 47.4004 29.4132 47.4004C29.5559 47.4004 30.0313 48.1373 30.4592 49.0407C31.9094 52.0361 35.8557 55.7209 40.7053 58.5736L42.4645 59.6196L43.6294 58.9778C49.216 55.8635 53.4476 51.8459 55.0166 48.1849C56.2053 45.4272 56.4668 43.5729 56.5856 37.0354L56.7045 30.8069L56.134 30.4265C55.6823 30.1412 46.7199 27.1459 43.7958 26.3138C43.5105 26.2425 43.3679 25.7908 43.2728 24.5784C43.1302 22.843 42.5596 21.4641 41.6325 20.6083C40.9193 19.9427 39.5167 19.3483 38.6133 19.3483H37.9239L37.8288 15.3545C37.7337 11.8361 37.6624 11.1942 37.1156 9.64901C34.8097 3.20655 28.4861 -0.739748 21.7584 0.116077ZM25.5145 2.23186C28.9378 2.77864 32.6939 5.39366 34.2629 8.36527C35.4515 10.5999 35.7606 12.264 35.6893 15.9726L35.6179 19.2295L33.7874 19.3008L31.9331 19.3721V15.8537C31.9094 13.1436 31.8143 12.0738 31.5052 11.218C30.5305 8.55545 28.3197 6.60608 25.4907 5.89289C21.3067 4.87066 16.8849 7.41436 15.6487 11.5746C15.411 12.3829 15.2921 13.833 15.2921 16.0677V19.3483H13.5092H11.7262V16.0439C11.7262 12.1927 11.9639 10.7188 12.8911 8.76941C14.5076 5.36989 17.8834 2.92128 21.901 2.23186C23.4938 1.97036 23.779 1.97036 25.5145 2.23186ZM25.776 8.22263C26.9884 8.57923 28.4861 9.86296 29.1517 11.1229C29.6034 11.9788 29.6747 12.5493 29.746 15.7111L29.8411 19.3483H23.6364H17.4317V16.3054C17.4317 12.787 17.7645 11.3607 18.9056 9.98183C20.3558 8.19886 23.2798 7.4619 25.776 8.22263ZM48.5742 29.9986L54.3985 31.8529L54.4699 36.8214C54.5412 42.9786 54.2559 44.9993 52.8533 47.8045C51.3318 50.8712 48.4791 53.6289 44.0336 56.3152L42.5596 57.2186L41.5136 56.648C39.6831 55.6496 35.5942 52.464 34.2153 50.9188C32.7652 49.326 31.6716 47.329 31.0773 45.2608C30.6256 43.668 30.3879 37.7486 30.6256 34.3015L30.7921 31.8053L36.0459 30.0224C38.9462 29.0239 41.6563 28.1919 42.0366 28.1919C42.4408 28.1681 45.3648 28.9764 48.5742 29.9986Z" fill="#344045"/>
<path d="M34.667 34.8008C34.5719 34.9435 34.5957 37.7725 34.6908 41.1244L34.8572 47.1865L38.4469 47.1152L42.0366 47.0439V46.093V45.1421L39.4929 45.0707L36.9254 44.9994V43.478V41.9327H38.7321C40.8955 41.9327 41.4423 41.695 41.4423 40.7441C41.4423 39.7694 40.7766 39.4841 38.6846 39.603L36.9254 39.6743V38.2004V36.7265L39.4929 36.6551L42.0366 36.5838V35.6329V34.682L38.4231 34.6107C36.0934 34.5631 34.7621 34.6344 34.667 34.8008Z" fill="#344045"/>
<path d="M43.3442 38.3429C43.3442 38.4855 43.4393 38.6281 43.5581 38.7232C43.7008 38.7945 44.2951 39.6504 44.8894 40.6251L46.0067 42.3842L44.5566 44.6189C43.7483 45.8551 43.1064 46.9249 43.1064 46.9962C43.1064 47.0913 43.6057 47.1626 44.2475 47.1626C45.3649 47.1626 45.3649 47.1388 46.292 45.7125C47.338 44.0959 47.2192 44.0959 48.384 46.069C49.0259 47.1388 49.0734 47.1626 50.2383 47.1626C50.8802 47.1626 51.427 47.1151 51.427 47.0437C51.427 46.9724 50.7851 45.9026 50.0006 44.6427L48.5504 42.408L50.0006 40.3873C50.7851 39.27 51.427 38.3191 51.427 38.2478C51.427 38.1764 50.8802 38.1289 50.2383 38.1289C49.0497 38.1289 49.0259 38.1527 48.2889 39.3175C47.8848 39.9594 47.4807 40.5062 47.4093 40.5062C47.338 40.5062 46.9814 39.9594 46.6248 39.3175L45.9592 38.1289H44.6517C43.9385 38.1289 43.3442 38.224 43.3442 38.3429Z" fill="#344045"/>
</svg>
